<?xml version="1.0" encoding="UTF-8" standalone="no"?><!DOCTYPE svg PUBLIC "-//W3C//DTD SVG 1.1//EN" "http://www.w3.org/Graphics/SVG/1.1/DTD/svg11.dtd"><svg width="100%" height="100%" viewBox="0 0 11752 11759" version="1.1" xmlns="http://www.w3.org/2000/svg" xmlns:xlink="http://www.w3.org/1999/xlink" xml:space="preserve" xmlns:serif="http://www.serif.com/" style="fill-rule:evenodd;clip-rule:evenodd;stroke-linejoin:round;stroke-miterlimit:2;"><path d="M5259.57,11351.3c-177.792,0 -352.917,-7.166 -524.792,-21.375c-647.25,-53.583 -1949.58,-161.375 -2966.43,-1122.96c-1952.8,-1846.71 -1652.05,-5706.79 217.337,-7979.43c239.138,-290.722 1885.05,-2227.52 4452.18,-2227.52c17.167,0 34.334,0.087 51.625,0.262c1901.17,19.216 3235.58,1093.16 3397.83,1226.95c204.958,169.008 657.041,570.649 1064.5,1207.82c957.375,1497.12 1041.5,3587.12 325.292,5261.29c-1063.08,2484.79 -3743.13,3654.96 -6017.54,3654.96Zm2527.96,-7270.12c-1.167,-0 -2.333,0.041 -3.5,0.207c-44.833,6.043 -90.625,9.417 -136.041,10.001c-15.084,0.166 -27.167,12.583 -27,27.666c0.207,14.959 12.416,27 27.332,27l0.376,-0c47.624,-0.625 95.624,-4.167 142.666,-10.5c14.917,-2.042 25.417,-15.791 23.417,-30.75c-1.875,-13.792 -13.75,-23.624 -27.25,-23.624Zm-416.666,-19.626c-12.459,-0 -23.792,8.5 -26.709,21.208c-3.375,14.667 5.792,29.334 20.5,32.751c46.291,10.707 93.792,18.708 141.083,23.75c1,0.125 1.958,0.166 2.958,0.166c13.75,0 25.626,-10.375 27.125,-24.417c1.584,-14.999 -9.25,-28.458 -24.249,-30.041c-45.125,-4.875 -90.417,-12.5 -134.625,-22.708c-2.042,-0.501 -4.083,-0.709 -6.083,-0.709Zm686.749,-51.166c-3.374,-0 -6.791,0.624 -10.083,1.916c-42.084,16.709 -85.709,31.042 -129.666,42.625c-14.584,3.833 -23.292,18.792 -19.459,33.375c3.208,12.25 14.292,20.375 26.417,20.375c2.292,-0 4.624,-0.292 6.958,-0.917c46.083,-12.124 91.792,-27.125 135.917,-44.666c13.999,-5.584 20.875,-21.458 15.291,-35.5c-4.25,-10.709 -14.5,-17.208 -25.375,-17.208Zm-949,-44.459c-9.958,-0 -19.542,5.458 -24.375,14.875c-6.875,13.458 -1.542,29.917 11.917,36.792c42.334,21.625 86.5,40.874 131.208,57.167c3.125,1.125 6.292,1.666 9.375,1.666c11.167,-0 21.626,-6.916 25.667,-17.959c5.167,-14.166 -2.125,-29.874 -16.292,-35.041c-42.625,-15.583 -84.75,-33.874 -125.124,-54.542c-4.001,-2 -8.21,-2.958 -12.376,-2.958Zm1193.75,-89.292c-5.499,0 -11.083,1.667 -15.874,5.125c-36.918,26.417 -75.793,50.792 -115.584,72.542c-13.25,7.208 -18.125,23.792 -10.875,37.084c4.958,9.083 14.333,14.208 24,14.208c4.417,-0 8.916,-1.084 13.083,-3.334c41.708,-22.791 82.458,-48.374 121.167,-76.042c12.25,-8.791 15.084,-25.874 6.333,-38.124c-5.333,-7.459 -13.75,-11.459 -22.25,-11.459Zm-1370.62,-22.333c-8.208,-0 -16.333,3.709 -21.75,10.708c-9.166,11.959 -6.916,29.125 5.083,38.292c18.251,14 37.292,27.75 56.667,40.833c4.708,3.167 10.042,4.709 15.292,4.709c8.792,0 17.374,-4.208 22.666,-12c8.459,-12.5 5.209,-29.501 -7.333,-37.958c-18.458,-12.5 -36.666,-25.626 -54.042,-38.959c-4.958,-3.791 -10.791,-5.625 -16.583,-5.625Zm1576.46,-166.083c-7.709,-0 -15.375,3.25 -20.792,9.542c-29.458,34.375 -61.416,67.374 -94.917,98.124c-11.124,10.167 -11.875,27.459 -1.666,38.583c5.374,5.876 12.749,8.876 20.166,8.876c6.584,-0 13.208,-2.375 18.416,-7.167c35.126,-32.208 68.626,-66.791 99.501,-102.874c9.834,-11.417 8.5,-28.668 -2.958,-38.5c-5.125,-4.417 -11.459,-6.584 -17.75,-6.584Zm1182.54,-84.417c-23.584,0 -43.251,18.917 -44.042,42.792c-0.833,24.416 18.291,44.875 42.708,45.708c20.5,0.666 40.959,1.042 61.292,1.042c29.041,-0 58.333,-0.708 87.082,-2.125c24.418,-1.209 43.209,-21.959 42.043,-46.376c-1.167,-23.708 -20.75,-42.082 -44.25,-42.082c-0.709,-0 -1.417,0.041 -2.125,0.083c-27.292,1.334 -54.834,2 -82.5,2c-19.5,-0 -39.042,-0.334 -58.584,-1c-0.541,-0.042 -1.083,-0.042 -1.624,-0.042Zm-375.334,-54.166c-19.625,-0 -37.625,13.291 -42.75,33.208c-6.125,23.624 8.083,47.75 31.749,53.874c47.668,12.334 96.501,22.834 145.167,31.125c2.501,0.459 5.042,0.668 7.501,0.668c21.167,-0 39.875,-15.251 43.541,-36.834c4.125,-24.042 -12.083,-46.917 -36.125,-51.042c-46.25,-7.916 -92.666,-17.833 -137.917,-29.542c-3.749,-1 -7.5,-1.457 -11.166,-1.457Zm894.541,-7.209c-3.916,0 -7.874,0.541 -11.832,1.625c-45.167,12.542 -91.334,23.292 -137.293,31.917c-24,4.541 -39.791,27.666 -35.291,51.666c4,21.251 22.584,36.042 43.417,36.042c2.708,-0 5.499,-0.25 8.25,-0.75c48.374,-9.125 96.999,-20.416 144.583,-33.625c23.541,-6.541 37.333,-30.917 30.791,-54.458c-5.417,-19.584 -23.249,-32.417 -42.625,-32.417Zm-1547.08,-86.583c-10,-0 -19.667,5.5 -24.458,15.041c-20.334,40.459 -43.376,80.168 -68.583,118c-8.375,12.584 -5.001,29.542 7.583,37.876c4.667,3.125 9.917,4.582 15.125,4.582c8.833,0 17.5,-4.249 22.75,-12.166c26.417,-39.667 50.624,-81.333 71.958,-123.75c6.791,-13.5 1.334,-29.916 -12.166,-36.667c-3.917,-2 -8.084,-2.916 -12.209,-2.916Zm298.25,-41.291c-16.042,-0 -31.5,8.749 -39.333,24c-11.208,21.749 -2.667,48.416 19.083,59.582c43.791,22.542 89.167,43.501 134.75,62.293c5.5,2.249 11.208,3.374 16.834,3.374c17.374,-0 33.874,-10.333 40.917,-27.416c9.291,-22.584 -1.459,-48.459 -24.042,-57.751c-43.334,-17.833 -86.375,-37.75 -128,-59.166c-6.459,-3.334 -13.376,-4.916 -20.209,-4.916Zm1600.5,-13.251c-7.084,-0 -14.251,1.709 -20.875,5.25c-41.334,22.167 -84.043,42.792 -126.918,61.333c-22.416,9.667 -32.749,35.709 -23.041,58.168c7.209,16.707 23.5,26.708 40.625,26.708c5.833,-0 11.791,-1.209 17.5,-3.668c45.166,-19.499 90.125,-41.208 133.624,-64.541c21.543,-11.542 29.626,-38.375 18.084,-59.875c-7.958,-14.917 -23.25,-23.375 -38.999,-23.375Zm-1859.58,-150.917c-13.291,0 -26.417,5.958 -35.126,17.334c-14.874,19.417 -11.208,47.166 8.21,62.041c19.207,14.709 38.874,29.167 58.457,42.917c7.751,5.459 16.626,8.042 25.417,8.042c13.917,-0 27.626,-6.542 36.208,-18.792c14.084,-20 9.25,-47.583 -10.749,-61.625c-18.584,-13.083 -37.293,-26.792 -55.542,-40.792c-8,-6.167 -17.458,-9.125 -26.875,-9.125Zm2172.04,-63.792c-10.251,0 -20.501,3.542 -28.876,10.751c-35.416,30.583 -72.624,60.041 -110.5,87.583c-19.791,14.375 -24.166,42.042 -9.791,61.792c8.625,11.916 22.125,18.25 35.791,18.25c9.043,-0 18.126,-2.75 25.959,-8.459c39.916,-29 79.042,-59.999 116.333,-92.166c18.5,-15.959 20.584,-43.875 4.625,-62.375c-8.791,-10.167 -21.124,-15.376 -33.541,-15.376Zm-4365.42,10.626c-2.042,-0 -4.125,0.25 -6.208,0.709c-14.709,3.416 -23.917,18.041 -20.542,32.749c5.208,22.625 11.167,45.416 17.708,67.667c3.5,11.917 14.375,19.624 26.209,19.624c2.541,0 5.125,-0.332 7.708,-1.083c14.458,-4.292 22.75,-19.458 18.5,-33.916c-6.209,-21.251 -11.917,-42.959 -16.833,-64.5c-2.917,-12.625 -14.125,-21.25 -26.542,-21.25Zm-28.375,-282.167c-14.292,0.25 -27.584,11.667 -27.917,26.75c-0.167,8.458 -0.25,16.917 -0.25,25.292c0,39.917 2.042,80.333 6.084,120.083c1.458,14.041 13.333,24.541 27.167,24.541c0.916,0 1.874,-0.083 2.791,-0.166c15.041,-1.541 25.958,-14.916 24.416,-29.958c-3.874,-37.875 -5.833,-76.416 -5.833,-114.5c0,-8 0.125,-16.083 0.292,-24.167c0.291,-15.083 -11.667,-27.583 -26.75,-27.875Zm4652.17,-6.125c-13.5,0 -26.834,6.167 -35.5,17.834c-27.918,37.541 -57.792,74.374 -88.834,109.541c-16.167,18.333 -14.416,46.292 3.875,62.459c8.417,7.417 18.875,11.083 29.25,11.083c12.292,-0 24.459,-5.084 33.208,-14.959c32.667,-37 64.084,-75.791 93.5,-115.291c14.583,-19.625 10.5,-47.333 -9.125,-61.916c-7.916,-5.876 -17.166,-8.751 -26.374,-8.751Zm-4612.25,-274.624c-12,-0 -23.084,7.957 -26.417,20.124c-12.667,46.584 -22.625,94.501 -29.5,142.417c-2.125,14.958 8.208,28.792 23.167,30.958c1.291,0.167 2.624,0.251 3.916,0.251c13.375,-0 25.042,-9.834 27,-23.418c6.584,-45.708 16.042,-91.416 28.167,-135.833c3.958,-14.584 -4.625,-29.583 -19.208,-33.541c-2.375,-0.668 -4.792,-0.958 -7.125,-0.958Zm107.958,-262.459c-9.542,0 -18.75,5 -23.792,13.875c-23.833,42.125 -45.208,86.208 -63.625,130.875c-5.75,13.958 0.876,29.958 14.834,35.708c3.416,1.375 6.916,2.041 10.416,2.041c10.75,0 20.917,-6.375 25.25,-16.915c17.583,-42.625 37.958,-84.626 60.709,-124.793c7.416,-13.125 2.791,-29.833 -10.333,-37.25c-4.292,-2.375 -8.917,-3.541 -13.459,-3.541Zm168.995,-227.854c-7.208,-0 -14.416,2.825 -19.791,8.449c-33.334,34.955 -64.829,72.388 -93.667,111.293c-8.995,12.116 -6.454,29.245 5.671,38.241c4.875,3.6 10.584,5.358 16.246,5.358c8.333,0 16.583,-3.813 21.962,-11.045c27.501,-37.088 57.584,-72.817 89.329,-106.121c10.417,-10.942 10.047,-28.23 -0.916,-38.638c-5.292,-5.034 -12.079,-7.537 -18.834,-7.537Zm1228.51,-227.155c-24.458,0.463 -43.875,20.65 -43.416,45.084c0.958,50.217 4.083,100.887 9.291,150.587c2.375,22.721 21.583,39.621 43.959,39.621c1.541,-0 3.083,-0.07 4.666,-0.237c24.292,-2.542 41.917,-24.317 39.375,-48.613c-4.917,-47.208 -7.917,-95.338 -8.833,-143.05c-0.459,-24.145 -20.167,-43.392 -44.209,-43.392l-0.833,0Zm-1009.25,47.221c-5,0 -10.041,1.38 -14.583,4.266c-40.792,25.825 -80.459,54.485 -117.876,85.143c-11.629,9.583 -13.333,26.791 -3.791,38.454c5.417,6.587 13.25,10.004 21.166,10.004c6.084,0 12.209,-2.025 17.292,-6.192c35.709,-29.27 73.542,-56.596 112.459,-81.25c12.75,-8.058 16.541,-24.946 8.458,-37.7c-5.208,-8.216 -14.042,-12.725 -23.125,-12.725Zm256.375,-121.008c-2.833,-0 -5.667,0.437 -8.5,1.354c-45.875,15.05 -91.333,33.171 -135.041,53.821c-13.667,6.458 -19.501,22.737 -13.043,36.37c4.668,9.872 14.5,15.663 24.708,15.663c3.918,0 7.876,-0.825 11.667,-2.616c41.709,-19.692 85.001,-36.955 128.751,-51.313c14.333,-4.696 22.124,-20.146 17.416,-34.475c-3.749,-11.512 -14.458,-18.804 -25.958,-18.804Zm278,-54.479c-0.542,-0 -1.042,0.012 -1.542,0.038c-48.375,3.391 -96.875,9.791 -144.208,19.054c-14.792,2.908 -24.459,17.262 -21.583,32.071c2.541,13.02 13.999,22.066 26.791,22.066c1.75,-0 3.501,-0.159 5.292,-0.505c45.084,-8.828 91.375,-14.945 137.5,-18.145c15.083,-1.067 26.416,-14.117 25.374,-29.167c-0.999,-14.533 -13.208,-25.412 -27.624,-25.412Zm141.792,-1.137c-14.084,-0 -25.875,11.578 -26.584,25.966c-0.792,15.071 10.792,27.908 25.834,28.708c6,0.296 12,0.671 18.083,1.125c40.25,2.771 80.542,7.709 119.75,14.68c1.625,0.287 3.25,0.42 4.834,0.42c12.999,0 24.499,-9.312 26.874,-22.545c2.625,-14.863 -7.291,-29.034 -22.125,-31.676c-41.124,-7.312 -83.375,-12.483 -125.417,-15.4c-6.416,-0.475 -12.791,-0.849 -19.166,-1.195c-0.708,-0.059 -1.417,-0.083 -2.083,-0.083Zm369.166,-254.318c-20.667,0 -39.041,14.384 -43.333,35.338c-10.083,48.925 -18.167,99.004 -24.042,148.838c-2.875,24.267 14.458,46.263 38.75,49.133c1.75,0.204 3.501,0.309 5.209,0.309c22.125,-0 41.249,-16.538 43.917,-39.039c5.582,-47.366 13.249,-94.941 22.833,-141.44c4.916,-23.918 -10.5,-47.318 -34.417,-52.242c-3,-0.605 -6,-0.897 -8.917,-0.897Zm119.542,-366.337c-16.792,0 -32.875,9.592 -40.292,25.867c-20.833,45.587 -39.874,92.625 -56.666,139.804c-8.208,23.016 3.791,48.317 26.791,56.525c4.917,1.745 9.958,2.575 14.876,2.575c18.166,0 35.208,-11.3 41.666,-29.412c15.958,-44.809 34.042,-89.467 53.833,-132.755c10.125,-22.221 0.334,-48.471 -21.875,-58.616c-5.958,-2.705 -12.208,-3.988 -18.333,-3.988Zm198.5,-330.466c-13.333,-0 -26.458,5.97 -35.208,17.337c-30.417,39.779 -59.542,81.375 -86.5,123.625c-13.125,20.6 -7.083,47.955 13.541,61.091c7.375,4.696 15.584,6.946 23.75,6.946c14.583,0 28.875,-7.224 37.333,-20.446c25.584,-40.162 53.25,-79.662 82.167,-117.441c14.833,-19.409 11.126,-47.171 -8.25,-62.021c-8.041,-6.129 -17.458,-9.091 -26.833,-9.091Zm266.792,-278.105c-10,-0 -20.042,3.367 -28.292,10.271c-38.542,32.113 -76.125,66.221 -111.709,101.35c-17.374,17.163 -17.541,45.175 -0.374,62.558c8.666,8.763 20.042,13.15 31.458,13.15c11.25,0 22.5,-4.25 31.084,-12.771c33.832,-33.383 69.541,-65.804 106.166,-96.32c18.75,-15.655 21.291,-43.55 5.666,-62.317c-8.749,-10.504 -21.333,-15.921 -33.999,-15.921Z" style="fill:url(#_Linear1);"/><path d="M8035.48,2152.11c-22.376,-0 -41.584,-16.9 -43.959,-39.621c-5.208,-49.7 -8.333,-100.37 -9.291,-150.587c-0.459,-24.434 18.958,-44.621 43.416,-45.084l0.833,0c24.042,0 43.75,19.247 44.209,43.392c0.916,47.712 3.916,95.842 8.833,143.05c2.542,24.296 -15.083,46.071 -39.375,48.613c-1.583,0.167 -3.125,0.237 -4.666,0.237Zm2.833,-385.395c-1.708,-0 -3.459,-0.105 -5.209,-0.309c-24.292,-2.87 -41.625,-24.866 -38.75,-49.133c5.875,-49.834 13.959,-99.913 24.042,-148.838c4.292,-20.954 22.666,-35.338 43.333,-35.338c2.917,0 5.917,0.292 8.917,0.897c23.917,4.924 39.333,28.324 34.417,52.242c-9.584,46.499 -17.251,94.074 -22.833,141.44c-2.668,22.501 -21.792,39.039 -43.917,39.039Zm87.667,-375.184c-4.918,0 -9.959,-0.83 -14.876,-2.575c-23,-8.208 -34.999,-33.509 -26.791,-56.525c16.792,-47.179 35.833,-94.217 56.666,-139.804c7.417,-16.275 23.5,-25.867 40.292,-25.867c6.125,0 12.375,1.283 18.333,3.988c22.209,10.145 32,36.395 21.875,58.616c-19.791,43.288 -37.875,87.946 -53.833,132.755c-6.458,18.112 -23.5,29.412 -41.666,29.412Zm169.374,-346.238c-8.166,0 -16.375,-2.25 -23.75,-6.946c-20.624,-13.136 -26.666,-40.491 -13.541,-61.091c26.958,-42.25 56.083,-83.846 86.5,-123.625c8.75,-11.367 21.875,-17.337 35.208,-17.337c9.375,-0 18.792,2.962 26.833,9.091c19.376,14.85 23.083,42.612 8.25,62.021c-28.917,37.779 -56.583,77.279 -82.167,117.441c-8.458,13.222 -22.75,20.446 -37.333,20.446Zm242.292,-299.775c-11.416,0 -22.792,-4.387 -31.458,-13.15c-17.167,-17.383 -17,-45.395 0.374,-62.558c35.584,-35.129 73.167,-69.237 111.709,-101.35c8.25,-6.904 18.292,-10.271 28.292,-10.271c12.666,-0 25.25,5.417 33.999,15.921c15.625,18.767 13.084,46.662 -5.666,62.317c-36.625,30.516 -72.334,62.937 -106.166,96.32c-8.584,8.521 -19.834,12.771 -31.084,12.771Z" style="fill:url(#_Linear2);"/><path d="M8840.23,506.837c-14.792,-0 -29.208,-7.395 -37.583,-20.871c-12.916,-20.758 -6.542,-48.025 14.167,-60.938c42.542,-26.437 86.749,-51.391 131.374,-74.133c6.417,-3.274 13.293,-4.829 20.042,-4.829c16.126,0 31.625,8.829 39.458,24.167c11.084,21.758 2.417,48.404 -19.333,59.5c-42.416,21.617 -84.375,45.313 -124.791,70.438c-7.292,4.529 -15.334,6.666 -23.334,6.666Zm1621.12,-105.325c-6.124,-0 -12.374,-1.279 -18.292,-3.975c-43.249,-19.666 -87.999,-37.704 -132.916,-53.604c-23,-8.158 -35.083,-33.438 -26.917,-56.454c6.417,-18.154 23.5,-29.492 41.709,-29.492c4.875,0 9.874,0.816 14.75,2.55c47.291,16.742 94.416,35.738 139.958,56.438c22.25,10.108 32.083,36.341 22,58.578c-7.417,16.317 -23.5,25.959 -40.292,25.959Zm-1273.38,-60.258c-18.375,-0 -35.542,-11.513 -41.833,-29.825c-7.958,-23.108 4.291,-48.288 27.417,-56.25c47.333,-16.329 95.958,-30.796 144.499,-42.996c3.626,-0.883 7.208,-1.309 10.751,-1.309c19.833,0 37.917,13.313 42.958,33.433c5.958,23.692 -8.417,47.73 -32.125,53.693c-46.125,11.578 -92.292,25.321 -137.25,40.816c-4.792,1.642 -9.666,2.438 -14.417,2.438Zm906.751,-58.6c-2.917,-0 -5.876,-0.279 -8.834,-0.879c-46.625,-9.488 -94.25,-17.076 -141.584,-22.588c-24.292,-2.833 -41.666,-24.796 -38.833,-49.062c2.625,-22.475 21.667,-39.15 43.75,-39.15c1.751,-0 3.542,0.103 5.333,0.32c49.793,5.809 99.917,13.792 148.959,23.763c23.916,4.871 39.416,28.237 34.541,52.171c-4.291,20.963 -22.708,35.425 -43.332,35.425Zm-530.751,-25.163c-22.333,0 -41.542,-16.846 -43.959,-39.538c-2.582,-24.295 15.001,-46.087 39.293,-48.695c49.75,-5.304 100.374,-8.537 150.541,-9.575l0.917,-0.021c24,-0 43.708,19.205 44.208,43.308c0.542,24.438 -18.875,44.655 -43.292,45.159c-47.625,1 -95.708,4.078 -142.999,9.125c-1.584,0.154 -3.167,0.237 -4.709,0.237Z" style="fill:#dee8fd;fill-rule:nonzero;"/><path d="M10731.4,555.087c-8.709,0 -17.501,-2.558 -25.209,-7.912c-18.708,-13.03 -38.042,-25.872 -57.375,-38.213c-20.625,-13.112 -26.708,-40.47 -13.542,-61.071c8.417,-13.241 22.709,-20.495 37.334,-20.495c8.124,-0 16.374,2.241 23.708,6.949c20.375,12.959 40.708,26.471 60.416,40.18c20.042,13.945 25,41.524 11.043,61.57c-8.584,12.371 -22.376,18.992 -36.375,18.992Z" style="fill:#dee8fd;fill-rule:nonzero;"/><path d="M11450.1,1696.42c-21.334,0 -40.126,-15.487 -43.625,-37.241c-3.625,-22.517 -7.75,-45.35 -12.334,-67.83c-4.833,-23.949 10.625,-47.295 34.583,-52.153c2.959,-0.604 5.958,-0.892 8.876,-0.892c20.666,-0 39.041,14.491 43.291,35.458c4.791,23.666 9.125,47.708 12.959,71.417c3.833,24.124 -12.583,46.816 -36.709,50.687c-2.375,0.379 -4.708,0.554 -7.041,0.554Z" style="fill:#dee8fd;fill-rule:nonzero;"/><path d="M9750.69,3693.33c-20.333,-0 -40.792,-0.376 -61.292,-1.042c-24.417,-0.833 -43.541,-21.292 -42.708,-45.708c0.791,-23.875 20.458,-42.792 44.042,-42.792c0.541,0 1.083,0 1.624,0.042c19.542,0.666 39.084,1 58.584,1c27.666,-0 55.208,-0.666 82.5,-2c0.708,-0.042 1.416,-0.083 2.125,-0.083c23.5,-0 43.083,18.374 44.25,42.082c1.166,24.417 -17.625,45.167 -42.043,46.376c-28.749,1.417 -58.041,2.125 -87.082,2.125Zm-293.625,-24.833c-2.459,-0 -5,-0.209 -7.501,-0.668c-48.666,-8.291 -97.499,-18.791 -145.167,-31.125c-23.666,-6.124 -37.874,-30.25 -31.749,-53.874c5.125,-19.917 23.125,-33.208 42.75,-33.208c3.666,-0 7.417,0.457 11.166,1.457c45.251,11.709 91.667,21.626 137.917,29.542c24.042,4.125 40.25,27 36.125,51.042c-3.666,21.583 -22.374,36.834 -43.541,36.834Zm611.875,-4.834c-20.833,-0 -39.417,-14.791 -43.417,-36.042c-4.5,-24 11.291,-47.125 35.291,-51.666c45.959,-8.625 92.126,-19.375 137.293,-31.917c3.958,-1.084 7.916,-1.625 11.832,-1.625c19.376,0 37.208,12.833 42.625,32.417c6.542,23.541 -7.25,47.917 -30.791,54.458c-47.584,13.209 -96.209,24.5 -144.583,33.625c-2.751,0.5 -5.542,0.75 -8.25,0.75Zm-976.5,-99.875c-5.626,-0 -11.334,-1.125 -16.834,-3.374c-45.583,-18.792 -90.959,-39.751 -134.75,-62.293c-21.75,-11.166 -30.291,-37.833 -19.083,-59.582c7.833,-15.251 23.291,-24 39.333,-24c6.833,-0 13.75,1.582 20.209,4.916c41.625,21.416 84.666,41.333 128,59.166c22.583,9.292 33.333,35.167 24.042,57.751c-7.043,17.083 -23.543,27.416 -40.917,27.416Zm1338.96,-11.041c-17.125,-0 -33.416,-10.001 -40.625,-26.708c-9.708,-22.459 0.625,-48.501 23.041,-58.168c42.875,-18.541 85.584,-39.166 126.918,-61.333c6.624,-3.541 13.791,-5.25 20.875,-5.25c15.749,-0 31.041,8.458 38.999,23.375c11.542,21.5 3.459,48.333 -18.084,59.875c-43.499,23.333 -88.458,45.042 -133.624,64.541c-5.709,2.459 -11.667,3.668 -17.5,3.668Zm329.291,-187.792c-13.666,-0 -27.166,-6.334 -35.791,-18.25c-14.375,-19.75 -10,-47.417 9.791,-61.792c37.876,-27.542 75.084,-57 110.5,-87.583c8.375,-7.209 18.625,-10.751 28.876,-10.751c12.417,0 24.75,5.209 33.541,15.376c15.959,18.5 13.875,46.416 -4.625,62.375c-37.291,32.167 -76.417,63.166 -116.333,92.166c-7.833,5.709 -16.916,8.459 -25.959,8.459Zm280.542,-255.125c-10.375,-0 -20.833,-3.666 -29.25,-11.083c-18.291,-16.167 -20.042,-44.126 -3.875,-62.459c31.042,-35.167 60.916,-72 88.834,-109.541c8.666,-11.667 22,-17.834 35.5,-17.834c9.208,0 18.458,2.875 26.374,8.751c19.625,14.583 23.708,42.291 9.125,61.916c-29.416,39.5 -60.833,78.291 -93.5,115.291c-8.749,9.875 -20.916,14.959 -33.208,14.959Z" style="fill:url(#_Linear3);"/><path d="M11259.5,2799.62c-7.209,-0 -14.542,-1.792 -21.292,-5.501c-21.417,-11.75 -29.209,-38.667 -17.459,-60.041c22.583,-41.084 43.667,-83.584 62.667,-126.334c7.334,-16.499 23.5,-26.292 40.458,-26.292c6,0 12.083,1.209 17.917,3.793c22.333,9.916 32.416,36.083 22.458,58.417c-20,45.04 -42.166,89.79 -65.958,132.999c-8.042,14.667 -23.208,22.959 -38.791,22.959Zm144.833,-350.708c-4.043,-0 -8.167,-0.543 -12.251,-1.709c-23.499,-6.792 -37.041,-31.292 -30.291,-54.75c12.958,-44.946 24.125,-91.017 33.249,-136.983c4.209,-21.063 22.751,-35.617 43.376,-35.617c2.875,-0 5.75,0.274 8.625,0.85c24,4.75 39.542,28.046 34.791,52.016c-9.583,48.384 -21.374,96.901 -34.999,144.192c-5.584,19.375 -23.292,32.001 -42.5,32.001Zm64.208,-373.664c-0.875,0 -1.791,-0.036 -2.708,-0.087c-24.417,-1.487 -42.958,-22.466 -41.459,-46.846c2.083,-34.425 3.167,-69.312 3.167,-103.737c-0,-12.463 -0.167,-24.905 -0.416,-37.296c-0.543,-24.433 18.833,-44.666 43.249,-45.187c0.626,-0.025 1.209,-0.038 1.833,-0.038c23.875,0 42.834,19.479 43.376,43.292c0.291,13.05 0.416,26.108 0.416,39.229c-0,36.2 -1.125,72.921 -3.333,109.125c-1.417,23.471 -20.916,41.545 -44.125,41.545Z" style="fill:#dee8fd;fill-rule:nonzero;"/><path d="M8758.98,3380.7c-8.791,-0 -17.666,-2.583 -25.417,-8.042c-19.583,-13.75 -39.25,-28.208 -58.457,-42.917c-19.418,-14.875 -23.084,-42.624 -8.21,-62.041c8.709,-11.376 21.835,-17.334 35.126,-17.334c9.417,0 18.875,2.958 26.875,9.125c18.249,14 36.958,27.709 55.542,40.792c19.999,14.042 24.833,41.625 10.749,61.625c-8.582,12.25 -22.291,18.792 -36.208,18.792Z" style="fill:url(#_Linear4);"/><path d="M8818.69,2867.58c5.541,6.833 14.874,9.375 23.125,6.334l236.208,-86.834c93.125,71.708 198.333,129.083 312.709,168.374l57.582,244.834c2.042,8.583 9.292,14.917 18.042,15.833l300.334,30.417c8.791,0.875 17.166,-3.916 20.833,-11.917l105.541,-228.25c119.959,-15.583 234.542,-50.708 340.126,-102.291l213.957,132.458c7.501,4.625 17.126,4.001 23.959,-1.541l233.875,-190.876c6.833,-5.582 9.375,-14.875 6.334,-23.167l-86.834,-236.166c71.708,-93.124 129.083,-198.333 168.376,-312.709l244.833,-57.608c8.583,-2.016 14.916,-9.262 15.833,-18.038l30.416,-300.324c0.875,-8.775 -3.874,-17.154 -11.916,-20.85l-228.25,-105.529c-15.583,-119.942 -50.709,-234.521 -102.292,-340.117l132.459,-213.983c4.624,-7.496 4,-17.117 -1.542,-23.95l-190.876,-233.866c-5.582,-6.843 -14.874,-9.38 -23.165,-6.338l-236.168,86.858c-93.124,-71.712 -198.333,-129.091 -312.707,-168.4l-57.584,-244.813c-2.042,-8.583 -9.292,-14.941 -18.042,-15.832l-300.333,-30.421c-8.792,-0.893 -17.167,3.886 -20.875,11.895l-105.5,228.283c-119.958,15.571 -234.542,50.688 -340.125,102.272l-214,-132.459c-7.5,-4.646 -17.125,-4.017 -23.958,1.558l-233.834,190.85c-6.833,5.575 -9.375,14.876 -6.333,23.159l86.833,236.187c-71.708,93.109 -129.083,198.325 -168.374,312.704l-244.834,57.604c-8.583,2.017 -14.958,9.267 -15.833,18.046l-30.417,300.317c-0.875,8.774 3.875,17.149 11.875,20.854l228.292,105.525c15.583,119.937 50.708,234.52 102.291,340.126l-132.459,213.957c-4.666,7.5 -4.041,17.126 1.543,23.959l190.875,233.875Z" style="fill:#91b3fa;fill-rule:nonzero;"/><path d="M9750.61,1680.02c-11.416,0 -22.917,0.829 -34.417,2.521c-126.916,18.7 -214.917,137.179 -196.249,264.072c18.708,126.908 137.166,214.991 264.083,196.241c126.916,-18.7 214.917,-137.176 196.25,-264.071c-9.084,-61.488 -41.541,-115.746 -91.417,-152.813c-40.542,-30.12 -88.666,-45.95 -138.25,-45.95Zm-0.708,536.122c-147.917,-0 -277.792,-108.613 -299.958,-259.196c-24.417,-165.534 90.416,-320.026 255.916,-344.426c80.209,-11.837 160.167,8.296 225.209,56.63c65.083,48.333 107.417,119.116 119.207,199.3c24.418,165.533 -90.416,320.02 -255.916,344.424c-14.917,2.197 -29.791,3.268 -44.458,3.268Z" style="fill:#bdd0fb;fill-rule:nonzero;"/><path d="M9756.11,2654.37c-25.417,0 -50.958,-1.249 -76.583,-3.875c-8.042,-0.791 -16.083,-1.749 -24.125,-2.833c-39.625,-5.291 -78.75,-13.75 -116.791,-25.208c-0.543,-0.125 -1.042,-0.292 -1.584,-0.459c-1.458,-0.458 -2.917,-0.875 -4.375,-1.374c-2.875,-0.875 -5.708,-1.793 -8.583,-2.709c-7.458,-2.416 -12.209,-9.334 -12.251,-16.792c0,-1.833 0.292,-3.666 0.876,-5.499c3,-9.292 13,-14.334 22.291,-11.375c47.833,15.5 97.667,25.958 148.125,31.041c250.542,25.416 484.292,-83.25 629.875,-267.587c81,-102.53 134.709,-228.488 148.792,-367.838c2.5,-24.437 3.708,-48.821 3.708,-73.049c0,-163.063 -55.667,-319.851 -160.124,-447.885c-120.042,-147.078 -290.168,-238.616 -479.001,-257.745c-390.041,-39.466 -739.208,245.579 -778.666,635.433c-2.459,24.038 -3.668,48.113 -3.668,72.113c0.042,104.016 22.793,206.871 67.084,301.104c1.125,2.437 1.666,4.995 1.666,7.516c0,6.638 -3.749,13.013 -10.166,16.017c-8.874,4.134 -19.416,0.383 -23.541,-8.499c-46.501,-98.93 -70.417,-206.922 -70.417,-316.118c-0,-25.195 1.25,-50.461 3.792,-75.691c41.458,-409.312 408.291,-708.533 817.458,-667.092c198.292,20.079 376.875,116.179 502.875,270.584c109.667,134.407 168.083,299.008 168.125,470.191c0,25.442 -1.292,51.034 -3.916,76.68c-20.084,198.279 -116.168,376.857 -270.543,502.866c-134.458,109.708 -299.125,168.083 -470.333,168.083Z" style="fill:#bdd0fb;fill-rule:nonzero;"/><path d="M6525.82,3317.95c-11.834,0 -22.709,-7.707 -26.209,-19.624c-6.541,-22.251 -12.5,-45.042 -17.708,-67.667c-3.375,-14.708 5.833,-29.333 20.542,-32.749c2.083,-0.459 4.166,-0.709 6.208,-0.709c12.417,-0 23.625,8.625 26.542,21.25c4.916,21.541 10.624,43.249 16.833,64.5c4.25,14.458 -4.042,29.624 -18.5,33.916c-2.583,0.751 -5.167,1.083 -7.708,1.083Z" style="fill:url(#_Linear5);"/><path d="M6485.36,3111.7c-13.834,0 -25.709,-10.5 -27.167,-24.541c-4.042,-39.75 -6.084,-80.166 -6.084,-120.083c0,-8.375 0.083,-16.834 0.25,-25.292c0.333,-15.083 13.625,-26.5 27.917,-26.75c15.083,0.292 27.041,12.792 26.75,27.875c-0.167,8.084 -0.292,16.167 -0.292,24.167c0,38.084 1.959,76.625 5.833,114.5c1.542,15.042 -9.375,28.417 -24.416,29.958c-0.917,0.083 -1.875,0.166 -2.791,0.166Zm5.999,-283.665c-1.292,-0 -2.625,-0.084 -3.916,-0.251c-14.959,-2.166 -25.292,-16 -23.167,-30.958c6.875,-47.916 16.833,-95.833 29.5,-142.417c3.333,-12.167 14.417,-20.124 26.417,-20.124c2.333,-0 4.75,0.29 7.125,0.958c14.583,3.958 23.166,18.957 19.208,33.541c-12.125,44.417 -21.583,90.125 -28.167,135.833c-1.958,13.584 -13.625,23.418 -27,23.418Zm74.625,-273.71c-3.5,0 -7,-0.666 -10.416,-2.041c-13.958,-5.75 -20.584,-21.75 -14.834,-35.708c18.417,-44.667 39.792,-88.75 63.625,-130.875c5.042,-8.875 14.25,-13.875 23.792,-13.875c4.542,0 9.167,1.166 13.459,3.541c13.124,7.417 17.749,24.125 10.333,37.25c-22.751,40.167 -43.126,82.168 -60.709,124.793c-4.333,10.54 -14.5,16.915 -25.25,16.915Zm139.621,-247.012c-5.662,0 -11.371,-1.758 -16.246,-5.358c-12.125,-8.996 -14.666,-26.125 -5.671,-38.241c28.838,-38.905 60.333,-76.338 93.667,-111.293c5.375,-5.624 12.583,-8.449 19.791,-8.449c6.755,-0 13.542,2.503 18.834,7.537c10.963,10.408 11.333,27.696 0.916,38.638c-31.745,33.304 -61.828,69.033 -89.329,106.121c-5.379,7.232 -13.629,11.045 -21.962,11.045Zm195.712,-205.408c-7.916,0 -15.749,-3.417 -21.166,-10.004c-9.542,-11.663 -7.838,-28.871 3.791,-38.454c37.417,-30.658 77.084,-59.318 117.876,-85.143c4.542,-2.886 9.583,-4.266 14.583,-4.266c9.083,0 17.917,4.509 23.125,12.725c8.083,12.754 4.292,29.642 -8.458,37.7c-38.917,24.654 -76.75,51.98 -112.459,81.25c-5.083,4.167 -11.208,6.192 -17.292,6.192Zm239.583,-151.667c-10.208,0 -20.04,-5.791 -24.708,-15.663c-6.458,-13.633 -0.624,-29.912 13.043,-36.37c43.708,-20.65 89.166,-38.771 135.041,-53.821c2.833,-0.917 5.667,-1.354 8.5,-1.354c11.5,-0 22.209,7.292 25.958,18.804c4.708,14.329 -3.083,29.779 -17.416,34.475c-43.75,14.358 -87.042,31.621 -128.751,51.313c-3.791,1.791 -7.749,2.616 -11.667,2.616Zm269.334,-88.458c-12.792,-0 -24.25,-9.046 -26.791,-22.066c-2.876,-14.809 6.791,-29.163 21.583,-32.071c47.333,-9.263 95.833,-15.663 144.208,-19.054c0.5,-0.026 1,-0.038 1.542,-0.038c14.416,-0 26.625,10.879 27.624,25.412c1.042,15.05 -10.291,28.1 -25.374,29.167c-46.125,3.2 -92.416,9.317 -137.5,18.145c-1.791,0.346 -3.542,0.505 -5.292,0.505Zm424.251,-3.467c-1.584,0 -3.209,-0.133 -4.834,-0.42c-39.208,-6.971 -79.5,-11.909 -119.75,-14.68c-6.083,-0.454 -12.083,-0.829 -18.083,-1.125c-15.042,-0.8 -26.626,-13.637 -25.834,-28.708c0.709,-14.388 12.5,-25.966 26.584,-25.966c0.666,-0 1.375,0.024 2.083,0.083c6.375,0.346 12.75,0.72 19.166,1.195c42.042,2.917 84.293,8.088 125.417,15.4c14.834,2.642 24.75,16.813 22.125,31.676c-2.375,13.233 -13.875,22.545 -26.874,22.545Z" style="fill:url(#_Linear6);"/><path d="M7648.69,4146.04l-0.376,-0c-14.916,-0 -27.125,-12.041 -27.332,-27c-0.167,-15.083 11.916,-27.5 27,-27.666c45.416,-0.584 91.208,-3.958 136.041,-10.001c1.167,-0.166 2.333,-0.207 3.5,-0.207c13.5,-0 25.375,9.832 27.25,23.624c2,14.959 -8.5,28.708 -23.417,30.75c-47.042,6.333 -95.042,9.875 -142.666,10.5Zm-140.001,-6.625c-1,0 -1.958,-0.041 -2.958,-0.166c-47.291,-5.042 -94.792,-13.043 -141.083,-23.75c-14.708,-3.417 -23.875,-18.084 -20.5,-32.751c2.917,-12.708 14.25,-21.208 26.709,-21.208c2,-0 4.041,0.208 6.083,0.709c44.208,10.208 89.5,17.833 134.625,22.708c14.999,1.583 25.833,15.042 24.249,30.041c-1.499,14.042 -13.375,24.417 -27.125,24.417Zm416.126,-30.75c-12.125,-0 -23.209,-8.125 -26.417,-20.375c-3.833,-14.583 4.875,-29.542 19.459,-33.375c43.957,-11.583 87.582,-25.916 129.666,-42.625c3.292,-1.292 6.709,-1.916 10.083,-1.916c10.875,-0 21.125,6.499 25.375,17.208c5.584,14.042 -1.292,29.916 -15.291,35.5c-44.125,17.541 -89.834,32.542 -135.917,44.666c-2.334,0.625 -4.666,0.917 -6.958,0.917Zm-688.084,-32.25c-3.083,-0 -6.25,-0.541 -9.375,-1.666c-44.708,-16.293 -88.874,-35.542 -131.208,-57.167c-13.459,-6.875 -18.792,-23.334 -11.917,-36.792c4.833,-9.417 14.417,-14.875 24.375,-14.875c4.166,-0 8.375,0.958 12.376,2.958c40.374,20.668 82.499,38.959 125.124,54.542c14.167,5.167 21.459,20.875 16.292,35.041c-4.041,11.043 -14.5,17.959 -25.667,17.959Zm947.292,-70.833c-9.667,-0 -19.042,-5.125 -24,-14.208c-7.25,-13.292 -2.375,-29.876 10.875,-37.084c39.791,-21.75 78.666,-46.125 115.584,-72.542c4.791,-3.458 10.375,-5.125 15.874,-5.125c8.5,0 16.917,4 22.25,11.459c8.751,12.25 5.917,29.333 -6.333,38.124c-38.709,27.668 -79.459,53.251 -121.167,76.042c-4.167,2.25 -8.666,3.334 -13.083,3.334Zm226.958,-162.25c-7.417,-0 -14.792,-3 -20.166,-8.876c-10.209,-11.124 -9.458,-28.416 1.666,-38.583c33.501,-30.75 65.459,-63.749 94.917,-98.124c5.417,-6.292 13.083,-9.542 20.792,-9.542c6.291,-0 12.625,2.167 17.75,6.584c11.458,9.832 12.792,27.083 2.958,38.5c-30.875,36.083 -64.375,70.666 -99.501,102.874c-5.208,4.792 -11.832,7.167 -18.416,7.167Zm181.542,-212.001c-5.208,0 -10.458,-1.457 -15.125,-4.582c-12.584,-8.334 -15.958,-25.292 -7.583,-37.876c25.207,-37.832 48.249,-77.541 68.583,-118c4.791,-9.541 14.458,-15.041 24.458,-15.041c4.125,-0 8.292,0.916 12.209,2.916c13.5,6.751 18.957,23.167 12.166,36.667c-21.334,42.417 -45.541,84.083 -71.958,123.75c-5.25,7.917 -13.917,12.166 -22.75,12.166Z" style="fill:url(#_Linear7);"/><path d="M6987.02,3948.83c-5.25,0 -10.584,-1.542 -15.292,-4.709c-19.375,-13.083 -38.416,-26.833 -56.667,-40.833c-11.999,-9.167 -14.249,-26.333 -5.083,-38.292c5.417,-6.999 13.542,-10.708 21.75,-10.708c5.792,-0 11.625,1.834 16.583,5.625c17.376,13.333 35.584,26.459 54.042,38.959c12.542,8.457 15.792,25.458 7.333,37.958c-5.292,7.792 -13.874,12 -22.666,12Z" style="fill:url(#_Linear8);"/><path d="M7009.73,3595.83c3.751,4.583 9.959,6.291 15.5,4.249l158.042,-58.124c62.333,48 132.708,86.374 209.25,112.708l38.583,163.792c1.334,5.749 6.167,10 12.042,10.583l200.958,20.375c5.876,0.584 11.5,-2.583 13.959,-7.958l70.624,-152.751c80.25,-10.416 156.918,-33.916 227.584,-68.458l143.166,88.667c5.042,3.083 11.459,2.666 16.042,-1.042l156.501,-127.707c4.582,-3.751 6.291,-9.959 4.25,-15.501l-58.126,-158.042c48,-62.333 86.375,-132.707 112.667,-209.25l163.833,-38.541c5.75,-1.376 10,-6.209 10.584,-12.083l20.374,-200.958c0.584,-5.876 -2.624,-11.5 -7.958,-13.959l-152.75,-70.625c-10.459,-80.25 -33.916,-156.917 -68.458,-227.584l88.625,-143.208c3.125,-4.999 2.708,-11.416 -1.042,-16l-127.708,-156.504c-3.709,-4.575 -9.959,-6.271 -15.458,-4.237l-158.084,58.117c-62.291,-47.984 -132.708,-86.375 -209.25,-112.681l-38.542,-163.816c-1.333,-5.745 -6.166,-9.999 -12.041,-10.596l-201,-20.354c-5.875,-0.6 -11.458,2.6 -13.917,7.958l-70.625,152.755c-80.25,10.421 -156.917,33.916 -227.583,68.438l-143.208,-88.634c-5,-3.108 -11.459,-2.691 -16.001,1.042l-156.5,127.708c-4.583,3.733 -6.292,9.954 -4.25,15.492l58.126,158.062c-48,62.292 -86.375,132.708 -112.709,209.25l-163.792,38.542c-5.749,1.333 -9.999,6.167 -10.587,12.083l-20.371,200.958c-0.588,5.834 2.579,11.459 7.958,13.917l152.751,70.625c10.417,80.25 33.916,156.916 68.458,227.584l-88.667,143.208c-3.083,4.999 -2.666,11.458 1.042,16.042l127.708,156.458Z" style="fill:#91b3fa;fill-rule:nonzero;"/><path d="M7633.11,2804.83c-7.375,-0 -14.792,0.541 -22.292,1.624c-82.916,12.251 -140.416,89.667 -128.208,172.584c5.917,40.167 27.125,75.667 59.709,99.875c32.625,24.209 72.666,34.25 112.875,28.376c40.166,-5.918 75.624,-27.125 99.875,-59.709c24.208,-32.625 34.291,-72.708 28.375,-112.875c-11.126,-75.458 -76.208,-129.875 -150.334,-129.875Zm-0.542,358.749c-44.041,0 -86.791,-14.041 -122.833,-40.832c-44.291,-32.918 -73.124,-81.125 -81.167,-135.751c-16.625,-112.708 61.542,-217.958 174.292,-234.583c112.959,-16.458 218.001,61.583 234.626,174.334c8.041,54.624 -5.626,109.124 -38.584,153.417c-32.917,44.291 -81.125,73.165 -135.75,81.166c-10.208,1.5 -20.416,2.249 -30.584,2.249Z" style="fill:#bdd0fb;fill-rule:nonzero;"/><path d="M7636.52,3468.62c-17.292,-0 -34.75,-0.876 -52.292,-2.626c-34.875,-3.541 -69.417,-10.583 -102.75,-21.042c-1.5,-0.499 -2.958,-0.958 -4.458,-1.457c-11.583,-3.751 -18.917,-14.417 -18.917,-25.959c0,-2.792 0.417,-5.667 1.334,-8.458c4.624,-14.375 20.083,-22.167 34.417,-17.583c30.999,10.083 63.291,16.833 95.875,20.124c1.791,0.167 3.582,0.334 5.374,0.501c77.167,7.083 153.208,-5.376 222.542,-35.25c37.625,-16.209 73.291,-37.625 106.125,-63.917l0.791,-0.625c0.792,-0.667 1.626,-1.334 2.417,-2c95.208,-77.667 154.459,-187.792 166.834,-310.084c1.625,-15.792 2.416,-31.582 2.416,-47.249c-0,-105.584 -36.041,-207.084 -103.666,-290.001c-77.709,-95.208 -187.834,-154.417 -310.083,-166.791c-122.167,-12.334 -242.042,23.584 -337.251,101.25c-95.208,77.708 -154.458,187.833 -166.834,310.083c-1.624,15.541 -2.374,31.125 -2.374,46.666c0,67.334 14.75,133.918 43.417,194.917c1.749,3.751 2.583,7.709 2.583,11.625c0,10.25 -5.792,20.084 -15.708,24.708c-13.667,6.375 -29.917,0.584 -36.333,-13.124c-32.084,-68.25 -48.584,-142.75 -48.626,-218.084c0,-17.375 0.875,-34.791 2.626,-52.207c13.874,-136.792 80.166,-260.001 186.707,-346.917c106.542,-86.917 240.459,-127.292 377.292,-113.334c136.792,13.875 260.001,80.125 346.917,186.708c75.667,92.709 115.958,206.292 116,324.376c0,17.541 -0.875,35.208 -2.667,52.874c-26.875,264.834 -251.042,462.876 -511.708,462.876Z" style="fill:#bdd0fb;fill-rule:nonzero;"/><path d="M5078.61,11377.8l-4331.28,0l0,-6027.83c0,-316.584 256.671,-573.292 573.287,-573.292l3691.58,0c316.583,0 573.249,256.708 573.249,573.292l0,5520.96c0,279.917 -226.916,506.875 -506.833,506.875Z" style="fill:#7d97f4;fill-rule:nonzero;"/><path d="M4860.73,11377.8l-4838.12,0l0,-6432.67c0,-93.041 75.413,-168.458 168.438,-168.458l4501.27,0c93,0 168.416,75.417 168.416,168.458l0,6432.67Z" style="fill:#91b3fa;fill-rule:nonzero;"/><path d="M9988.9,8904c-0,0 -620.584,-103.958 -654.416,-103.958l-1727.58,0c-115.291,0 -209.667,94.375 -209.667,209.667l-0,189.583c-0,115.292 94.376,209.667 209.667,209.667l1727.58,-0c16.333,-0 32.166,-2.083 47.458,-5.667c202.291,-33.458 404.625,-199.75 606.958,-499.292Z" style="fill:url(#_Linear9);"/><path d="M9982.23,8929.58c2354.62,-5595.42 -2007.5,-5600.25 -1464.21,-305.084l1464.21,305.084Z" style="fill:url(#_Linear10);"/><path d="M9820.11,8876c2354.67,-5702.21 -2133.75,-5549.67 -1590.42,-153.458l1590.42,153.458Z" style="fill:url(#_Linear11);"/><rect x="8490.15" y="9253.33" width="183.417" height="1983.83" style="fill:url(#_Linear12);"/><path d="M9385.23,11275.4l-1606.71,-0l-0,-107.5c-0,-6.583 5.291,-11.917 11.875,-11.917l1582,0c7.083,0 12.833,5.75 12.833,12.834l0,106.583Z" style="fill:url(#_Linear13);"/><path d="M7609.19,10964.5c-0,0 -523.833,377.583 -432.876,631.25c0,0 573.167,-247.292 642.418,-442.083c69.207,-194.792 -11.751,-280.792 -11.751,-280.792l-197.791,91.625Z" style="fill:url(#_Linear14);"/><path d="M7687.94,10648.1l85.626,247.625c12.917,37.375 -0,79.917 -33.417,101.042c-16.75,10.584 -39.625,20.333 -70.875,27.417c-44.125,10 -89.667,-10.375 -110.916,-50.334l-102.459,-192.916l232.041,-132.834Z" style="fill:url(#_Linear15);"/><path d="M8521.48,8419.33c0,-0 -1075.96,186.458 -1537.5,612.833c-461.5,426.333 423.667,1786.38 423.667,1786.38c-0,0 145,-0.875 320.749,-151.542c0,0 -524.833,-1022.87 -72.499,-1321.12c508.5,-335.374 1094.5,-410.874 1094.5,-410.874l-218.5,-482.792l-10.417,-32.875Z" style="fill:url(#_Linear16);"/><path d="M7267.36,11455.5c115.208,-53.333 441.375,-281.625 496.376,-291.708c55,-10.083 150.332,54.542 150.332,54.542c0,-0 23.209,41.75 -1.582,114.5c-76.584,92.625 -246.585,269.25 -475.084,335.041c-168.125,48.417 -285.708,3.292 -358.917,-49.541c40.292,-61.334 112.126,-127.292 188.875,-162.834Z" style="fill:url(#_Linear17);"/><path d="M7437.4,11667.9c228.499,-65.791 398.5,-242.416 475.084,-335.041c-16.792,49.166 -55.459,112.5 -138.084,186.75c-204.875,184.166 -596.208,250.541 -679.541,237.75c-66.75,-10.25 -60.459,-71.875 -16.376,-139c73.209,52.833 190.792,97.958 358.917,49.541Z" style="fill:url(#_Linear18);"/><path d="M8011.77,11057.2c-1.291,31.75 -66.167,140.625 -104.084,201.708c-17.999,29.001 -49.583,46.75 -83.749,46.834c-21.667,0.083 -46.584,-1.834 -69.209,-8.292c-33.958,-9.75 -53,-45.958 -43.083,-79.833l74.083,-253.042l226.042,92.625Z" style="fill:url(#_Linear19);"/><path d="M9557.15,8096.37c0,0 238.958,638.917 0,833.209c-238.917,194.291 -808.959,413.041 -936.291,800.083c-127.334,387 -343.418,1139.12 -632.626,1405.46c0,0 -203.166,-19.666 -279.208,-100.624c-0,-0 164.708,-1122.79 273.334,-1410.92c94.041,-249.458 232.666,-609.584 498.249,-810.875c76.042,-57.625 62.792,-148.875 27.542,-237.542l-64.167,-161.416l1113.17,-317.376Z" style="fill:url(#_Linear20);"/><path d="M7065.07,7595.58c400.668,24.166 275.833,-615.917 268.584,-641.375l608.084,429.5c-0,-0 -32.167,342.291 -537.751,521.833c-127.916,45.458 -244.833,47.458 -348.167,25.25c44.084,-128.541 35.125,-243.875 9.25,-335.208Z" style="fill:url(#_Linear21);"/><path d="M6290.4,7402.91c149.291,-103.833 318.416,-0 318.416,-0c199.626,130.584 347.292,186.083 456.25,192.667c25.875,91.333 34.834,206.667 -9.25,335.208c-223.624,-48.083 -383.624,-209.917 -453.166,-293c-25,-29.875 -69.334,-35.083 -99.959,-10.917c-31.083,24.542 -61.249,58.167 -55.791,93.542c10.792,69.75 -70.167,91.958 -76.25,66.625c-6.125,-25.292 27.667,-175.292 27.667,-175.292c-0,0 -161.917,162.834 -225.125,225.376c-63.209,62.583 -142.667,-0 -142.667,-0c0,-0 110.542,-330.334 259.875,-434.209Z" style="fill:url(#_Linear22);"/><path d="M8933.23,5965.7c0,-0 -582.875,-233.375 -1667.62,662.167c-0,-0 -90.584,187.545 8.249,354.5c98.834,166.916 1040.67,980.291 1170.12,1431.38c-0,-0 561.084,182.333 1141.33,-250c-0,-0 -51.209,-1255.38 -652.084,-2198.04Z" style="fill:url(#_Linear23);"/><path d="M7780.94,5757.45l286.958,347.833c28.5,34.542 34.75,82.583 15.042,122.792c-39.792,81.25 -134.292,199.5 -343.876,183.166c-62.333,-4.874 -117.583,-42.5 -144.791,-98.791l-200.625,-414.75l387.292,-140.25Z" style="fill:url(#_Linear24);"/><path d="M9384.52,7455.49c67.625,-275.583 -617.75,-889.958 -617.75,-889.958l166.458,-599.833c0,-0 1479.96,985.25 1102.83,1777.54c-54.084,113.542 -125.875,193.125 -209.167,246.334c-119.167,-320.792 -309.083,-467.917 -442.375,-534.084Z" style="fill:url(#_Linear25);"/><path d="M9384.98,7415.37c7.292,-0 13.917,-4.959 15.709,-12.334c69.208,-281.75 -594.375,-880.5 -622.625,-905.875c-6.667,-5.916 -16.875,-5.416 -22.875,1.25c-5.959,6.667 -5.417,16.917 1.25,22.875c6.791,6.083 677.416,611 612.791,874c-2.125,8.708 3.208,17.459 11.875,19.583c1.292,0.334 2.583,0.501 3.875,0.501Z" style="fill:url(#_Linear26);"/><path d="M8346.4,7431.74c-0,0 812.625,315.5 1010.96,78.209c13.458,-16.125 22.207,-34.417 27.166,-54.459c133.292,66.167 323.208,213.292 442.375,534.084c-427.375,273.083 -1157.88,-151.917 -1355.42,-277.25c-32.5,-20.583 -71.458,-27.833 -109.166,-20c-76.167,15.791 -207.792,39 -278.751,28.083c-103.833,-16 -253,350.292 -421.291,237.292c0,-0 144.125,-636.667 684.125,-525.959Z" style="fill:url(#_Linear27);"/><path d="M7156.61,5246.5c-2.875,11.208 67.25,771.583 67.25,771.583l433.334,-49.292l40.583,-730.541c0,-0 -492.833,-178.958 -541.167,8.25Z" style="fill:url(#_Linear28);"/><path d="M7584.94,5389.62l8.751,386.25c0.083,4.959 -0.459,9.792 -1.667,14.584c-7.541,29.375 -40.875,128.542 -140.25,88.25c-90.166,-36.584 -173,-68.625 -233.916,-57.083c-27.376,5.208 -46.251,30.249 -43.709,57.958c6.375,69.083 23.667,224.5 59.292,357.25c7.208,26.917 34.041,43.583 61.5,38.75c82.749,-14.584 256.416,-50.209 389.417,-111.584c18.041,-8.333 30.124,-25.625 31.458,-45.416c6.499,-96.542 27.291,-389.959 45.75,-470.792c17.333,-75.917 116.708,-111.583 159.499,-123.625c14.042,-3.917 25.751,-13.375 32.584,-26.208c24.208,-45.5 62.458,-152.667 -71.291,-213c-28,-12.625 -39.876,-45.625 -26.376,-73.209c26.792,-54.958 45.042,-141.291 -56.999,-201.125c-103.668,-60.874 -191.5,-11.666 -240.667,30.751c-19.917,17.166 -48.75,16.958 -69.292,0.583c-11.667,-9.334 -27.583,-13.709 -48.458,-3.667c-28.167,13.542 -61.834,-1.5 -72.334,-30.875c-20.249,-56.5 -67.166,-119.75 -175.958,-113.167c-193.042,11.626 -237.542,219.251 -201.042,347.75c36.458,128.542 245.042,104.001 353.875,53.167c82.75,-38.625 178.001,21.833 218.875,53.042c12.959,9.875 20.584,25.125 20.958,41.416Z" style="fill:url(#_Linear29);"/><path d="M7763.36,5788.45c0,-0 -53.958,-226.667 31.917,-271.292c85.917,-44.666 201.375,-3.916 157.959,151.25c-54.043,192.958 -189.876,120.042 -189.876,120.042Z" style="fill:url(#_Linear30);"/><path d="M7930.11,8053.91c-1.291,0.042 -2.625,0.083 -3.916,0.083l-1704.96,-1.875c-42.166,-0.041 -76.291,-34.208 -76.25,-76.374c0.042,-42.167 34.375,-77.001 76.417,-76.251l1704.96,1.875c42.125,0.042 76.25,34.251 76.208,76.376c-0.041,40.833 -32.124,74.166 -72.458,76.166Z" style="fill:url(#_Linear31);"/><path d="M4688.52,6505.91l1419.92,0c104.751,0 200.084,60.417 244.75,155.167l656.417,1391.92l-1764.54,0c-67.501,0 -128.167,-41.25 -152.959,-104.041l-509.041,-1288c-29.417,-74.417 25.458,-155.042 105.458,-155.042Z" style="fill:url(#_Linear32);"/><path d="M5688.86,7219.58c30.792,95.583 8.042,188.417 -50.75,207.375c-58.833,18.916 -131.458,-43.25 -162.208,-138.833c-30.792,-95.584 -8.042,-188.459 50.75,-207.376c58.833,-18.916 131.458,43.25 162.208,138.834Z" style="fill:#7d97f4;fill-rule:nonzero;"/><path d="M4918.73,11710.7c-9.458,-0 -19.041,-1.834 -28.291,-5.667c-36.333,-15.125 -53.125,-55.917 -37.5,-91.125l1502.62,-3381.75c15.625,-35.166 57.75,-51.417 94.125,-36.292c36.333,15.125 53.125,55.917 37.5,91.125l-1502.62,3381.75c-11.667,26.25 -38.084,41.959 -65.834,41.959Z" style="fill:url(#_Linear33);"/><path d="M6611.48,11710.7c-27.75,-0 -54.167,-15.709 -65.833,-41.959l-1502.62,-3381.75c-15.625,-35.208 1.167,-76 37.5,-91.125c36.333,-15.125 78.5,1.084 94.125,36.292l1502.62,3381.75c15.625,35.208 -1.167,76 -37.5,91.125c-9.25,3.833 -18.834,5.667 -28.292,5.667Z" style="fill:url(#_Linear34);"/><path d="M9569.94,11710.7c-9.417,-0 -19.042,-1.834 -28.25,-5.667c-36.375,-15.125 -53.167,-55.917 -37.5,-91.125l1502.58,-3381.75c15.666,-35.166 57.75,-51.417 94.125,-36.292c36.375,15.125 53.167,55.917 37.5,91.125l-1502.58,3381.75c-11.666,26.25 -38.083,41.959 -65.874,41.959Z" style="fill:url(#_Linear35);"/><path d="M11262.7,11710.7c-27.751,-0 -54.167,-15.709 -65.833,-41.959l-1502.63,-3381.75c-15.625,-35.208 1.167,-76 37.5,-91.125c36.333,-15.125 78.5,1.084 94.125,36.292l1502.62,3381.75c15.625,35.208 -1.167,76 -37.5,91.125c-9.208,3.833 -18.834,5.667 -28.291,5.667Z" style="fill:url(#_Linear36);"/><path d="M11438.9,8127.75c3.834,-22.167 -1.374,-45.084 -14.208,-62.542c-12.875,-17.417 -31.999,-27.5 -52.166,-27.5l-6835.79,-0c-26.542,-0 -51.25,15.125 -65.542,40.167c-14.291,25.041 -16.208,56.499 -5.083,83.458l74.083,179.5c16.959,41.083 53.709,67.416 94.167,67.416l6691.29,0c37.583,0 69.916,-29.874 77.083,-71.208l36.166,-209.291Z" style="fill:#bdd0fb;fill-rule:nonzero;"/><path d="M2544.69,7822.12c-0,-0 724.666,-1271.54 499.833,-1460.92c-224.791,-189.417 -228.792,360.708 -319.75,282.792c-91,-77.917 57.375,-537.251 16.958,-856.417c-40.416,-319.167 -128.208,-746.167 -241.583,-317.083c-113.334,429.041 -99.208,852.083 -148.292,633.499c-49.112,-218.583 -218.454,-1358 -436.246,-1018c-217.791,340 -263.491,782.625 -43.958,1040.54c219.533,257.875 514.246,545.833 151.908,355.75c-362.333,-190.125 -609.3,-105.333 -221.737,239.083c0,0 582.783,482.334 329.779,459.709c-253.008,-22.583 -655.821,244.458 -240.696,437.417c0,-0 589.742,85.666 653.784,203.625Z" style="fill:#7d97f4;fill-rule:nonzero;"/><path d="M2243.63,8981.75c0,0 -1412.38,-66.999 -1349.88,-394.041c62.504,-327.042 523.475,-108.042 728.592,-87.292c205.112,20.792 84.766,-119.458 -333.038,-413.583c-417.804,-294.084 -647.496,-724.875 -205.1,-524c442.392,200.875 619.196,578.042 589.242,312c-29.958,-266.042 -598.617,-1015.04 -117.638,-708.334c480.98,306.667 448.088,590.459 462.596,814.376c14.509,223.874 78.579,-433.334 228.963,-335.417c150.362,97.917 65.012,198.5 11.175,458.75c-53.846,260.208 96.896,50.458 146.687,-34.959c49.834,-85.458 172.209,119.459 52.292,402.125c-119.875,282.667 -213.896,510.375 -213.896,510.375Z" style="fill:url(#_Linear37);"/><path d="M2524.94,10470.6c-0.959,0.792 -1.584,1.834 -1.834,2.834c-0.125,0.083 -0.167,2 -0.083,0.5l0.208,-4l0.792,-16.042l1.292,-32.833l2.208,-66.292l3.417,-133.125l4.583,-266.667c2.292,-177.833 3.083,-355.708 2.5,-533.625c-1.042,-355.75 -7.458,-711.541 -21.042,-1066.92c-7.046,-177.708 -16.041,-355.292 -27.208,-532.667c-11.792,-177.333 -26.083,-354.416 -44.167,-531.041c-18.25,-176.584 -41.25,-352.584 -71.833,-526.917c-31.292,-173.875 -69.079,-347.583 -131.546,-510.292l-0.325,-0.833c-6.142,-16 1.85,-33.959 17.846,-40.083c15.854,-6.084 33.633,1.708 39.925,17.458c67.683,169.416 108.058,345.25 142.308,521.167c33.375,176.208 59.001,353.458 79.792,530.999c20.667,177.584 37.458,355.501 51.75,533.542c13.667,178.042 25.125,356.25 34.625,534.5c18.458,356.5 29.792,713.25 35.708,1070.08c3,178.375 4.667,356.834 4.834,535.292l-1,267.792l-1.584,134.083l-1.292,67.25l-0.916,33.958l-0.625,17.334l-0.167,4.333c0,1.292 -0.375,6 -0.708,8.833c-0.709,6.584 -1.792,13.125 -3.208,19.459c-10.501,31.583 -44.625,48.625 -76.167,38.083c-31.542,-10.5 -48.625,-44.583 -38.083,-76.167Z" style="fill:#7d97f4;fill-rule:nonzero;"/><path d="M2517.11,10539.2c-0.499,1.584 -0.75,3.292 -0.666,4.917c-0.042,0.458 0.249,2.5 0.125,1.583l-0.334,-2.542l-1.458,-10.083l-3.167,-20.708l-6.666,-42.042l-13.959,-84.375l-29.208,-168.792c-19.958,-112.541 -40.75,-224.958 -62.292,-337.208c-43.041,-224.542 -89.154,-448.5 -139.187,-671.5c-50.338,-222.875 -104.475,-444.875 -167.108,-664.125c-31.392,-109.583 -65.284,-218.333 -103.321,-325.291c-38.363,-106.584 -80.375,-212.459 -135.134,-308.875l-0.441,-0.792c-8.459,-14.875 -3.238,-33.834 11.662,-42.292c14.7,-8.333 33.346,-3.333 41.967,11.125c60.633,101.709 105.466,208.917 147.004,316.792c41.046,108.083 77.667,217.458 111.721,327.416c67.921,220.001 127.096,442.125 182.462,665.084c55.042,223 106.079,446.875 154.079,671.416c24.046,112.25 47.338,224.667 69.754,337.292l33.001,169.125l15.916,84.875l7.709,42.667l3.749,21.666l1.834,11.126l0.458,2.791l0.833,6.875c0.459,5.209 0.667,10.458 0.542,15.625c-3.25,33.084 -32.708,57.292 -65.791,54.042c-33.126,-3.25 -57.334,-32.708 -54.084,-65.792Z" style="fill:url(#_Linear38);"/><path d="M2819.9,8078.83c-0,-0 1431.83,-228.167 1295.21,-531.792c-136.583,-303.625 -534.25,16.209 -728.958,83.959c-194.708,67.749 -222.708,33.958 115.583,-349c338.25,-382.959 369.792,-780.292 -14,-482.334c-383.791,297.917 -250.916,574.25 -283.458,308.5c-32.542,-265.75 480.458,-1280.38 83.667,-870.583c-396.792,409.833 -445.292,758.625 -407.5,979.792c37.791,221.166 -176.875,-403.292 -300.459,-273.209c-123.625,130.125 -17.25,208.167 95.459,448.833c112.666,240.709 -82.542,71.584 -150.834,0c-68.25,-71.541 -139.791,156.126 42.334,403.334c182.166,247.167 252.958,282.5 252.958,282.5Z" style="fill:url(#_Linear39);"/><path d="M2711.98,10508.7c-1.333,-5.625 -2.375,-11.5 -3,-17.375c-0.333,-2.459 -0.667,-6.833 -0.667,-7.792l-0.124,-3.25l-0.417,-13.125l-0.625,-25.542l-0.875,-50.416l-0.959,-100.375l-0.291,-200.375c0.458,-133.542 2,-267.042 4.542,-400.542c5.041,-266.958 14.125,-533.833 28.583,-800.583c14.833,-266.708 34.75,-533.333 66.458,-799.167c15.875,-132.917 35.334,-265.583 60.667,-397.583c26,-131.834 56.5,-263.584 107.792,-391.125c6.375,-15.875 24.458,-23.583 40.333,-17.209c15.709,6.334 23.417,24.042 17.416,39.792l-0.333,0.917c-46.042,120.833 -74,250.458 -97,380.208c-22.5,130.083 -39.375,261.542 -52.708,393.459c-26.584,263.916 -41.583,529.333 -51.5,794.875c-9.5,265.625 -13.708,531.541 -13.875,797.458c-0.125,132.958 0.791,265.917 2.791,398.833l3.917,199.25l2.75,99.417l1.75,49.458l1.042,24.417l0.625,11.833l0.167,2.958c0.041,1.126 -0.042,-1.166 -0.209,-1.583c-0.291,-1.708 -0.958,-3.417 -1.958,-4.917c10.5,31.584 -6.541,65.667 -38.125,76.167c-31.542,10.542 -65.625,-6.5 -76.167,-38.083Z" style="fill:url(#_Linear40);"/><path d="M2026.55,10232.7l1185.6,0c77.708,0 135.167,72.292 117.708,148c-75.833,328.667 -166.75,662.083 -352.792,1000.54c-34.333,62.541 -99.749,101.708 -171.083,101.708l-386.875,0c-70.25,0 -134.729,-38.583 -168.02,-100.458c-149.026,-276.917 -292.401,-607.042 -363.188,-981.709c-16.475,-87.166 49.904,-168.083 138.646,-168.083Z" style="fill:url(#_Linear41);"/><path d="M507.949,1212.63c-0,0 -460.383,255.034 -498.471,686.662c-38.087,431.625 -3.171,2223.12 920.008,2664.08c923.175,440.916 2145.16,339.291 2612.91,291.124c467.75,-48.208 727.083,-366.124 785,-584.999c57.959,-218.875 151.542,-1034.21 -340.542,-1297.21c-492.042,-262.999 -1008.88,-665.904 -1525.29,-1058.25c-516.403,-392.341 -1401.42,-1032.79 -1953.62,-701.412Z" style="fill:url(#_Linear42);"/><path d="M3841.77,3121.12c-0,0 -124.25,6.542 -139.5,262.209c-0,0 288.125,258.25 677.333,319.75c29.208,4.625 -40.875,-199.459 -51.375,-227.083c-50.125,-131.542 -207.958,-216.251 -486.458,-354.876Z" style="fill:url(#_Linear43);"/><path d="M2442.4,2820.54l262.208,0c0,0 804.792,-888.825 1332.62,-978.496c0,0 367.417,469.017 -19.583,1345.37c-31.125,70.499 -118.209,101.791 -183.125,60.333c-19.459,-12.417 -33.375,-29.042 -41.875,-49.917l31.125,-748.25c0,-0 -686.5,600.417 -805.792,716.291c-119.333,115.875 -725.862,45.251 -575.583,-345.333Z" style="fill:url(#_Linear44);"/><path d="M4977.4,4686.62c-109.875,-96.291 -284.958,-204.332 -537.709,-235.291l-85.458,52.291c0,0 54.5,80.376 154.083,165.292c91.501,53.166 232.792,125.167 349.959,140.75c113.875,15.167 130.708,-53.625 119.125,-123.042Z" style="fill:url(#_Linear45);"/><path d="M4328.23,3476c-67.708,21.875 -97.5,117.791 -269.25,54.374c-166.167,-61.375 -289.708,-140.5 -353.292,-186.125c-1.416,12.375 -2.583,25.292 -3.416,39.084c-0,0 303.792,288.958 693,350.416c29.208,4.626 52.375,-24.541 41.833,-52.208c-18.917,-49.583 -52.958,-124.792 -108.875,-205.541Z" style="fill:#7d97f4;fill-rule:nonzero;"/><path d="M5060.15,4768.87c-21.625,-24.625 -49.292,-52.916 -82.75,-82.25c11.583,69.417 -5.25,138.209 -119.125,123.042c-117.167,-15.583 -258.458,-87.584 -349.959,-140.75c114.667,97.833 289.209,201.667 509.459,195.584c48.916,-1.375 74.708,-58.917 42.375,-95.626Z" style="fill:#91b3fa;fill-rule:nonzero;"/><path d="M2451.98,3010.25l1227.92,13.291c-0,0 701.208,580.167 828.416,1464.79c0,0 21.084,65.083 -105.666,76.209c-0,-0 -423.959,-276.876 -700.375,-766.418c-338.958,-600.291 -1010.46,-330.083 -1010.46,-330.083c-220.667,-159.041 -532.417,-191.458 -767.3,-244.458l527.466,-213.333Z" style="fill:url(#_Linear46);"/><path d="M2480.98,2021.11c0,-0 132.167,662.47 779.875,924.513l230.375,-27.125l54.375,86.667l-540.417,17.207c0,0 -461.958,-182.958 -706.695,-681.496c-8.088,-16.47 -142.859,-294.75 182.487,-319.766Z" style="fill:url(#_Linear47);"/><path d="M2551.82,2999.41c-0,0 -150.334,-408.584 -182.625,-805.629c-0,-0 109.954,-94.508 178.708,-135.284c22.25,-13.204 30.667,-41.132 19.417,-64.441c-50.542,-104.687 -356.15,-515.746 -379.042,-521.463c-124.429,-31.053 -634.738,-273.692 -994.142,217.925c-154.246,210.983 30.609,860.476 730.384,1533.06l144.366,27.624l482.934,-251.791Z" style="fill:url(#_Linear48);"/><path d="M1972.6,2283.32c0,0 417.629,494.513 951.588,566.804c-0,0 137.958,-125.833 240.583,-80.916c102.625,44.916 243.292,243.167 243.292,243.167l-685.584,-0c0,-0 -648.225,-22.833 -972.15,-415.917c26.067,-137.542 104.125,-219.708 222.271,-313.138Z" style="fill:url(#_Linear49);"/><path d="M1728.97,1125.76l-91.38,304.771c-4.187,13.959 0.988,29.083 13.013,37.321c43.996,30.129 158.979,90.054 316.717,31.816c18.041,-6.658 30.4,-23.508 31.962,-42.67l21.667,-265.5l-291.979,-65.738Z" style="fill:url(#_Linear50);"/><path d="M2264.04,878.941c0,-0 -44.925,315.929 -166.283,413.084c-121.362,97.153 -357.808,24 -437.671,-214.168l159.125,-407.228l444.829,208.312Z" style="fill:url(#_Linear51);"/><path d="M1801.28,934.149c9.229,2.976 18.896,-2.941 20.338,-12.532c4.379,-29.163 15.312,-86.88 37.454,-126.193c-0,0 -11.579,-41.446 104.75,21.167c116.337,62.617 291.067,154.596 393.95,99.825c100.292,-53.399 201.875,-322.149 -63.192,-272.358c-10.083,1.891 -19.358,-6.142 -18.6,-16.376c3.254,-44.17 -1.129,-145.791 -104.033,-178.403c-96.296,-30.521 -44.596,18.95 -66.317,45.187c-6.391,7.721 8.067,-26.283 -128.771,-6.391c-46.945,6.82 -107.187,-117.822 -222.512,-66.997c-94.992,41.863 -109.767,100.376 -108.196,136.834c0.504,11.813 -11.479,19.816 -22.221,14.871c-29.091,-13.4 -75.887,-20.359 -120.712,35.804c-61.971,77.646 26.587,144.979 53.154,162.629c4.35,2.892 7.058,7.688 7.092,12.913c0.25,40.379 6.537,216.516 94.816,315.871c7.642,8.604 21.771,6.079 26.221,-4.53l67.975,-161.949c3.154,-7.521 11.542,-11.379 19.308,-8.876l29.496,9.504Z" style="fill:url(#_Linear52);"/><path d="M1802.72,967.029c-0,-0 -41.505,-169.058 -104.559,-114.166c-63.05,54.886 16.438,175.695 88.667,198.72l15.892,-84.554Z" style="fill:url(#_Linear53);"/><path d="M3373.57,3050.75l307.833,-1026.56c12.542,-41.879 49.75,-71.591 93.375,-74.575l415.625,-28.437c42.208,-2.888 73.666,38.379 59.625,78.329l-344.125,980.363c-11.084,31.583 -39.458,53.916 -72.75,57.25l-409.25,45.458l-50.333,-31.833Z" style="fill:#7d97f4;fill-rule:nonzero;"/><path d="M3941.27,2372.12c-22.959,46.376 -62.667,73.584 -88.625,60.709c-26,-12.876 -28.417,-60.917 -5.417,-107.308c22.959,-46.392 62.667,-73.563 88.625,-60.697c25.959,12.868 28.417,60.904 5.417,107.296Z" style="fill:#91b3fa;fill-rule:nonzero;"/><path d="M3423.9,3082.58c-0.667,-0 -1.333,-0 -2,-0.042l-872.042,-44.083c-21.583,-1.083 -38.166,-19.459 -37.083,-41c1.083,-21.583 19.541,-38.5 41,-37.083l872.042,44.083c21.583,1.083 38.166,19.459 37.083,41c-1.042,20.917 -18.333,37.125 -39,37.125Z" style="fill:#7d97f4;fill-rule:nonzero;"/><path d="M2369.19,2200.7c-3.792,-0 -6.917,-3.109 -6.917,-6.942c0.625,-182.176 -69.704,-424.038 -70.429,-426.463c-1.071,-3.658 1.021,-7.504 4.691,-8.587c3.726,-1.046 7.53,1.017 8.6,4.699c0.721,2.443 71.596,246.193 70.971,430.405c0,3.805 -3.083,6.888 -6.916,6.888Z" style="fill:url(#_Linear54);"/><path d="M1972.61,2290.23c-2.033,0 -4.07,-0.895 -5.437,-2.624c-1.9,-2.425 -192.654,-244.879 -258.217,-411.042c-1.421,-3.567 0.346,-7.587 3.884,-8.979c3.562,-1.409 7.583,0.321 8.975,3.883c64.845,164.279 254.308,405.15 256.237,407.562c2.358,3.001 1.85,7.355 -1.15,9.713c-1.258,1.004 -2.787,1.487 -4.292,1.487Z" style="fill:url(#_Linear55);"/><path d="M1704.21,2660.95l-5.142,-2.209c-275.934,-118.166 -446.375,-447.587 -448.063,-450.896c-1.741,-3.416 -0.375,-7.582 3.03,-9.312c3.32,-1.717 7.5,-0.417 9.295,3.016c1.663,3.255 167.763,324.234 436.059,442.234l28.425,-40.167c2.254,-3.166 6.566,-3.833 9.65,-1.666c3.133,2.209 3.858,6.541 1.658,9.666l-34.912,49.334Z" style="fill:url(#_Linear56);"/><defs><linearGradient id="_Linear1" x1="0" y1="0" x2="1" y2="0" gradientUnits="userSpaceOnUse" gradientTransform="matrix(-8341.5,-9003.54,9003.54,-8341.5,12439.5,12827.1)"><stop offset="0" style="stop-color:#dae2fd;stop-opacity:1"/><stop offset="1" style="stop-color:#e8effd;stop-opacity:1"/></linearGradient><linearGradient id="_Linear2" x1="0" y1="0" x2="1" y2="0" gradientUnits="userSpaceOnUse" gradientTransform="matrix(-8341.5,-9003.54,9003.54,-8341.5,12439.5,12827.1)"><stop offset="0" style="stop-color:#c3d4fd;stop-opacity:1"/><stop offset="1" style="stop-color:#cdddfb;stop-opacity:1"/></linearGradient><linearGradient id="_Linear3" x1="0" y1="0" x2="1" y2="0" gradientUnits="userSpaceOnUse" gradientTransform="matrix(-8341.5,-9003.54,9003.54,-8341.5,12439.5,12827.1)"><stop offset="0" style="stop-color:#c3d4fd;stop-opacity:1"/><stop offset="1" style="stop-color:#cdddfb;stop-opacity:1"/></linearGradient><linearGradient id="_Linear4" x1="0" y1="0" x2="1" y2="0" gradientUnits="userSpaceOnUse" gradientTransform="matrix(-8341.5,-9003.54,9003.54,-8341.5,12439.5,12827.1)"><stop offset="0" style="stop-color:#c3d4fd;stop-opacity:1"/><stop offset="1" style="stop-color:#cdddfb;stop-opacity:1"/></linearGradient><linearGradient id="_Linear5" x1="0" y1="0" x2="1" y2="0" gradientUnits="userSpaceOnUse" gradientTransform="matrix(-8341.5,-9003.54,9003.54,-8341.5,12439.5,12827.1)"><stop offset="0" style="stop-color:#c3d4fd;stop-opacity:1"/><stop offset="1" style="stop-color:#cdddfb;stop-opacity:1"/></linearGradient><linearGradient id="_Linear6" x1="0" y1="0" x2="1" y2="0" gradientUnits="userSpaceOnUse" gradientTransform="matrix(-8341.5,-9003.54,9003.54,-8341.5,12439.5,12827.1)"><stop offset="0" style="stop-color:#c3d4fd;stop-opacity:1"/><stop offset="1" style="stop-color:#cdddfb;stop-opacity:1"/></linearGradient><linearGradient id="_Linear7" x1="0" y1="0" x2="1" y2="0" gradientUnits="userSpaceOnUse" gradientTransform="matrix(-8341.5,-9003.54,9003.54,-8341.5,12439.5,12827.1)"><stop offset="0" style="stop-color:#c3d4fd;stop-opacity:1"/><stop offset="1" style="stop-color:#cdddfb;stop-opacity:1"/></linearGradient><linearGradient id="_Linear8" x1="0" y1="0" x2="1" y2="0" gradientUnits="userSpaceOnUse" gradientTransform="matrix(-8341.5,-9003.54,9003.54,-8341.5,12439.5,12827.1)"><stop offset="0" style="stop-color:#c3d4fd;stop-opacity:1"/><stop offset="1" style="stop-color:#cdddfb;stop-opacity:1"/></linearGradient><linearGradient id="_Linear9" x1="0" y1="0" x2="1" y2="0" gradientUnits="userSpaceOnUse" gradientTransform="matrix(-1153.34,2082,-2082,-1153.34,9263.9,7899.41)"><stop offset="0" style="stop-color:#ff918e;stop-opacity:1"/><stop offset="1" style="stop-color:#fd7062;stop-opacity:1"/></linearGradient><linearGradient id="_Linear10" x1="0" y1="0" x2="1" y2="0" gradientUnits="userSpaceOnUse" gradientTransform="matrix(3587.75,2465.2,-2465.2,3587.75,5965.32,4368.87)"><stop offset="0" style="stop-color:#e1463d;stop-opacity:1"/><stop offset="1" style="stop-color:#e86059;stop-opacity:1"/></linearGradient><linearGradient id="_Linear11" x1="0" y1="0" x2="1" y2="0" gradientUnits="userSpaceOnUse" gradientTransform="matrix(701.967,-4254.33,4254.33,701.967,8977.65,9063.83)"><stop offset="0" style="stop-color:#ff918e;stop-opacity:1"/><stop offset="1" style="stop-color:#fd7062;stop-opacity:1"/></linearGradient><linearGradient id="_Linear12" x1="0" y1="0" x2="1" y2="0" gradientUnits="userSpaceOnUse" gradientTransform="matrix(396.492,-2494.05,2494.05,396.492,8438.65,11146)"><stop offset="0" style="stop-color:#ff918e;stop-opacity:1"/><stop offset="1" style="stop-color:#fd7062;stop-opacity:1"/></linearGradient><linearGradient id="_Linear13" x1="0" y1="0" x2="1" y2="0" gradientUnits="userSpaceOnUse" gradientTransform="matrix(413.791,-2602.87,2602.87,413.791,8591.57,11160.1)"><stop offset="0" style="stop-color:#ff918e;stop-opacity:1"/><stop offset="1" style="stop-color:#fd7062;stop-opacity:1"/></linearGradient><linearGradient id="_Linear14" x1="0" y1="0" x2="1" y2="0" gradientUnits="userSpaceOnUse" gradientTransform="matrix(323.833,-636.871,-636.871,-323.833,7162.73,10584)"><stop offset="0" style="stop-color:#08005d;stop-opacity:1"/><stop offset="1" style="stop-color:#1a0e90;stop-opacity:1"/></linearGradient><linearGradient id="_Linear15" x1="0" y1="0" x2="1" y2="0" gradientUnits="userSpaceOnUse" gradientTransform="matrix(-322.597,0,0,322.597,7778.52,10837.4)"><stop offset="0" style="stop-color:#fdbaba;stop-opacity:1"/><stop offset="1" style="stop-color:#ff918e;stop-opacity:1"/></linearGradient><linearGradient id="_Linear16" x1="0" y1="0" x2="1" y2="0" gradientUnits="userSpaceOnUse" gradientTransform="matrix(-1370.89,1921.4,1921.4,1370.89,8224.94,9983.87)"><stop offset="0" style="stop-color:#08005d;stop-opacity:1"/><stop offset="1" style="stop-color:#1a0e90;stop-opacity:1"/></linearGradient><linearGradient id="_Linear17" x1="0" y1="0" x2="1" y2="0" gradientUnits="userSpaceOnUse" gradientTransform="matrix(1122.62,-1468.04,-1468.04,-1122.62,7350.65,11227.9)"><stop offset="0" style="stop-color:#08005d;stop-opacity:1"/><stop offset="1" style="stop-color:#1a0e90;stop-opacity:1"/></linearGradient><linearGradient id="_Linear18" x1="0" y1="0" x2="1" y2="0" gradientUnits="userSpaceOnUse" gradientTransform="matrix(-867.45,0,0,867.45,7912.48,11545.8)"><stop offset="0" style="stop-color:#3f42e2;stop-opacity:1"/><stop offset="1" style="stop-color:#4f52ff;stop-opacity:1"/></linearGradient><linearGradient id="_Linear19" x1="0" y1="0" x2="1" y2="0" gradientUnits="userSpaceOnUse" gradientTransform="matrix(-302.765,0,0,302.765,8011.77,11135.1)"><stop offset="0" style="stop-color:#fdbaba;stop-opacity:1"/><stop offset="1" style="stop-color:#ff918e;stop-opacity:1"/></linearGradient><linearGradient id="_Linear20" x1="0" y1="0" x2="1" y2="0" gradientUnits="userSpaceOnUse" gradientTransform="matrix(-75.5617,2569.08,2569.08,75.5617,8719.07,10941.3)"><stop offset="0" style="stop-color:#08005d;stop-opacity:1"/><stop offset="1" style="stop-color:#1a0e90;stop-opacity:1"/></linearGradient><linearGradient id="_Linear21" x1="0" y1="0" x2="1" y2="0" gradientUnits="userSpaceOnUse" gradientTransform="matrix(-1541.09,2070.54,-2070.54,-1541.09,6843.86,8279.91)"><stop offset="0" style="stop-color:#3f42e2;stop-opacity:1"/><stop offset="1" style="stop-color:#4f52ff;stop-opacity:1"/></linearGradient><linearGradient id="_Linear22" x1="0" y1="0" x2="1" y2="0" gradientUnits="userSpaceOnUse" gradientTransform="matrix(-1056.15,0,0,1056.15,7086.65,7643.79)"><stop offset="0" style="stop-color:#fdbaba;stop-opacity:1"/><stop offset="1" style="stop-color:#ff918e;stop-opacity:1"/></linearGradient><linearGradient id="_Linear23" x1="0" y1="0" x2="1" y2="0" gradientUnits="userSpaceOnUse" gradientTransform="matrix(2374.77,-1727.11,-1727.11,-2374.77,7573.77,6378.95)"><stop offset="0" style="stop-color:#3f42e2;stop-opacity:1"/><stop offset="1" style="stop-color:#4f52ff;stop-opacity:1"/></linearGradient><linearGradient id="_Linear24" x1="0" y1="0" x2="1" y2="0" gradientUnits="userSpaceOnUse" gradientTransform="matrix(-700.742,0,0,700.742,8094.4,6085.08)"><stop offset="0" style="stop-color:#fdbaba;stop-opacity:1"/><stop offset="1" style="stop-color:#ff918e;stop-opacity:1"/></linearGradient><linearGradient id="_Linear25" x1="0" y1="0" x2="1" y2="0" gradientUnits="userSpaceOnUse" gradientTransform="matrix(2374.78,-1727.11,-1727.11,-2374.78,7914.36,5910.66)"><stop offset="0" style="stop-color:#3f42e2;stop-opacity:1"/><stop offset="1" style="stop-color:#4f52ff;stop-opacity:1"/></linearGradient><linearGradient id="_Linear26" x1="0" y1="0" x2="1" y2="0" gradientUnits="userSpaceOnUse" gradientTransform="matrix(-567.271,1456,-1456,-567.271,10057.2,4436)"><stop offset="0" style="stop-color:#08005d;stop-opacity:1"/><stop offset="1" style="stop-color:#1a0e90;stop-opacity:1"/></linearGradient><linearGradient id="_Linear27" x1="0" y1="0" x2="1" y2="0" gradientUnits="userSpaceOnUse" gradientTransform="matrix(2682.8,-4661.92,-4661.92,-2682.8,8572.23,7656.5)"><stop offset="0" style="stop-color:#fdbaba;stop-opacity:1"/><stop offset="1" style="stop-color:#ff918e;stop-opacity:1"/></linearGradient><linearGradient id="_Linear28" x1="0" y1="0" x2="1" y2="0" gradientUnits="userSpaceOnUse" gradientTransform="matrix(558.633,-1341.06,-1341.06,-558.633,7321.77,5294.37)"><stop offset="0" style="stop-color:#fdbaba;stop-opacity:1"/><stop offset="1" style="stop-color:#ff918e;stop-opacity:1"/></linearGradient><linearGradient id="_Linear29" x1="0" y1="0" x2="1" y2="0" gradientUnits="userSpaceOnUse" gradientTransform="matrix(-1013.23,261.494,261.494,1013.23,7899.77,5732.25)"><stop offset="0" style="stop-color:#08005d;stop-opacity:1"/><stop offset="1" style="stop-color:#1a0e90;stop-opacity:1"/></linearGradient><linearGradient id="_Linear30" x1="0" y1="0" x2="1" y2="0" gradientUnits="userSpaceOnUse" gradientTransform="matrix(-500.2,873.6,873.6,500.2,8334.77,6503.66)"><stop offset="0" style="stop-color:#fdbaba;stop-opacity:1"/><stop offset="1" style="stop-color:#ff918e;stop-opacity:1"/></linearGradient><linearGradient id="_Linear31" x1="0" y1="0" x2="1" y2="0" gradientUnits="userSpaceOnUse" gradientTransform="matrix(-1353.45,443.904,-443.904,-1353.45,8219.36,7600.91)"><stop offset="0" style="stop-color:#08005d;stop-opacity:1"/><stop offset="1" style="stop-color:#1a0e90;stop-opacity:1"/></linearGradient><linearGradient id="_Linear32" x1="0" y1="0" x2="1" y2="0" gradientUnits="userSpaceOnUse" gradientTransform="matrix(-974.7,1030.2,-1030.2,-974.7,6360.15,6713.5)"><stop offset="0" style="stop-color:#08005d;stop-opacity:1"/><stop offset="1" style="stop-color:#1a0e90;stop-opacity:1"/></linearGradient><linearGradient id="_Linear33" x1="0" y1="0" x2="1" y2="0" gradientUnits="userSpaceOnUse" gradientTransform="matrix(1645.94,0,0,1645.94,4847.11,9950.45)"><stop offset="0" style="stop-color:#3f42e2;stop-opacity:1"/><stop offset="1" style="stop-color:#4f52ff;stop-opacity:1"/></linearGradient><linearGradient id="_Linear34" x1="0" y1="0" x2="1" y2="0" gradientUnits="userSpaceOnUse" gradientTransform="matrix(1645.94,0,0,1645.94,5037.19,9950.45)"><stop offset="0" style="stop-color:#3f42e2;stop-opacity:1"/><stop offset="1" style="stop-color:#4f52ff;stop-opacity:1"/></linearGradient><linearGradient id="_Linear35" x1="0" y1="0" x2="1" y2="0" gradientUnits="userSpaceOnUse" gradientTransform="matrix(1645.94,0,0,1645.94,9498.32,9950.45)"><stop offset="0" style="stop-color:#3f42e2;stop-opacity:1"/><stop offset="1" style="stop-color:#4f52ff;stop-opacity:1"/></linearGradient><linearGradient id="_Linear36" x1="0" y1="0" x2="1" y2="0" gradientUnits="userSpaceOnUse" gradientTransform="matrix(1645.94,0,0,1645.94,9688.4,9950.45)"><stop offset="0" style="stop-color:#3f42e2;stop-opacity:1"/><stop offset="1" style="stop-color:#4f52ff;stop-opacity:1"/></linearGradient><linearGradient id="_Linear37" x1="0" y1="0" x2="1" y2="0" gradientUnits="userSpaceOnUse" gradientTransform="matrix(1664.1,0,0,1664.1,844.466,8037.87)"><stop offset="0" style="stop-color:#3f42e2;stop-opacity:1"/><stop offset="1" style="stop-color:#4f52ff;stop-opacity:1"/></linearGradient><linearGradient id="_Linear38" x1="0" y1="0" x2="1" y2="0" gradientUnits="userSpaceOnUse" gradientTransform="matrix(786.775,0,0,786.775,1850.24,9234.12)"><stop offset="0" style="stop-color:#3f42e2;stop-opacity:1"/><stop offset="1" style="stop-color:#4f52ff;stop-opacity:1"/></linearGradient><linearGradient id="_Linear39" x1="0" y1="0" x2="1" y2="0" gradientUnits="userSpaceOnUse" gradientTransform="matrix(1672.73,0,0,1672.73,2451.57,7110.08)"><stop offset="0" style="stop-color:#3f42e2;stop-opacity:1"/><stop offset="1" style="stop-color:#4f52ff;stop-opacity:1"/></linearGradient><linearGradient id="_Linear40" x1="0" y1="0" x2="1" y2="0" gradientUnits="userSpaceOnUse" gradientTransform="matrix(327.818,0,0,327.818,2705.02,8915.95)"><stop offset="0" style="stop-color:#3f42e2;stop-opacity:1"/><stop offset="1" style="stop-color:#4f52ff;stop-opacity:1"/></linearGradient><linearGradient id="_Linear41" x1="0" y1="0" x2="1" y2="0" gradientUnits="userSpaceOnUse" gradientTransform="matrix(-2396.55,5362.25,-5362.25,-2396.55,3644.61,8159.25)"><stop offset="0" style="stop-color:#3f42e2;stop-opacity:1"/><stop offset="1" style="stop-color:#4f52ff;stop-opacity:1"/></linearGradient><linearGradient id="_Linear42" x1="0" y1="0" x2="1" y2="0" gradientUnits="userSpaceOnUse" gradientTransform="matrix(-1796.39,3364.13,-3364.13,-1796.39,2884.94,1700.63)"><stop offset="0" style="stop-color:#3f42e2;stop-opacity:1"/><stop offset="1" style="stop-color:#4f52ff;stop-opacity:1"/></linearGradient><linearGradient id="_Linear43" x1="0" y1="0" x2="1" y2="0" gradientUnits="userSpaceOnUse" gradientTransform="matrix(450.45,470.471,-470.471,450.45,3967.32,3364.08)"><stop offset="0" style="stop-color:#08005d;stop-opacity:1"/><stop offset="1" style="stop-color:#1a0e90;stop-opacity:1"/></linearGradient><linearGradient id="_Linear44" x1="0" y1="0" x2="1" y2="0" gradientUnits="userSpaceOnUse" gradientTransform="matrix(-574.333,1510.28,-1510.28,-574.333,4740.65,-963.584)"><stop offset="0" style="stop-color:#08005d;stop-opacity:1"/><stop offset="1" style="stop-color:#1a0e90;stop-opacity:1"/></linearGradient><linearGradient id="_Linear45" x1="0" y1="0" x2="1" y2="0" gradientUnits="userSpaceOnUse" gradientTransform="matrix(852.046,625.354,-625.354,852.046,4564.86,4544.95)"><stop offset="0" style="stop-color:#08005d;stop-opacity:1"/><stop offset="1" style="stop-color:#1a0e90;stop-opacity:1"/></linearGradient><linearGradient id="_Linear46" x1="0" y1="0" x2="1" y2="0" gradientUnits="userSpaceOnUse" gradientTransform="matrix(-574.333,1510.29,-1510.29,-574.333,5013.9,-859.688)"><stop offset="0" style="stop-color:#08005d;stop-opacity:1"/><stop offset="1" style="stop-color:#1a0e90;stop-opacity:1"/></linearGradient><linearGradient id="_Linear47" x1="0" y1="0" x2="1" y2="0" gradientUnits="userSpaceOnUse" gradientTransform="matrix(-578.454,687.892,-687.892,-578.454,3188.27,2233.79)"><stop offset="0" style="stop-color:#fdbaba;stop-opacity:1"/><stop offset="1" style="stop-color:#ff918e;stop-opacity:1"/></linearGradient><linearGradient id="_Linear48" x1="0" y1="0" x2="1" y2="0" gradientUnits="userSpaceOnUse" gradientTransform="matrix(926.796,3251.52,-3251.52,926.796,1003.24,-999.559)"><stop offset="0" style="stop-color:#ff918e;stop-opacity:1"/><stop offset="1" style="stop-color:#fd7062;stop-opacity:1"/></linearGradient><linearGradient id="_Linear49" x1="0" y1="0" x2="1" y2="0" gradientUnits="userSpaceOnUse" gradientTransform="matrix(1156.23,-1581.79,1581.79,1156.23,2513.77,2859.7)"><stop offset="0" style="stop-color:#fdbaba;stop-opacity:1"/><stop offset="1" style="stop-color:#ff918e;stop-opacity:1"/></linearGradient><linearGradient id="_Linear50" x1="0" y1="0" x2="1" y2="0" gradientUnits="userSpaceOnUse" gradientTransform="matrix(42.5896,-383.304,383.304,42.5896,1806.49,1548.86)"><stop offset="0" style="stop-color:#fdbaba;stop-opacity:1"/><stop offset="1" style="stop-color:#ff918e;stop-opacity:1"/></linearGradient><linearGradient id="_Linear51" x1="0" y1="0" x2="1" y2="0" gradientUnits="userSpaceOnUse" gradientTransform="matrix(-187.719,-619.142,619.142,-187.719,2033.64,1214.5)"><stop offset="0" style="stop-color:#fdbaba;stop-opacity:1"/><stop offset="1" style="stop-color:#ff918e;stop-opacity:1"/></linearGradient><linearGradient id="_Linear52" x1="0" y1="0" x2="1" y2="0" gradientUnits="userSpaceOnUse" gradientTransform="matrix(174.138,993.233,-993.233,174.138,1864.63,79.8121)"><stop offset="0" style="stop-color:#08005d;stop-opacity:1"/><stop offset="1" style="stop-color:#1a0e90;stop-opacity:1"/></linearGradient><linearGradient id="_Linear53" x1="0" y1="0" x2="1" y2="0" gradientUnits="userSpaceOnUse" gradientTransform="matrix(-187.72,-619.146,619.146,-187.72,1839.21,1273.46)"><stop offset="0" style="stop-color:#fdbaba;stop-opacity:1"/><stop offset="1" style="stop-color:#ff918e;stop-opacity:1"/></linearGradient><linearGradient id="_Linear54" x1="0" y1="0" x2="1" y2="0" gradientUnits="userSpaceOnUse" gradientTransform="matrix(84.5538,0,0,84.5538,2291.57,1979.56)"><stop offset="0" style="stop-color:#e1463d;stop-opacity:1"/><stop offset="1" style="stop-color:#e86059;stop-opacity:1"/></linearGradient><linearGradient id="_Linear55" x1="0" y1="0" x2="1" y2="0" gradientUnits="userSpaceOnUse" gradientTransform="matrix(271.072,0,0,271.072,1708.46,2078.66)"><stop offset="0" style="stop-color:#e1463d;stop-opacity:1"/><stop offset="1" style="stop-color:#e86059;stop-opacity:1"/></linearGradient><linearGradient id="_Linear56" x1="0" y1="0" x2="1" y2="0" gradientUnits="userSpaceOnUse" gradientTransform="matrix(490.146,0,0,490.146,1250.25,2429.37)"><stop offset="0" style="stop-color:#e1463d;stop-opacity:1"/><stop offset="1" style="stop-color:#e86059;stop-opacity:1"/></linearGradient></defs></svg>