<?xml version="1.0" encoding="UTF-8" standalone="no"?><!DOCTYPE svg PUBLIC "-//W3C//DTD SVG 1.1//EN" "http://www.w3.org/Graphics/SVG/1.1/DTD/svg11.dtd"><svg width="100%" height="100%" viewBox="0 0 2168 1709" version="1.1" xmlns="http://www.w3.org/2000/svg" xmlns:xlink="http://www.w3.org/1999/xlink" xml:space="preserve" xmlns:serif="http://www.serif.com/" style="fill-rule:evenodd;clip-rule:evenodd;stroke-linejoin:round;stroke-miterlimit:2;"><path d="M1639.83,1332.17l-1126.78,-0l-0,-795.155c-0,-21.795 17.675,-39.47 39.475,-39.47l1047.83,-0c21.804,-0 39.475,17.675 39.475,39.47l0,205.455l-41.825,-0l0,-204.042l-1045.12,-0l-0,642.033l1045.12,0l0,-66.929l41.825,0l0,218.638Z" style="fill:url(#_Linear1);"/><path d="M1598,1180.46l-1045.12,0l-0,-642.033l1045.12,-0l0,204.042l-333.2,-0c-9.237,-0 -16.725,7.487 -16.725,16.725l-0,337.608c-0,9.238 7.488,16.729 16.725,16.729l333.2,0l0,66.929Z" style="fill:url(#_Linear2);"/><path d="M182.146,537.417l256.258,-0c-4.996,-25.021 -27.466,-43.609 -53.2,-43.609c-5.846,0 -11.596,0.925 -17.091,2.754l-1.405,0.463l-0.846,-1.208c-14.216,-20.175 -37.399,-32.217 -62.029,-32.217c-28.841,0 -54.808,16.017 -67.758,41.804l-0.713,1.413l-1.537,-0.375c-3.313,-0.821 -6.733,-1.234 -10.171,-1.234c-19.642,0 -36.721,13.405 -41.508,32.209Zm260.946,3.975l-265.842,-0l0.463,-2.367c4.266,-21.896 23.591,-37.792 45.941,-37.792c3.229,0 6.442,0.334 9.583,0.996c13.851,-26.321 40.759,-42.604 70.596,-42.604c25.43,-0 49.4,12.2 64.425,32.717c5.475,-1.667 11.171,-2.509 16.946,-2.509c28.925,0 53.125,20.721 57.533,49.267l0.355,2.292Z" style="fill:#6aafe8;fill-rule:nonzero;"/><path d="M1340.73,73.592c-1.196,12.633 -5.167,92.708 78.687,136.108c83.863,-43.4 79.888,-123.475 78.692,-136.108c-52.079,-0.325 -73.275,-14.834 -78.692,-19.434c-5.412,4.6 -26.612,19.109 -78.687,19.434Zm78.687,140.57l-0.9,-0.462c-94.341,-48.162 -81.67,-141.446 -81.533,-142.383l0.25,-1.696l1.713,-0c59.983,-0 78.833,-19.329 79.016,-19.525l1.463,-1.55l1.454,1.558c0.179,0.188 19.029,19.517 79.008,19.517l1.713,-0l0.254,1.696c0.138,0.937 12.808,94.221 -81.538,142.383l-0.9,0.462Z" style="fill:#6aafe8;fill-rule:nonzero;"/><rect x="518.138" y="1067.05" width="105.3" height="11.925" style="fill:#1487e3;fill-rule:nonzero;"/><path d="M496.158,738.092l-168.062,-0l-0,-214.925l3.971,-0l-0,210.954l164.091,-0l0,3.971Z" style="fill:#78c2ff;fill-rule:nonzero;"/><path d="M1207.52,596.475l-3.971,-0l0,-221.621l213.875,0l-0,-186.383l3.975,-0l0,190.354l-213.879,-0l-0,217.65Z" style="fill:#78c2ff;fill-rule:nonzero;"/><path d="M1898.45,843.35l-222.525,0l-0,-3.975l218.554,-0l0,-129.213l3.971,0l-0,133.188Z" style="fill:#78c2ff;fill-rule:nonzero;"/><path d="M234.763,1022.93c-0,-0 -4.763,66.858 8.295,74.858c8.184,5.017 40.813,21.921 39.842,25.096c-0.962,3.171 -18.421,28.204 -18.421,28.204c0,0 -62.675,-41.271 -64.696,-54.275c-1.975,-12.708 3.084,-97.896 11.7,-101.821c6.455,-2.941 9.859,-0.508 17.996,5.53c11.409,8.47 5.284,22.408 5.284,22.408Z" style="fill:#557cff;fill-rule:nonzero;"/><path d="M227.475,1509.48c0,0 -1.95,13.53 -2.187,15.559c-0.246,2.033 -21.684,-1.196 -21.684,-1.196l-1.737,-16.104c-0,-0 22.933,-0.167 25.608,1.741Z" style="fill:#424773;fill-rule:nonzero;"/><path d="M225.517,1523.32c-0,-0 6.783,8.154 13.358,11.708c6.571,3.55 16.888,4.959 20.779,8.642c2.8,2.654 10.213,14.079 -17.075,13.85c-27.287,-0.229 -40.437,1.617 -43.358,-2.767c-2.925,-4.379 4.229,-32.346 4.229,-32.346c0,0 6.458,2.321 22.067,0.913Z" style="fill:#292c47;fill-rule:nonzero;"/><path d="M334.767,1509.48c-0,0 -1.954,13.53 -2.196,15.559c-0.246,2.033 -21.679,-1.196 -21.679,-1.196l-1.734,-16.104c0,-0 22.934,-0.167 25.609,1.741Z" style="fill:#424773;fill-rule:nonzero;"/><path d="M332.804,1523.32c0,-0 6.788,8.154 13.359,11.708c6.57,3.55 30.745,6.471 34.629,10.15c2.804,2.654 7.466,13.346 -30.921,12.342c-27.279,-0.713 -40.438,1.617 -43.367,-2.767c-2.921,-4.379 4.234,-32.346 4.234,-32.346c-0,0 6.087,2.479 22.066,0.913Z" style="fill:#292c47;fill-rule:nonzero;"/><path d="M235.167,1161.87c-0,-0 -20.142,32.008 -18.642,60.933c1.504,28.933 -1.792,59.837 -4.821,90.054c-3.371,33.692 -12.562,103.804 -13.062,121.821c-0.504,18.025 0.658,85.837 0.658,85.837l34.938,-0.262c-0,0 12.404,-136.992 18.416,-151.221c6.009,-14.229 30.679,-117.146 31.684,-128.529c0.995,-11.379 -49.171,-78.633 -49.171,-78.633Z" style="fill:#292c47;fill-rule:nonzero;"/><path d="M341.204,1166.2c0,0 7.959,78.646 9.963,96.354c2,17.705 0.633,94.425 1.629,105.496c1.008,11.063 -6.692,128.109 -8.588,150.396l-38.404,-0.242c0,0 -2.65,-94.683 -2.65,-140.683c0,-46.004 -11.804,-99.554 -25.329,-129.908c-13.525,-30.354 -44.483,-31.071 -52.796,-87.384c0,0 104.921,-11.887 116.175,5.971Z" style="fill:#292c47;fill-rule:nonzero;"/><path d="M256.446,892.038c-0,-0 24,-16.034 40.854,1.141c16.854,17.171 25.138,57.55 13.037,65.613c-12.104,8.058 -32.637,10.17 -42.383,-0.767c-9.746,-10.929 -20.15,-27.608 -22.704,-39.783c-2.562,-12.184 5.108,-21.079 11.196,-26.204Z" style="fill:#eea886;fill-rule:nonzero;"/><path d="M302.175,961.508c-0,0 -0.313,16.871 1.546,20.467c1.862,3.596 -35.025,3.688 -35.025,3.688c-0,-0 -2.996,-19.559 -8.675,-36.084c-5.679,-16.529 42.154,11.929 42.154,11.929Z" style="fill:#eea886;fill-rule:nonzero;"/><path d="M260.946,949.308c-0,0 3.442,3.505 13.183,-0.466c9.742,-3.971 18.909,-20.338 22.779,-22.805c3.884,-2.475 3.334,-4.966 3.334,-4.966l3.558,3.242l4.55,-0.78c0,0 -6.929,-11.071 -1.912,-17.433c5.016,-6.367 -15.592,-37.463 -45.359,-18.475c0,-0 -23.296,12.746 -19.054,26.696c4.25,13.958 11.679,29.246 18.921,34.987Z" style="fill:#754836;fill-rule:nonzero;"/><path d="M305.908,981.542c0,-0 -0.112,-6.867 -3.229,-7.529c-3.112,-0.659 -34.375,-3.667 -38.2,-2.159l0,8c0,0 7.371,4.534 41.429,1.688Z" style="fill:#e2d2ca;fill-rule:nonzero;"/><path d="M298.358,916.075c-1.125,-2.246 -8.775,-7.612 -9.379,0.204c-0.596,7.821 7.525,16.229 10.567,14.634c3.046,-1.6 1.671,-9.155 -1.188,-14.838Z" style="fill:#eea886;fill-rule:nonzero;"/><path d="M249.508,896.167c0,-0 -34.325,9.204 10.046,51.812l-10.046,-51.812Z" style="fill:#754836;fill-rule:nonzero;"/><path d="M556.179,1078.66l-34.979,-0.325c3.021,-1.754 7.9,-4.912 6.821,-6.354c-1.542,-2.05 -11.446,2.455 -15.471,2.867c-3.692,0.375 -9.879,-0.1 -14.575,1.612l-11.046,4.709l10.125,9.371c0,-0 18.296,2.625 23.65,3c8.708,0.612 35.354,-9.759 35.792,-11.334c0.796,-2.833 -0.317,-3.546 -0.317,-3.546Z" style="fill:#eea886;fill-rule:nonzero;"/><path d="M351.571,991.062c-22.246,-3.908 -45.663,-9.52 -45.663,-9.52l-41.429,-1.692c0,0 -38.021,8.371 -52.996,15.137c-1.42,0.642 -1.42,33.921 -5.325,42.646l12.417,26.192c0,-0 7.171,51.883 8.658,74.954c0.684,10.596 -14.787,99.334 -14.787,99.334c-0,-0 16.575,4.879 44.854,7.995c28.275,3.117 98.925,-1.125 99.367,-4.462c0.45,-3.342 -13.68,-124.354 -14.309,-130.621c-0.958,-9.617 2.78,-54.058 2.78,-54.058c5.329,7.15 36.129,33.995 51.166,42.525c10.696,6.066 36.933,2.358 44.663,1.575c16.725,-1.717 62.933,-5.021 63.837,-6.663c0.721,-0.983 -2.658,-17.833 -4.591,-18.479c-1.692,-0.562 -61.342,-3.508 -76.305,-2.737c-6.071,0.32 -25.875,-21.796 -25.875,-21.796c0,-0 -34.187,-54.817 -46.462,-60.33Z" style="fill:#557cff;fill-rule:nonzero;"/><path d="M1757.41,567.446l99.3,-0l0,-99.3l-99.3,-0l0,99.3Zm102.846,3.55l-106.396,-0l0,-106.396l106.396,-0l0,106.396Z" style="fill:#6aafe8;fill-rule:nonzero;"/><path d="M1885.08,500.063l236.438,-0l-0,-18.913l-236.438,0l0,18.913Zm239.983,3.545l-243.52,0l-0,-26.008l243.52,-0l0,26.008Z" style="fill:#6aafe8;fill-rule:nonzero;"/><path d="M1757.41,621.012l364.105,0l-0,-18.912l-364.105,-0l0,18.912Zm367.65,3.546l-371.2,0l0,-26.004l371.2,0l0,26.004Z" style="fill:#6aafe8;fill-rule:nonzero;"/><path d="M1757.41,670.958l229.338,0l-0,-18.912l-229.338,-0l0,18.912Zm232.884,3.55l-236.434,0l0,-26.012l236.434,-0l-0,26.012Z" style="fill:#6aafe8;fill-rule:nonzero;"/><path d="M1885.08,549.675l157.821,-0l-0,-18.913l-157.821,0l0,18.913Zm161.371,3.55l-164.908,-0l-0,-26.012l164.908,-0l-0,26.012Z" style="fill:#6aafe8;fill-rule:nonzero;"/><path d="M1715.15,727.521l448.629,-0l0,-315.938l-448.629,0l-0,315.938Zm452.179,3.546l-455.725,-0l-0,-323.03l455.725,0l0,323.03Z" style="fill:#6aafe8;fill-rule:nonzero;"/><path d="M1550.91,263.367l-34.095,-0l-0,-3.975l30.125,-0l-0,-30.096l3.97,-0l0,34.071Z" style="fill:#6aafe8;fill-rule:nonzero;"/><path d="M1321.63,263.367l-34.104,-0l0,-34.071l3.979,-0l0,30.096l30.125,-0l0,3.975Z" style="fill:#6aafe8;fill-rule:nonzero;"/><path d="M1291.52,34.1l-3.975,-0l-0,-34.1l34.075,0l-0,3.971l-30.1,-0l-0,30.129Z" style="fill:#6aafe8;fill-rule:nonzero;"/><path d="M1550.91,34.083l-3.97,0l-0,-30.095l-30.125,-0l-0,-3.971l34.095,-0l0,34.066Z" style="fill:#6aafe8;fill-rule:nonzero;"/><rect x="1546.94" y="85" width="3.971" height="93.383" style="fill:#6aafe8;fill-rule:nonzero;"/><rect x="1287.53" y="85" width="3.979" height="93.383" style="fill:#6aafe8;fill-rule:nonzero;"/><path d="M330.083,499.942c-5.858,-0 -10.625,4.762 -10.625,10.616c0,5.859 4.767,10.621 10.625,10.621c5.855,0 10.617,-4.762 10.617,-10.621c-0,-5.854 -4.762,-10.616 -10.617,-10.616Zm0,25.212c-8.05,0 -14.595,-6.546 -14.595,-14.596c-0,-8.046 6.545,-14.591 14.595,-14.591c8.046,-0 14.592,6.545 14.592,14.591c0,8.05 -6.546,14.596 -14.592,14.596Z" style="fill:#78c2ff;fill-rule:nonzero;"/><path d="M1419.41,165.242c-5.854,-0 -10.62,4.766 -10.62,10.621c-0,5.858 4.766,10.62 10.62,10.62c5.859,0 10.621,-4.762 10.621,-10.62c0,-5.855 -4.762,-10.621 -10.621,-10.621Zm0,25.216c-8.045,0 -14.591,-6.55 -14.591,-14.595c-0,-8.046 6.546,-14.592 14.591,-14.592c8.046,-0 14.596,6.546 14.596,14.592c0,8.045 -6.55,14.595 -14.596,14.595Z" style="fill:#78c2ff;fill-rule:nonzero;"/><path d="M1896.46,687.621c-5.849,-0 -10.624,4.767 -10.624,10.621c-0,5.854 4.775,10.621 10.624,10.621c5.859,-0 10.621,-4.767 10.621,-10.621c0,-5.854 -4.762,-10.621 -10.621,-10.621Zm0,25.216c-8.041,0 -14.595,-6.549 -14.595,-14.595c-0,-8.046 6.554,-14.596 14.595,-14.596c8.051,-0 14.592,6.55 14.592,14.596c0,8.046 -6.541,14.595 -14.592,14.595Z" style="fill:#78c2ff;fill-rule:nonzero;"/><path d="M330.675,115.929l92.229,0l0,-92.229l-92.229,-0l0,92.229Zm96.204,3.975l-100.175,0l0,-100.179l100.175,0l0,100.179Z" style="fill:#a1d4ff;fill-rule:nonzero;"/><rect x="374.804" y="47.029" width="3.971" height="46.696" style="fill:#a1d4ff;fill-rule:nonzero;"/><rect x="353.446" y="68.392" width="46.688" height="3.971" style="fill:#a1d4ff;fill-rule:nonzero;"/><path d="M1814.26,236.771l135.242,-0l-0,-94.271l-135.242,0l0,94.271Zm139.217,3.975l-143.196,-0l0,-102.221l143.196,0l-0,102.221Z" style="fill:#a1d4ff;fill-rule:nonzero;"/><path d="M1881.88,200.442l-70.871,-58.396l2.529,-3.067l68.342,56.313l68.35,-56.313l2.525,3.067l-70.875,58.396Z" style="fill:#a1d4ff;fill-rule:nonzero;"/><path d="M1950.05,240.125l-51.396,-54.183l2.888,-2.734l51.391,54.184l-2.883,2.733Z" style="fill:#a1d4ff;fill-rule:nonzero;"/><path d="M1813.71,240.125l-2.884,-2.733l51.392,-54.184l2.883,2.734l-51.391,54.183Z" style="fill:#a1d4ff;fill-rule:nonzero;"/><path d="M678.15,309.683c-2.75,0 -5.463,1.288 -7.175,3.692c-1.363,1.913 -1.896,4.242 -1.508,6.558c0.391,2.317 1.662,4.346 3.575,5.704c1.912,1.363 4.237,1.896 6.558,1.509c2.313,-0.392 4.342,-1.663 5.7,-3.575c1.363,-1.913 1.9,-4.242 1.508,-6.558c-0.387,-2.313 -1.658,-4.342 -3.571,-5.701c-1.545,-1.1 -3.325,-1.629 -5.087,-1.629Zm-0.037,20.567c-2.425,0 -4.788,-0.75 -6.801,-2.183c-5.291,-3.763 -6.533,-11.129 -2.766,-16.417c3.762,-5.292 11.133,-6.533 16.416,-2.767c2.563,1.821 4.267,4.534 4.788,7.638c0.521,3.1 -0.196,6.217 -2.021,8.779c-1.821,2.563 -4.533,4.263 -7.637,4.783c-0.659,0.113 -1.321,0.167 -1.979,0.167Zm-7.367,4.954l0.871,0.333c1.579,0.609 3.237,0.988 4.941,1.134l0.925,0.079l1.28,3.338l5.866,-0.988l0.113,-3.571l0.854,-0.383c1.554,-0.692 2.996,-1.596 4.292,-2.684l0.716,-0.604l3.263,1.459l3.446,-4.846l-2.446,-2.604l0.333,-0.875c0.613,-1.575 0.983,-3.238 1.137,-4.938l0.08,-0.929l3.333,-1.275l-0.983,-5.867l-3.575,-0.116l-0.384,-0.85c-0.691,-1.55 -1.591,-2.996 -2.683,-4.296l-0.604,-0.713l1.458,-3.258l-4.841,-3.45l-2.609,2.442l-0.871,-0.334c-1.583,-0.604 -3.241,-0.983 -4.937,-1.129l-0.925,-0.083l-1.283,-3.338l-5.863,0.988l-0.117,3.575l-0.854,0.379c-1.554,0.696 -2.996,1.596 -4.296,2.687l-0.708,0.601l-3.263,-1.455l-3.45,4.846l2.446,2.604l-0.337,0.871c-0.604,1.575 -0.988,3.238 -1.133,4.938l-0.08,0.929l-3.337,1.279l0.992,5.862l3.575,0.117l0.374,0.85c0.692,1.554 1.601,3 2.692,4.296l0.6,0.712l-1.454,3.263l4.842,3.45l2.604,-2.446Zm6.104,8.229l-1.492,-3.895c-1.333,-0.176 -2.641,-0.475 -3.916,-0.896l-3.042,2.85l-8.821,-6.28l1.704,-3.804c-0.825,-1.066 -1.537,-2.208 -2.137,-3.408l-4.171,-0.133l-1.796,-10.679l3.896,-1.492c0.171,-1.338 0.475,-2.646 0.9,-3.917l-2.854,-3.042l6.279,-8.82l3.804,1.7c1.067,-0.817 2.204,-1.534 3.409,-2.134l0.133,-4.171l10.675,-1.795l1.491,3.891c1.334,0.175 2.651,0.475 3.921,0.9l3.042,-2.854l8.825,6.279l-1.704,3.809c0.821,1.062 1.529,2.204 2.133,3.408l4.171,0.129l1.796,10.679l-3.892,1.492c-0.179,1.337 -0.479,2.65 -0.904,3.921l2.858,3.037l-6.283,8.825l-3.804,-1.7c-1.063,0.817 -2.2,1.529 -3.404,2.134l-0.138,4.166l-10.679,1.8Z" style="fill:#a1d4ff;fill-rule:nonzero;"/><path d="M596.187,278.212c-6.795,0 -13.504,3.175 -17.733,9.125c-3.371,4.734 -4.692,10.492 -3.729,16.217c0.967,5.721 4.1,10.729 8.829,14.096c9.767,6.95 23.367,4.658 30.317,-5.108c3.362,-4.725 4.687,-10.488 3.725,-16.213c-0.967,-5.725 -4.1,-10.729 -8.833,-14.096c-3.817,-2.716 -8.217,-4.021 -12.576,-4.021Zm-0.062,47.43c-5.154,-0 -10.362,-1.546 -14.875,-4.754c-11.546,-8.221 -14.254,-24.305 -6.037,-35.855c8.22,-11.55 24.3,-14.258 35.854,-6.037c11.55,8.216 14.262,24.304 6.041,35.85c-5.008,7.041 -12.941,10.796 -20.983,10.796Zm-16.688,14.575l1.163,0.441c3.775,1.45 7.742,2.354 11.783,2.705l1.242,0.108l3.05,7.958l15.871,-2.675l0.271,-8.516l1.133,-0.509c3.713,-1.654 7.162,-3.812 10.25,-6.412l0.954,-0.8l7.779,3.47l9.329,-13.116l-5.824,-6.209l0.441,-1.162c1.446,-3.771 2.354,-7.737 2.704,-11.783l0.105,-1.242l7.962,-3.05l-2.679,-15.871l-8.517,-0.271l-0.508,-1.133c-1.654,-3.712 -3.817,-7.162 -6.413,-10.246l-0.8,-0.954l3.471,-7.779l-13.108,-9.334l-6.217,5.83l-1.158,-0.446c-3.775,-1.446 -7.738,-2.354 -11.784,-2.7l-1.245,-0.108l-3.042,-7.959l-15.875,2.671l-0.271,8.521l-1.137,0.508c-3.709,1.654 -7.159,3.813 -10.25,6.413l-0.95,0.8l-7.78,-3.471l-9.329,13.112l5.83,6.213l-0.45,1.162c-1.446,3.771 -2.35,7.738 -2.7,11.784l-0.109,1.241l-7.958,3.046l2.675,15.875l8.521,0.267l0.504,1.137c1.654,3.709 3.812,7.159 6.416,10.25l0.796,0.955l-3.471,7.775l13.117,9.333l6.208,-5.829Zm14.688,15.67l-3.329,-8.691c-3.567,-0.4 -7.071,-1.2 -10.438,-2.388l-6.779,6.363l-18.421,-13.108l3.792,-8.492c-2.225,-2.796 -4.133,-5.842 -5.679,-9.079l-9.304,-0.296l-3.755,-22.292l8.692,-3.325c0.4,-3.567 1.204,-7.071 2.392,-10.442l-6.363,-6.779l13.1,-18.416l8.496,3.791c2.796,-2.229 5.846,-4.133 9.083,-5.683l0.292,-9.3l22.292,-3.758l3.329,8.691c3.563,0.404 7.062,1.205 10.442,2.396l6.779,-6.366l18.412,13.108l-3.791,8.487c2.229,2.8 4.133,5.842 5.687,9.084l9.296,0.296l3.758,22.291l-8.691,3.325c-0.4,3.567 -1.204,7.067 -2.396,10.442l6.371,6.779l-13.113,18.417l-8.487,-3.792c-2.796,2.229 -5.842,4.133 -9.084,5.683l-0.291,9.3l-22.292,3.754Z" style="fill:#a1d4ff;fill-rule:nonzero;"/><path d="M74.137,366.488c-35.195,-0 -63.825,-28.638 -63.825,-63.834c0,-35.196 28.63,-63.829 63.825,-63.829c35.196,-0 63.83,28.633 63.83,63.829l-3.975,0c-0,-33.004 -26.85,-59.854 -59.855,-59.854c-33.008,0 -59.854,26.85 -59.854,59.854c0,33.004 26.846,59.858 59.854,59.858l0,3.976Zm0,10.304c-40.879,-0 -74.137,-33.259 -74.137,-74.138l3.971,0c-0,38.692 31.479,70.163 70.166,70.163c38.688,-0 70.167,-31.471 70.167,-70.163c0,-38.687 -31.479,-70.162 -70.167,-70.162l0,-3.971c40.88,-0 74.138,33.254 74.138,74.133c-0,40.879 -33.258,74.138 -74.138,74.138Z" style="fill:#78c2ff;fill-rule:nonzero;"/><path d="M65.054,327.217l-26.742,-26.742l2.813,-2.808l23.929,23.929l42.1,-42.096l2.808,2.808l-44.908,44.909Z" style="fill:#78c2ff;fill-rule:nonzero;"/><path d="M1639.78,1211.66l-1126.34,0l-123.258,460.696l1372.85,0l-123.254,-460.696Z" style="fill:url(#_Linear3);"/><path d="M556.05,1292.49l69.2,-0c2.892,-0 5.075,2.249 4.533,4.675l-6.7,30.104c-0.416,1.854 -2.321,3.196 -4.533,3.196l-70.388,-0c-2.954,-0 -5.149,-2.334 -4.504,-4.796l7.888,-30.1c0.466,-1.796 2.337,-3.079 4.504,-3.079Z" style="fill:#fff;fill-rule:nonzero;"/><path d="M656.983,1292.49l52.313,-0l-6.959,37.975l-53.312,-0l7.958,-37.975Z" style="fill:#fff;fill-rule:nonzero;"/><path d="M735.458,1292.49l52.313,-0l-5.471,37.975l-53.317,0.054l6.475,-38.029Z" style="fill:#fff;fill-rule:nonzero;"/><path d="M813.929,1292.49l52.317,-0l-3.979,37.975l-53.313,-0l4.975,-37.975Z" style="fill:#fff;fill-rule:nonzero;"/><path d="M892.404,1292.49l52.317,-0l-2.492,37.975l-53.308,-0l3.483,-37.975Z" style="fill:#fff;fill-rule:nonzero;"/><path d="M970.875,1292.49l52.321,-0l-0.992,37.975l-53.316,0.054l1.987,-38.029Z" style="fill:#fff;fill-rule:nonzero;"/><path d="M1598.85,1292.49l-78.475,-0l8.454,37.975l79.967,-0l-9.946,-37.975Z" style="fill:#fff;fill-rule:nonzero;"/><path d="M1494.21,1292.49l-52.317,-0l6.967,37.975l53.308,-0l-7.958,-37.975Z" style="fill:#fff;fill-rule:nonzero;"/><path d="M1415.74,1292.49l-52.321,-0l5.471,37.975l53.32,0.054l-6.47,-38.029Z" style="fill:#fff;fill-rule:nonzero;"/><path d="M1337.27,1292.49l-52.321,-0l3.979,37.975l53.312,-0l-4.97,-37.975Z" style="fill:#fff;fill-rule:nonzero;"/><path d="M1258.79,1292.49l-52.321,-0l2.491,37.975l53.309,-0l-3.479,-37.975Z" style="fill:#fff;fill-rule:nonzero;"/><path d="M1180.32,1292.49l-52.321,-0l1,37.975l53.312,0.054l-1.991,-38.029Z" style="fill:#fff;fill-rule:nonzero;"/><path d="M1049.35,1292.49l52.321,-0l0.862,37.975l-53.183,-0l-0,-37.975Z" style="fill:#fff;fill-rule:nonzero;"/><path d="M533.029,1358.76l109.325,0l-6.233,39.179l-111.392,0l8.3,-39.179Z" style="fill:#fff;fill-rule:nonzero;"/><path d="M1615.91,1358.76l-135.133,0l7.7,39.179l137.696,0l-10.263,-39.179Z" style="fill:#fff;fill-rule:nonzero;"/><path d="M1453.75,1358.76l-54.05,0l6.159,39.179l55.074,0l-7.183,-39.179Z" style="fill:#fff;fill-rule:nonzero;"/><path d="M1372.68,1358.76l-54.054,0l4.621,39.179l55.075,0l-5.642,-39.179Z" style="fill:#fff;fill-rule:nonzero;"/><path d="M1291.6,1358.76l-54.054,0l3.075,39.179l55.079,0l-4.1,-39.179Z" style="fill:#fff;fill-rule:nonzero;"/><path d="M1210.53,1358.76l-54.054,0l1.537,39.179l55.08,0l-2.563,-39.179Z" style="fill:#fff;fill-rule:nonzero;"/><path d="M516.7,1428.59l111.763,-0l-8.155,38.912l-113.804,0l10.196,-38.912Z" style="fill:#fff;fill-rule:nonzero;"/><path d="M656.404,1428.59l55.879,-0l-6.625,38.912l-56.9,0l7.646,-38.912Z" style="fill:#fff;fill-rule:nonzero;"/><path d="M740.225,1428.59l419.075,-0l1.558,38.912l-426.75,0l6.117,-38.912Z" style="fill:#fff;fill-rule:nonzero;"/><path d="M1187.28,1428.59l55.875,-0l3.058,38.912l-56.9,0l-2.033,-38.912Z" style="fill:#fff;fill-rule:nonzero;"/><path d="M1271.1,1428.59l55.879,-0l4.588,38.912l-56.905,0l-3.562,-38.912Z" style="fill:#fff;fill-rule:nonzero;"/><path d="M1354.92,1428.59l55.875,-0l6.121,38.912l-56.9,0l-5.096,-38.912Z" style="fill:#fff;fill-rule:nonzero;"/><path d="M1438.74,1428.59l55.88,-0l7.645,38.912l-56.9,0l-6.625,-38.912Z" style="fill:#fff;fill-rule:nonzero;"/><path d="M1522.56,1428.59l111.758,-0l10.192,38.912l-113.796,0l-8.154,-38.912Z" style="fill:#fff;fill-rule:nonzero;"/><path d="M1129.56,1358.76l-53.612,0l-0,39.179l54.641,0l-1.029,-39.179Z" style="fill:#fff;fill-rule:nonzero;"/><path d="M1048.48,1358.76l-54.05,0l-1.546,39.179l55.08,0l0.516,-39.179Z" style="fill:#fff;fill-rule:nonzero;"/><path d="M967.404,1358.76l-54.046,0l-3.083,39.179l55.079,0l2.05,-39.179Z" style="fill:#fff;fill-rule:nonzero;"/><path d="M886.329,1358.76l-54.05,0l-4.629,39.179l55.087,0l3.592,-39.179Z" style="fill:#fff;fill-rule:nonzero;"/><path d="M805.25,1358.76l-54.05,0l-6.163,39.179l55.08,0l5.133,-39.179Z" style="fill:#fff;fill-rule:nonzero;"/><path d="M724.171,1358.76l-54.05,0l-7.696,39.179l55.079,0l6.667,-39.179Z" style="fill:#fff;fill-rule:nonzero;"/><path d="M558.604,1268.62l8.879,-33.904l25.4,-0l-8.287,33.904l-25.992,-0Z" style="fill:#fff;fill-rule:nonzero;"/><path d="M618.287,1234.72l50.801,-0l-7.109,33.904l-51.687,-0l7.995,-33.904Z" style="fill:#fff;fill-rule:nonzero;"/><path d="M694.492,1234.72l50.8,-0l-5.771,33.904l-51.692,-0l6.663,-33.904Z" style="fill:#fff;fill-rule:nonzero;"/><path d="M770.696,1234.72l50.796,-0l-4.438,33.904l-51.687,-0l5.329,-33.904Z" style="fill:#fff;fill-rule:nonzero;"/><path d="M846.896,1234.72l50.804,-0l-3.108,33.904l-51.692,-0l3.996,-33.904Z" style="fill:#fff;fill-rule:nonzero;"/><path d="M923.1,1234.72l50.804,-0l-1.775,33.904l-51.692,-0l2.663,-33.904Z" style="fill:#fff;fill-rule:nonzero;"/><path d="M999.304,1234.72l50.804,-0l-0.446,33.904l-51.687,-0l1.329,-33.904Z" style="fill:#fff;fill-rule:nonzero;"/><path d="M1075.51,1234.72l50.804,-0l0.888,33.904l-51.692,-0l0,-33.904Z" style="fill:#fff;fill-rule:nonzero;"/><path d="M1151.71,1234.72l50.804,-0l2.22,33.904l-51.691,-0l-1.333,-33.904Z" style="fill:#fff;fill-rule:nonzero;"/><path d="M1227.92,1234.72l50.804,-0l3.554,33.904l-51.692,-0l-2.666,-33.904Z" style="fill:#fff;fill-rule:nonzero;"/><path d="M1304.12,1234.72l50.804,-0l4.883,33.904l-51.691,-0l-3.996,-33.904Z" style="fill:#fff;fill-rule:nonzero;"/><path d="M1380.33,1234.72l50.804,-0l6.217,33.904l-51.692,-0l-5.329,-33.904Z" style="fill:#fff;fill-rule:nonzero;"/><path d="M1456.53,1234.72l50.8,-0l7.554,33.904l-51.691,-0l-6.663,-33.904Z" style="fill:#fff;fill-rule:nonzero;"/><path d="M1532.73,1234.72l50.8,-0l8.884,33.904l-51.692,-0l-7.992,-33.904Z" style="fill:#fff;fill-rule:nonzero;"/><path d="M1727.17,1708.23l-1301.12,-0c-19.804,-0 -35.863,-16.058 -35.863,-35.867l1372.85,0c0,19.809 -16.058,35.867 -35.866,35.867Z" style="fill:url(#_Linear4);"/><path d="M1236.2,1523.49c-1.342,-8.113 -8.354,-14.059 -16.579,-14.059l-286.034,0c-8.22,0 -15.229,5.946 -16.57,14.059l-17.871,108.137c-1.692,10.233 6.204,19.533 16.571,19.533l321.779,0c10.371,0 18.262,-9.3 16.575,-19.533l-17.871,-108.137Z" style="fill:#4d78eb;fill-rule:nonzero;"/><rect x="623.438" y="592.9" width="116.433" height="11.921" style="fill:#e0e0e0;fill-rule:nonzero;"/><rect x="772.454" y="682.667" width="84.062" height="11.917" style="fill:#e0e0e0;fill-rule:nonzero;"/><rect x="869.612" y="682.667" width="55.779" height="11.917" style="fill:#1487e3;fill-rule:nonzero;"/><rect x="624.763" y="908.404" width="55.783" height="11.925" style="fill:#1487e3;fill-rule:nonzero;"/><rect x="936.421" y="682.667" width="134.683" height="11.917" style="fill:#e0e0e0;fill-rule:nonzero;"/><rect x="624.763" y="863.192" width="86.542" height="11.921" style="fill:#e0e0e0;fill-rule:nonzero;"/><rect x="745.404" y="953.292" width="52.833" height="11.917" style="fill:#e0e0e0;fill-rule:nonzero;"/><rect x="624.763" y="953.292" width="104.675" height="11.917" style="fill:#1487e3;fill-rule:nonzero;"/><rect x="624.763" y="998.171" width="57.733" height="11.925" style="fill:#e0e0e0;fill-rule:nonzero;"/><rect x="762.517" y="592.9" width="82.654" height="11.921" style="fill:#78c2ff;fill-rule:nonzero;"/><rect x="762.517" y="727.55" width="82.654" height="11.921" style="fill:#1487e3;fill-rule:nonzero;"/><rect x="721.192" y="772.429" width="35.317" height="11.925" style="fill:#e0e0e0;fill-rule:nonzero;"/><rect x="685.879" y="817.979" width="79.325" height="11.917" style="fill:#78c2ff;fill-rule:nonzero;"/><rect x="777.192" y="817.979" width="109.504" height="11.917" style="fill:#1487e3;fill-rule:nonzero;"/><rect x="624.763" y="772.763" width="82.654" height="11.921" style="fill:#1487e3;fill-rule:nonzero;"/><rect x="624.763" y="817.979" width="49.042" height="11.917" style="fill:#1487e3;fill-rule:nonzero;"/><rect x="773.158" y="772.763" width="46.267" height="11.921" style="fill:#ff8761;fill-rule:nonzero;"/><rect x="626.15" y="1043.06" width="46.263" height="11.917" style="fill:#ff8761;fill-rule:nonzero;"/><rect x="624.433" y="682.667" width="82.65" height="11.917" style="fill:#78c2ff;fill-rule:nonzero;"/><rect x="697.525" y="908.404" width="82.654" height="11.925" style="fill:#78c2ff;fill-rule:nonzero;"/><rect x="698.546" y="998.171" width="82.65" height="11.925" style="fill:#78c2ff;fill-rule:nonzero;"/><rect x="845.371" y="998.171" width="82.65" height="11.925" style="fill:#78c2ff;fill-rule:nonzero;"/><rect x="624.433" y="727.55" width="117.821" height="11.921" style="fill:#78c2ff;fill-rule:nonzero;"/><rect x="1176.55" y="592.9" width="82.65" height="11.921" style="fill:#78c2ff;fill-rule:nonzero;"/><rect x="882.108" y="1043.06" width="82.65" height="11.917" style="fill:#78c2ff;fill-rule:nonzero;"/><rect x="1284.91" y="592.9" width="55.333" height="11.921" style="fill:#78c2ff;fill-rule:nonzero;"/><rect x="1472.1" y="637.783" width="55.325" height="11.917" style="fill:#78c2ff;fill-rule:nonzero;"/><rect x="867.425" y="592.9" width="105.308" height="11.921" style="fill:#1487e3;fill-rule:nonzero;"/><rect x="1277.72" y="637.783" width="105.3" height="11.917" style="fill:#1487e3;fill-rule:nonzero;"/><rect x="1148.57" y="682.667" width="105.304" height="11.917" style="fill:#1487e3;fill-rule:nonzero;"/><rect x="1011.47" y="727.55" width="105.304" height="11.921" style="fill:#1487e3;fill-rule:nonzero;"/><rect x="1267.12" y="682.667" width="74.858" height="11.917" style="fill:#78c2ff;fill-rule:nonzero;"/><rect x="1050.61" y="592.9" width="105.3" height="11.921" style="fill:#ff8761;fill-rule:nonzero;"/><rect x="930.454" y="727.55" width="61.742" height="11.921" style="fill:#ff8761;fill-rule:nonzero;"/><rect x="882.108" y="909.067" width="61.742" height="11.925" style="fill:#ff8761;fill-rule:nonzero;"/><rect x="992.196" y="592.9" width="38.55" height="11.921" style="fill:#e0e0e0;fill-rule:nonzero;"/><rect x="867.425" y="727.55" width="38.542" height="11.921" style="fill:#e0e0e0;fill-rule:nonzero;"/><rect x="1408.42" y="637.783" width="38.55" height="11.917" style="fill:#e0e0e0;fill-rule:nonzero;"/><rect x="623.438" y="637.783" width="60.304" height="11.917" style="fill:#1487e3;fill-rule:nonzero;"/><rect x="784.338" y="863.521" width="47.604" height="11.921" style="fill:#1487e3;fill-rule:nonzero;"/><rect x="698.546" y="637.783" width="19.467" height="11.917" style="fill:#1487e3;fill-rule:nonzero;"/><rect x="1098.26" y="637.783" width="160.938" height="11.917" style="fill:#e0e0e0;fill-rule:nonzero;"/><rect x="943.85" y="998.171" width="160.938" height="11.925" style="fill:#e0e0e0;fill-rule:nonzero;"/><rect x="732.321" y="637.783" width="19.867" height="11.917" style="fill:#ff8761;fill-rule:nonzero;"/><rect x="1030.75" y="637.783" width="52.65" height="11.917" style="fill:#1487e3;fill-rule:nonzero;"/><rect x="1083.4" y="682.667" width="52.654" height="11.917" style="fill:#ff8761;fill-rule:nonzero;"/><rect x="812.654" y="1043.06" width="52.654" height="11.917" style="fill:#ff8761;fill-rule:nonzero;"/><rect x="904.779" y="637.783" width="112.029" height="11.917" style="fill:#1487e3;fill-rule:nonzero;"/><rect x="800.504" y="909.067" width="65.45" height="11.925" style="fill:#1487e3;fill-rule:nonzero;"/><rect x="796.292" y="998.171" width="32.725" height="11.925" style="fill:#1487e3;fill-rule:nonzero;"/><rect x="850.337" y="637.783" width="38.55" height="11.917" style="fill:#78c2ff;fill-rule:nonzero;"/><rect x="720.6" y="682.667" width="38.542" height="11.917" style="fill:#ff8761;fill-rule:nonzero;"/><rect x="728.283" y="863.521" width="38.542" height="11.921" style="fill:#ff8761;fill-rule:nonzero;"/><rect x="768.479" y="637.783" width="67.158" height="11.917" style="fill:#1487e3;fill-rule:nonzero;"/><clipPath id="_clip5"><path d="M1751.82,1113.53l-111.992,0l0,-371.062l111.992,-0c9.237,-0 16.729,7.487 16.729,16.725l-0,80.183l-92.625,-0l-0,3.975l92.625,0l-0,155.346c-9.563,1.787 -17.721,10.592 -16.104,26.741c2.466,24.709 16.491,50.7 6.558,86.471c-2.175,1.038 -4.612,1.621 -7.183,1.621Z"/></clipPath><g clip-path="url(#_clip5)"><rect x="1639.83" y="742.467" width="129.108" height="371.063" style="fill:#fdfdfd;fill-rule:nonzero;"/></g><rect x="1598" y="742.467" width="41.825" height="371.063" style="fill:url(#_Linear6);"/><path d="M1598,1113.53l-333.2,0c-9.237,0 -16.725,-7.491 -16.725,-16.729l-0,-337.608c-0,-9.238 7.488,-16.725 16.725,-16.725l333.2,-0l0,371.062Z" style="fill:url(#_Linear7);"/><rect x="1675.92" y="839.375" width="92.625" height="3.975" style="fill:#dff0ff;fill-rule:nonzero;"/><path d="M1712.34,959.217l-83.854,-0c-3.545,-0 -6.42,-2.875 -6.42,-6.413l-0,-12.954c-0,-3.542 2.875,-6.417 6.42,-6.417l83.854,0c3.551,0 6.421,2.875 6.421,6.417l0,12.954c0,3.538 -2.87,6.413 -6.421,6.413Z" style="fill:#4aafff;fill-rule:nonzero;"/><path d="M1712.34,1007.49l-83.854,-0c-3.545,-0 -6.42,-2.871 -6.42,-6.417l-0,-12.95c-0,-3.542 2.875,-6.417 6.42,-6.417l83.854,0c3.551,0 6.421,2.875 6.421,6.417l0,12.95c0,3.546 -2.87,6.417 -6.421,6.417Z" style="fill:#4aafff;fill-rule:nonzero;"/><path d="M1712.34,1055.77l-83.854,-0c-3.545,-0 -6.42,-2.871 -6.42,-6.417l-0,-12.946c-0,-3.55 2.875,-6.421 6.42,-6.421l83.854,0c3.551,0 6.421,2.871 6.421,6.421l0,12.946c0,3.546 -2.87,6.417 -6.421,6.417Z" style="fill:#4aafff;fill-rule:nonzero;"/><path d="M1476.32,1025.72c-43.388,15.516 -90.154,1.512 -118.338,-31.621c-6.72,-7.896 -12.383,-16.879 -16.691,-26.817c-0.955,-2.187 -1.842,-4.433 -2.659,-6.712c-8.2,-22.929 -8.154,-46.805 -1.4,-68.367c9.746,-31.138 33.463,-57.492 66.546,-69.317c10.921,-3.908 22.054,-5.937 33.046,-6.275c45.417,-1.37 88.512,26.325 104.642,71.417c20.033,56.013 -9.138,117.658 -65.146,137.692Zm98.996,-149.796c-21.509,-60.142 -78.984,-97.075 -139.563,-95.254c-14.667,0.441 -29.508,3.15 -44.079,8.358c-44.121,15.787 -75.763,50.933 -88.763,92.454c-9.008,28.779 -9.066,60.613 1.871,91.196c1.088,3.046 2.267,6.029 3.538,8.954c5.75,13.246 13.304,25.229 22.266,35.763c37.596,44.196 99.971,62.871 157.842,42.183c74.709,-26.729 113.609,-108.946 86.888,-183.654Z" style="fill:#4aafff;fill-rule:nonzero;"/><path d="M1337.23,892.2l-34.321,-10.721c13,-41.521 44.642,-76.667 88.763,-92.454c14.571,-5.208 29.412,-7.917 44.079,-8.358l1.071,35.941c-10.992,0.338 -22.125,2.367 -33.046,6.275c-33.083,11.825 -56.8,38.179 -66.546,69.317Z" style="fill:#1a598c;fill-rule:nonzero;"/><path d="M1341.29,967.279l-32.971,14.35c-1.271,-2.925 -2.45,-5.908 -3.538,-8.954c-10.937,-30.583 -10.879,-62.417 -1.871,-91.196l34.321,10.721c-6.754,21.562 -6.8,45.438 1.4,68.367c0.817,2.279 1.704,4.525 2.659,6.712Z" style="fill:#2273b5;fill-rule:nonzero;"/><path d="M1330.59,1017.39c-8.962,-10.534 -16.516,-22.517 -22.266,-35.763l32.971,-14.35c4.308,9.938 9.971,18.921 16.691,26.817l-27.396,23.296Z" style="fill:#3788cc;fill-rule:nonzero;"/><path d="M1488.01,1009.5c0,0 -6.958,-12.179 4.075,-44.817c10.671,-31.562 47.621,-28.704 59.359,-8.479c11.746,20.217 7.779,32.784 -9.509,55.613c-17.287,22.833 -46.754,8.121 -53.925,-2.317Z" style="fill:#eea886;fill-rule:nonzero;"/><path d="M1573.82,1571.02c-0,-0 1.829,13.4 2.058,15.421c0.225,2.008 20.338,-1.188 20.338,-1.188l1.629,-15.958c-0,-0 -21.508,-0.163 -24.025,1.725Z" style="fill:#eea886;fill-rule:nonzero;"/><path d="M1575.66,1584.73c0,0 -6.375,8.075 -12.533,11.592c-6.162,3.525 -15.846,4.917 -19.491,8.562c-2.63,2.626 -9.58,13.955 16.016,13.721c25.592,-0.22 37.929,1.604 40.675,-2.737c2.742,-4.346 -3.966,-32.046 -3.966,-32.046c-0,-0 -6.263,1.767 -20.701,0.908Z" style="fill:#414773;fill-rule:nonzero;"/><path d="M1434.58,1571.02c0,-0 1.834,13.4 2.058,15.421c0.23,2.008 20.338,-1.188 20.338,-1.188l1.629,-15.958c0,-0 -21.508,-0.163 -24.025,1.725Z" style="fill:#eea886;fill-rule:nonzero;"/><path d="M1436.43,1584.73c0,0 -6.375,8.075 -12.537,11.592c-6.163,3.525 -28.842,6.412 -32.484,10.058c-2.633,2.634 -7.008,13.221 29.005,12.225c25.587,-0.7 37.933,1.604 40.679,-2.737c2.741,-4.346 -3.971,-32.046 -3.971,-32.046c-0,-0 -7.95,1.413 -20.692,0.908Z" style="fill:#414773;fill-rule:nonzero;"/><path d="M1567.05,1237.28c0,-0 10.313,32.037 8.954,59.65c-1.358,27.612 5.329,57.829 8.063,86.675c3.054,32.154 15.529,108.279 15.975,125.483c0.458,17.196 -1.934,72.129 -1.934,72.129l-24.975,0.596c0,0 -20.97,-133.083 -26.404,-146.662c-5.429,-13.579 -32.371,-110.392 -33.275,-121.254c-0.904,-10.867 53.596,-76.617 53.596,-76.617Z" style="fill:#2d314f;fill-rule:nonzero;"/><path d="M1463.51,1233.94c-0,-0 -15.163,84.716 -16.98,101.62c-1.804,16.9 -3.016,81.784 -3.92,92.346c-0.905,10.559 -6.034,138.217 -10.863,153.904l27.846,0c-0,0 28.592,-92.796 28.592,-136.704c-0,-43.908 18.929,-95.454 31.15,-124.421c12.225,-28.975 40.199,-29.658 47.712,-83.408c0,-0 -93.371,-20.383 -103.537,-3.337Z" style="fill:#2d314f;fill-rule:nonzero;"/><path d="M1498.1,1018.12c0,-0 3.142,9.145 0,15.67c-3.141,6.521 40.129,2.609 40.129,2.609c0,-0 -1.954,-13.484 3.7,-24.575c5.65,-11.092 -43.829,6.296 -43.829,6.296Z" style="fill:#eea886;fill-rule:nonzero;"/><path d="M1569.06,1244.26c0,0 -15.566,15.988 -106.941,-2.491l1.396,-7.829l103.874,3.916l1.671,6.404Z" style="fill:#2b3b57;fill-rule:nonzero;"/><path d="M1491.55,1035.9c0,0 -15.983,1.629 -20.55,2.5c-4.562,0.867 -35.3,-5.5 -41.608,-6.15c-6.308,-0.65 -33.196,-19.071 -34.067,-21.25c-0.866,-2.171 -16.354,-41.387 -17.225,-49.866c-0.871,-8.492 -15.087,-4.109 -13.871,1.737c2.28,10.933 5.209,37.467 6.817,45.158c1.733,8.309 6.379,27.113 8.988,29.429c2.608,2.317 26.82,20.73 50.52,28.555c23.709,7.829 41.546,19.358 41.546,19.358l116.813,0c-0,0 45.437,-64.946 46.412,-74.733c0.975,-9.784 -31.733,-74.821 -38.258,-82.98c-6.525,-8.154 -15.958,2.663 -15.958,2.663c-0,-0 19.549,57.358 22.154,65.513c2.612,8.154 -22.734,43.979 -29.696,44.091c-6.959,0.108 -24.821,-2.179 -32.763,-2.504c-7.937,-0.329 -16.312,-3.808 -16.312,-3.808l-32.942,2.287Z" style="fill:#eea886;fill-rule:nonzero;"/><path d="M1441.21,1079.28c-0,0 14.304,9.509 15.608,25.813c1.304,16.312 6.525,42.079 9.133,50.883c2.613,8.813 -2.283,72.738 -2.937,77.304c-0.654,4.571 90.391,15.417 104.37,4.571c0,0 3.917,-59.696 5.546,-76.654c1.634,-16.958 9.459,-58.054 12.071,-63.6c2.609,-5.55 34.246,-49.925 35.55,-55.775c0,-0 -16.371,-26.096 -28.108,-26.421c-0,0 -18.65,21.854 -24.729,22.829c-6.084,0.979 -43.35,-5.85 -43.359,-5.908c0,-0 -4.066,5.546 -25.691,-0.983c-0,-0 -25.755,2.904 -29.942,3.437c-5.075,0.654 -40.337,-4.421 -40.337,-4.421c-0,0 -14.15,23.892 -11.671,35.95l24.496,12.975Z" style="fill:#55a3ff;fill-rule:nonzero;"/><path d="M1378.92,966.229c-0,0 -3.196,-15.117 0.654,-19.458c2.192,-2.467 7.446,-9.013 7.925,-9.971c0.483,-0.963 6.129,-4.208 6.129,-5.771c0,-1.562 -5.525,-3.483 -10.329,0.963c-4.808,4.445 -7.808,5.408 -9.729,4.925c-1.929,-0.48 -4.688,-16.459 -4.929,-20.421c-0.242,-3.967 -1.771,-14.421 -4.25,-13.696c-2.479,0.717 -2.359,5.283 -2.359,5.283c0,0 -2.883,-7.929 -4.804,-6.366c-1.925,1.562 -1.683,5.408 -1.683,5.408c-0,0 -3.609,-4.45 -4.567,-1.204c-0.962,3.246 0,6.125 0,6.125c0,-0 -3.729,-2.042 -3.962,3.004c-0.246,5.046 1.079,19.825 3.72,25.112c2.642,5.288 12.538,19.113 13.717,24.513c1.179,5.404 14.467,1.554 14.467,1.554Z" style="fill:#eea886;fill-rule:nonzero;"/><path d="M1584.3,939.683c-0,0 -10.867,-18.271 -14.567,-19.9c-3.696,-1.633 -8.912,-2.558 -13.479,-5.821c-4.567,-3.258 -10.6,-5.975 -10.275,-7.062c0.325,-1.087 5.708,-0.654 11.471,1.846c5.762,2.5 8.287,1.291 8.833,-0.013c0.546,-1.304 -3.071,-10.516 -4.812,-12.691c-1.742,-2.175 -14.134,-14.638 -12.067,-16.488c2.067,-1.85 10.113,5.004 11.417,6.413c-0,-0 -6.417,-13.479 -3.913,-14.134c2.496,-0.654 7.171,4.13 7.171,4.13c0,-0 -0.538,-11.521 11.854,7.183c0,-0 -2.612,-6.204 1.196,-4.134c3.804,2.067 7.504,13.701 8.7,19.571c1.192,5.867 6.621,24.571 11.246,29.079c4.625,4.513 -12.775,12.021 -12.775,12.021Z" style="fill:#eea886;fill-rule:nonzero;"/><path d="M1541.93,1011.82c0,-0 -5.725,0.508 -17.904,-3.696c-12.179,-4.208 -13.087,-25.496 -15.717,-22.979c-5.374,5.15 -10.45,1.596 -12.479,-1.45c0,-0 5.942,-7.825 3.188,-11.6c-2.754,-3.767 -7.238,-6.517 -7.238,-6.517c0,0 8.563,-41.279 47.542,-22.475c45.662,22.038 2.608,68.717 2.608,68.717Z" style="fill:#353a3d;fill-rule:nonzero;"/><path d="M1498.1,1033.79l1.375,-5.97c0,-0 24.875,-0.505 38.446,1.462l1.433,7.133c0,0 -17.383,7.884 -41.254,-2.625Z" style="fill:#d4d8e8;fill-rule:nonzero;"/><path d="M1504.24,979.925c2.258,-3.75 10.612,-6.283 11.595,4.35c0.763,8.25 -14.933,17.254 -15.079,9.571c-0.141,-7.688 1.98,-11.421 3.484,-13.921Z" style="fill:#eea886;fill-rule:nonzero;"/><path d="M1378.33,962.8c0,0 -8.975,0.217 -13.329,4.15c-0,-0 -0.283,2.5 0.725,4.462c0,0 7.779,-3.629 13.75,-4.308c-0,0 -0.104,-3.262 -1.146,-4.304Z" style="fill:#e55353;fill-rule:nonzero;"/><path d="M1367.75,965.033c-0.825,1.963 0.096,4.23 2.054,5.059c1.963,0.825 4.229,-0.092 5.058,-2.055c0.83,-1.966 -0.087,-4.229 -2.054,-5.058c-1.962,-0.829 -4.229,0.092 -5.058,2.054Z" style="fill:#353a3d;fill-rule:nonzero;"/><path d="M1147.28,646.042c0,-0 12.829,21.75 18.246,25.304c7.358,4.821 2.746,9.696 -0.746,9.7c-3.492,0.004 -21.325,1.279 -25.254,-3.179c-3.933,-4.459 -5.875,-17.825 -9.533,-21.321c-3.655,-3.492 -7.425,-17.388 1.779,-20.763c8.146,-2.991 15.508,10.259 15.508,10.259Z" style="fill:#6069a8;fill-rule:nonzero;"/><path d="M1141.72,636.479c-0,0 14.696,25.467 17.225,29.233c2.529,3.763 -4.771,3.755 -9.296,1.967c-4.521,-1.787 -15.9,-20.054 -17.533,-23.379c-1.95,-3.971 -0.35,-8.517 -0.35,-8.517l9.954,0.696Z" style="fill:#202338;fill-rule:nonzero;"/><path d="M1126.83,650.183l3.392,26.109l1.8,0.079l-0.563,-18.783l-4.629,-7.405Z" style="fill:#6069a8;fill-rule:nonzero;"/><path d="M1020.05,646.042c-0,-0 12.833,21.75 18.246,25.304c7.358,4.821 2.75,9.696 -0.742,9.7c-3.492,0.004 -21.329,1.279 -25.254,-3.179c-3.933,-4.459 -5.879,-17.825 -9.534,-21.321c-3.654,-3.492 -7.554,-17.746 1.776,-20.763c8.187,-2.65 15.508,10.259 15.508,10.259Z" style="fill:#6069a8;fill-rule:nonzero;"/><path d="M1015.26,636.529c0,0 13.921,25.417 16.459,29.183c2.529,3.763 -4.775,3.755 -9.296,1.967c-4.525,-1.787 -15.904,-20.054 -17.538,-23.379c-1.945,-3.971 -0.349,-8.517 -0.349,-8.517l10.724,0.746Z" style="fill:#202338;fill-rule:nonzero;"/><path d="M999.604,650.183l3.392,26.109l1.8,0.079l-0.559,-18.783l-4.633,-7.405Z" style="fill:#6069a8;fill-rule:nonzero;"/><path d="M963.125,448.108l116.1,52.9c-0,0 12.958,4.217 14.413,18.605c4.533,44.916 38.129,116.17 38.129,116.17c10.779,5.267 9.954,0.696 9.954,0.696c-6.792,-21.808 -15.063,-111.683 -18.013,-147.817c-0.625,-7.654 -1.012,-12.895 -1.1,-14.57c-0.054,-1.142 -1.3,-2.629 -3.45,-4.371c-15.933,-12.921 -81.487,-39.667 -81.487,-39.667c-49.217,-1.25 -74.546,18.054 -74.546,18.054Z" style="fill:#202338;fill-rule:nonzero;"/><path d="M941.242,470.825c3.591,31.379 48.391,27.787 48.391,27.787l54.292,0c0,0 -14.258,31.734 -19.771,58.501c-5.841,28.408 -19.616,78.67 -19.616,78.67c-0,0 0.899,1.705 10.724,0.746c0,0 42.617,-84.937 58.934,-106.292c3.508,-4.595 13.567,-29.541 15.3,-44.42c0.587,-5.005 0.225,-8.871 -1.646,-10.438c-1.887,-1.579 -6.212,-4.554 -11.983,-8.196c-17.013,-10.725 -46.542,-27.233 -63,-30.929c-22.038,-4.954 -56.892,-14.237 -56.892,-14.237c0,-0 -18.325,17.429 -14.733,48.808Z" style="fill:#202338;fill-rule:nonzero;"/><path d="M978.192,229.104c-0,0 -8.125,-15.425 -4.167,-31.854c3.963,-16.429 19.204,-32.8 41.529,-25.283c22.321,7.516 40.363,24.858 26.984,44.908c-13.38,20.046 12.112,29.1 5.612,38.642c-6.492,9.541 -4.033,19.504 -1.279,21.725c2.75,2.216 11.621,10.129 10.642,19.5c-0.976,9.366 -43.305,-27.304 -43.305,-27.304c0,-0 -23.058,-46.321 -36.016,-40.334Z" style="fill:#464240;fill-rule:nonzero;"/><path d="M1046.22,426.292c-0,-0 -3.358,16.333 -90.071,-4.292c0,-0 29.067,-9.654 90.071,4.292Z" style="fill:#eb4747;fill-rule:nonzero;"/><path d="M955.171,426.583c-1.35,2.567 -2.692,5.134 -4.033,7.7c31.695,0.921 63.395,1.846 95.087,2.771c-5.008,-16.791 -3.383,-39.525 -2.504,-56.783c1.071,-21.079 12.708,-35.734 11.475,-57.054c6.266,1.016 7.35,1.208 13.633,2.166c-9.608,-27.362 -12.896,-40.921 -42.729,-51.454c-9.717,-3.429 -16.096,-4.108 -26.612,-3.242c-34.555,2.846 -44.975,3.255 -61.946,34.567c26.566,4.234 22.191,13.771 30.25,40.2c3.929,12.888 8.033,27.271 5.925,40.863c-2.075,13.383 -18.546,28.062 -18.546,40.266Z" style="fill:#325bb3;fill-rule:nonzero;"/><path d="M1010.31,280.562c-14.141,-2.67 -11.133,-10.537 -11.133,-10.537c0,-0 0.654,-4.438 0.913,-10.05c0.066,-1.433 0.1,-2.95 0.091,-4.488c-0.004,-2.329 -0.116,-4.712 -0.383,-6.954c-1.163,-9.491 25.667,-3.829 25.667,-3.829c-0,0 -1.546,19.208 2.154,24.963c3.696,5.758 -3.163,13.566 -17.309,10.895Z" style="fill:#eea886;fill-rule:nonzero;"/><path d="M983.333,269.975c0,0 28.525,32.938 39.071,40.571c0,-0 12.117,-10.946 4.65,-39.854c0,-0 -13.775,-6.9 -43.721,-0.717Z" style="fill:#eea886;fill-rule:nonzero;"/><path d="M984.113,190.704c-0,0 -14.817,28.542 -0.125,55.579c14.695,27.034 43.562,-11.775 45.425,-16.329c1.87,-4.554 11.766,-30.308 -7.917,-38.133c-19.692,-7.829 -33.188,-8.867 -37.383,-1.117Z" style="fill:#eea886;fill-rule:nonzero;"/><path d="M989.038,200.829c-0,0 -10.2,13.396 -11.409,23.292c0,-0 -4.058,-18.713 7.421,-36.688c11.475,-17.975 40.663,-0.854 44.575,6.329c3.904,7.184 15.362,13.509 -3.883,44.375c-0,0 -34.609,-24.045 -36.704,-37.308Z" style="fill:#464240;fill-rule:nonzero;"/><path d="M1012.71,249.129c0,0 -2.57,5.621 -12.616,10.846c0.066,-1.433 0.1,-2.95 0.091,-4.488c0,0 6.804,-0.82 12.525,-6.358Z" style="fill:#a77860;fill-rule:nonzero;"/><path d="M862.992,400.9c-0,0 -7.042,3.133 -10.388,1.713c-3.333,-1.421 -8.5,-1.696 -10.125,-1.701c-2.179,-0.004 -8.996,-2.437 -8.883,0.23c0.121,2.662 11.071,4.521 13.312,5.354c2.242,0.829 -6.704,5.754 -7.533,7.941c-0.833,2.188 9.267,16.546 14.963,12.455c5.695,-4.092 8.779,-12.259 9.937,-12.775c1.163,-0.521 4.279,-2.813 4.279,-2.813l-5.562,-10.404Z" style="fill:#eea886;fill-rule:nonzero;"/><path d="M840.45,413.167c0,-0 -16.517,13.691 -16.771,15.541c-0.258,1.85 0.613,2.717 2.213,1.5c1.6,-1.216 16.379,-12.762 16.379,-12.762c-0,-0 -16.55,19.542 -17.104,20.992c-0.334,0.849 1.258,2.616 2.179,2.045c0.929,-0.57 18.525,-18.971 18.525,-18.971c-0,0 -15.417,18.28 -15.496,19.646c-0.075,1.196 1.779,2.488 3.025,1.213c1.246,-1.275 16.588,-17.4 16.588,-17.4c-0,-0 -10.313,14.033 -9.68,15.267c0.392,0.758 1.696,2.341 4.234,-1.367c2.537,-3.709 9.512,-11.792 9.512,-11.792l-13.604,-13.912Z" style="fill:#eea886;fill-rule:nonzero;"/><path d="M1038.26,498.617l-48.625,-0c0,-0 -44.8,3.587 -48.387,-27.788c-3.596,-31.383 14.729,-48.812 14.729,-48.812c0,-0 23.667,6.304 44.329,11.291c10.342,-2.195 22.808,-3.625 37.367,-3.254c-0,0 87.583,28.938 84.946,44.175c-0,0 -36.638,-19.587 -84.359,24.388Z" style="fill:#ff7e55;fill-rule:nonzero;"/><path d="M1006.61,444.275l92.709,-1.367l-46.809,23.771l-45.9,-22.404Z" style="fill:#5e5853;fill-rule:nonzero;"/><path d="M1035.41,432.429c0,0 -20.858,8.075 -46.425,0.771l-1.195,-9.546l52.641,2.929l-5.021,5.846Z" style="fill:#325bb3;fill-rule:nonzero;"/><path d="M1052.51,466.679l-45.9,-17.783l0,-4.621l49.53,17.867l-3.63,4.537Z" style="fill:#91887f;fill-rule:nonzero;"/><path d="M1035.08,436.846c-0.241,3.425 3.221,5.896 6.384,4.546l5.379,-2.296c1.617,-0.692 2.558,-2.396 2.279,-4.138c-2.242,-14.021 -7.05,-68.608 -0.017,-77.979c2.596,-3.458 4.213,-6.496 5.125,-9.146c4.642,11.963 10.417,27.375 12.713,35.663l43.8,58.271l14.687,3.725c-18.329,-44.159 -33.05,-67.555 -33.05,-67.555c-2.866,-7.695 -11.087,-30.999 -18.366,-51.749c-4.596,-13.105 -8.817,-25.188 -11.084,-31.68c-1.15,-3.291 -3.416,-6.07 -6.412,-7.854c-6.783,-4.058 -18.088,-10.45 -28.342,-15.425l-0.121,-0.058l-0.979,-0.475l-0.021,-0.004l-0.004,-0.005c19.488,29.492 11.888,112.78 8.042,166.042l-0.013,0.117Z" style="fill:#eddad3;fill-rule:nonzero;"/><path d="M962.729,273.204c-6.246,0.963 -21.729,15.996 -29.946,31.167c-9.383,17.316 -18.937,37.029 -26.095,43.512c-13.163,11.93 -50.013,54.084 -51.763,53.063c-0.675,-0.392 10.104,12.587 11.475,13.192c0.683,0.304 60.563,-51.584 66.313,-59.488c5.458,-7.496 20.037,-38.95 24.399,-38.258l0.009,0.025l0.008,0.012c0.334,0.713 5.634,12.213 10.663,29.025l0.25,0.838c3.462,11.725 3.141,24.454 1.266,38.758c-1.416,10.796 -9.475,28.446 -14.333,37.037c-0.587,1.034 -0.437,3 0.196,4.496c0.379,0.892 0.925,1.617 1.596,1.863l17.575,6.512l4.133,1.534c2.975,1.1 6.096,0.525 8.425,-1.167c1.912,-1.388 3.292,-3.525 3.629,-6.113c3.909,-30.066 8.854,-60.787 12.796,-72.358c17.296,-50.779 -6.758,-88.933 -6.758,-88.933c-0,-0 -28.359,3.237 -33.838,5.283Z" style="fill:#eddad3;fill-rule:nonzero;"/><path d="M1052.51,466.679l27.58,-75.296l88.899,1.45l-26.283,69.388l-90.196,4.458Z" style="fill:#6e6760;fill-rule:nonzero;"/><path d="M1108.53,424.692c-2.708,5.425 -1.891,11.329 1.833,13.191c3.726,1.863 8.942,-1.025 11.655,-6.445c2.712,-5.421 1.896,-11.33 -1.834,-13.192c-3.716,-1.863 -8.937,1.025 -11.654,6.446Z" style="fill:#807066;fill-rule:nonzero;"/><path d="M1014.82,219.125c-0,-0 5.691,8.858 0.437,16.508c-5.267,7.646 1.325,15.159 2.463,23.242c1.146,8.083 -21.959,29.596 3.737,40.417c25.692,10.821 33.871,-7.067 27.313,-16.913c-6.554,-9.846 -11.209,-17.833 -11.763,-31.867c-0.55,-14.037 -5.171,-35.912 -22.187,-31.387Z" style="fill:#464240;fill-rule:nonzero;"/><path d="M828.708,112.808l109.505,0l-0,96.088l-16.713,-16.717l-92.792,0l0,-79.371Z" style="fill:#78c2ff;fill-rule:nonzero;"/><defs><linearGradient id="_Linear1" x1="0" y1="0" x2="1" y2="0" gradientUnits="userSpaceOnUse" gradientTransform="matrix(1251.79,0,0,1251.79,479.054,914.854)"><stop offset="0" style="stop-color:#3fd4e6;stop-opacity:1"/><stop offset="1" style="stop-color:#5477ff;stop-opacity:1"/></linearGradient><linearGradient id="_Linear2" x1="0" y1="0" x2="1" y2="0" gradientUnits="userSpaceOnUse" gradientTransform="matrix(1045.13,0,0,1045.13,552.875,859.442)"><stop offset="0" style="stop-color:#3f4b60;stop-opacity:1"/><stop offset="1" style="stop-color:#2f3d5b;stop-opacity:1"/></linearGradient><linearGradient id="_Linear3" x1="0" y1="0" x2="1" y2="0" gradientUnits="userSpaceOnUse" gradientTransform="matrix(-3.03387e-05,694.067,-694.067,-3.03387e-05,1076.61,1167.12)"><stop offset="0" style="stop-color:#3fd4e6;stop-opacity:1"/><stop offset="1" style="stop-color:#5477ff;stop-opacity:1"/></linearGradient><linearGradient id="_Linear4" x1="0" y1="0" x2="1" y2="0" gradientUnits="userSpaceOnUse" gradientTransform="matrix(1372.85,0,0,1372.85,-246.118,1690.3)"><stop offset="0" style="stop-color:#3fd4e6;stop-opacity:1"/><stop offset="1" style="stop-color:#5477ff;stop-opacity:1"/></linearGradient><linearGradient id="_Linear6" x1="0" y1="0" x2="1" y2="0" gradientUnits="userSpaceOnUse" gradientTransform="matrix(1251.79,0,0,1251.79,479.054,914.854)"><stop offset="0" style="stop-color:#d1f4f9;stop-opacity:1"/><stop offset="1" style="stop-color:#d6ddff;stop-opacity:1"/></linearGradient><linearGradient id="_Linear7" x1="0" y1="0" x2="1" y2="0" gradientUnits="userSpaceOnUse" gradientTransform="matrix(1045.13,0,0,1045.13,552.875,859.442)"><stop offset="0" style="stop-color:#d1d3d8;stop-opacity:1"/><stop offset="1" style="stop-color:#cdd1d8;stop-opacity:1"/></linearGradient></defs></svg>