<?xml version="1.0" encoding="UTF-8" standalone="no"?><!DOCTYPE svg PUBLIC "-//W3C//DTD SVG 1.1//EN" "http://www.w3.org/Graphics/SVG/1.1/DTD/svg11.dtd"><svg width="100%" height="100%" viewBox="0 0 1858 1831" version="1.1" xmlns="http://www.w3.org/2000/svg" xmlns:xlink="http://www.w3.org/1999/xlink" xml:space="preserve" xmlns:serif="http://www.serif.com/" style="fill-rule:evenodd;clip-rule:evenodd;stroke-linejoin:round;stroke-miterlimit:2;"><g><path d="M1180.01,543.07l-255.012,272.591l932.1,0l-0,-275.525l-677.088,2.934Z" style="fill:#fff;fill-rule:nonzero;"/><path d="M1257.44,0.307l-309.058,0l261.362,272.888l647.359,-0l-0,-272.384l-599.663,-0.504Z" style="fill:#fff;"/><path d="M1446.03,1086.87l-605.496,0c-304.254,11.68 -434.263,-113.466 -492.825,-229.308c-58.563,-115.825 -68.542,-341.596 77.146,-467.962c145.7,-126.363 293.537,-116.4 293.537,-116.4l268.213,-0l-268.267,-272.888l-156.304,0c-0,0 -202.246,-16.608 -401.567,194.429c-199.317,211.042 -185.633,588.179 -105.521,781.634c80.125,193.45 257.942,402.537 674.159,382.995l828.341,0c3.575,0.167 296.117,0.28 299.659,0.413l-0,-276.142c-37.234,3.654 -366.767,4.929 -411.075,3.229Z" style="fill:#fff;"/><path d="M145.321,1695.58l-95.35,0c-3.537,0 -6.037,-0.833 -7.908,-2.708c-1.875,-1.871 -2.917,-4.579 -2.917,-7.909l0,-71.408c0,-3.542 1.042,-6.246 2.917,-8.121c1.667,-1.875 4.371,-2.704 7.908,-2.704l95.35,0l0,-26.442l-95.35,0c-4.579,0 -8.741,0.625 -12.279,1.667c-3.541,1.25 -6.662,2.704 -9.579,4.579c-2.704,2.084 -4.996,4.163 -7.079,6.663c-1.871,2.496 -3.538,5.204 -4.579,7.912c-1.25,2.704 -2.288,5.621 -2.704,8.325c-0.625,2.917 -1.042,5.413 -1.042,7.913l-0,71.616c-0,4.58 0.625,8.534 1.871,12.284c1.041,3.537 2.708,6.662 4.583,9.575c1.871,2.708 4.163,4.996 6.663,6.871c2.495,1.875 5.204,3.537 7.908,4.787c2.708,1.25 5.412,2.083 8.329,2.708c2.704,0.625 5.413,0.83 7.908,0.83l95.35,-0l0,-26.438Z" style="fill:#fff;fill-rule:nonzero;"/><path d="M321.205,1635.21c-0,-8.742 -1.667,-16.862 -4.584,-24.358c-3.12,-7.492 -7.283,-13.946 -12.7,-19.359c-5.412,-5.416 -11.866,-9.579 -19.358,-12.7c-7.496,-3.125 -15.408,-4.583 -24.15,-4.583l-35.808,0c-8.746,0 -16.863,1.458 -24.359,4.583c-7.495,3.121 -13.95,7.284 -19.362,12.7c-5.413,5.413 -9.575,11.867 -12.7,19.359c-3.121,7.496 -4.579,15.616 -4.579,24.358l-0,27.896c-0,8.746 1.458,17.075 4.579,24.358c3.125,7.496 7.287,13.95 12.7,19.363c5.412,5.412 11.867,9.783 19.362,12.7c7.496,3.121 15.613,4.579 24.359,4.579l35.808,-0c8.742,-0 16.654,-1.458 24.15,-4.579c7.492,-2.917 13.946,-7.288 19.358,-12.7c5.417,-5.413 9.58,-11.867 12.7,-19.363c2.917,-7.283 4.584,-15.612 4.584,-24.358l-0,-27.896Zm-26.442,27.896c0,5.208 -0.833,9.996 -2.5,14.158c-1.662,4.163 -4.162,7.913 -7.075,10.825c-3.125,3.125 -6.662,5.413 -11.037,7.079c-4.163,1.667 -8.95,2.5 -13.946,2.5l-35.6,0c-5.204,0 -9.996,-0.833 -14.159,-2.5c-4.162,-1.666 -7.908,-3.954 -10.825,-7.079c-3.12,-2.912 -5.412,-6.662 -7.079,-10.825c-1.666,-4.162 -2.496,-8.95 -2.496,-14.158l0,-27.896c0,-5.204 0.83,-9.992 2.496,-14.154c1.667,-4.167 3.959,-7.913 7.079,-10.829c2.917,-3.121 6.663,-5.413 10.825,-7.075c4.163,-1.667 8.955,-2.5 14.159,-2.5l35.808,-0c4.996,-0 9.575,0.833 13.946,2.5c4.167,1.662 7.912,3.954 10.829,7.075c2.913,2.916 5.413,6.662 7.075,10.829c1.667,4.162 2.5,8.95 2.5,14.154l0,27.896Z" style="fill:#fff;fill-rule:nonzero;"/><path d="M492.613,1637.29c0,-8.954 -1.458,-17.07 -4.579,-24.566c-3.125,-7.496 -7.288,-13.95 -12.7,-19.154c-5.413,-5.413 -11.867,-9.784 -19.363,-12.7c-7.491,-3.121 -15.612,-4.58 -24.15,-4.58l-71.408,0c-1.871,0 -3.746,0.209 -5.412,1.042c-1.455,0.625 -2.913,1.458 -4.163,2.704c-1.25,1.25 -2.083,2.709 -2.708,4.375c-0.829,1.663 -1.038,3.329 -1.038,5.204l0,119.084c0,1.871 0.209,3.746 1.038,5.204c0.625,1.667 1.458,3.121 2.708,4.371c1.25,1.041 2.708,2.083 4.163,2.708c1.666,0.625 3.541,1.042 5.412,1.042l71.408,-0c8.538,-0 16.659,-1.459 24.15,-4.584c7.496,-3.12 13.95,-7.283 19.363,-12.7c5.412,-5.412 9.575,-11.658 12.7,-19.15c3.121,-7.495 4.579,-15.616 4.579,-24.566l0,-23.734Zm-26.229,23.734c-0,5.204 -0.833,9.991 -2.5,14.154c-1.667,4.167 -4.163,7.912 -7.079,10.829c-3.121,3.121 -6.871,5.413 -11.034,7.075c-4.162,1.667 -8.95,2.5 -13.95,2.5l-58.291,0l-0,-92.85l58.291,0c5,0 9.788,0.833 13.95,2.496c4.163,1.667 7.913,3.958 11.034,6.871c2.916,3.125 5.412,6.662 7.079,11.033c1.667,4.167 2.5,8.954 2.5,14.158l-0,23.734Z" style="fill:#fff;fill-rule:nonzero;"/><path d="M638.396,1635.83l-83.275,0l0,26.65l83.275,0l0,-26.65Zm12.075,59.75l-95.141,0c-3.542,0 -6.246,-0.833 -8.121,-2.704c-1.875,-1.875 -2.704,-4.583 -2.704,-7.913l-0,-82.233l105.966,0l0,-26.442l-119.083,0c-1.875,0 -3.75,0.209 -5.412,1.042c-1.459,0.625 -2.917,1.458 -4.167,2.708c-1.246,1.246 -2.079,2.705 -2.704,4.371c-0.834,1.667 -1.042,3.329 -1.042,5.204l0,95.35c0,6.871 1.25,12.492 3.746,17.28c2.5,4.787 5.412,8.533 9.162,11.45c3.746,2.916 7.705,5.204 12.075,6.454c4.371,1.25 8.325,1.875 12.075,1.875l95.35,-0l0,-26.442Z" style="fill:#fff;fill-rule:nonzero;"/><path d="M863.355,1635.83l-83.271,0l-0,26.65l83.271,0l-0,-26.65Zm12.075,59.75l-95.142,0c-3.537,0 -6.242,-0.833 -8.117,-2.704c-1.875,-1.875 -2.708,-4.583 -2.708,-7.913l0,-82.233l105.967,0l-0,-26.442l-119.079,0c-1.875,0 -3.75,0.209 -5.417,1.042c-1.454,0.625 -2.913,1.458 -4.163,2.708c-1.25,1.246 -2.083,2.705 -2.704,4.371c-0.833,1.667 -1.041,3.329 -1.041,5.204l-0,95.35c-0,6.871 1.25,12.492 3.745,17.28c2.5,4.787 5.413,8.537 9.163,11.45c3.746,2.916 7.7,5.204 12.075,6.454c4.371,1.25 8.325,1.875 12.075,1.875l95.346,-0l-0,-26.442Z" style="fill:#fff;fill-rule:nonzero;"/><path d="M922.976,1576.29l-35.809,0l62.459,73.075l-62.25,72.659l36.016,-0l44.138,-51.634l44.133,51.634l36.017,-0l-62.246,-72.659l62.663,-73.075l-36.225,0l-44.342,52.046l-44.554,-52.046Z" style="fill:#fff;fill-rule:nonzero;"/><path d="M1209.88,1625.22c-0,-3.12 -0.209,-6.662 -1.042,-10.408c-0.625,-3.75 -1.875,-7.287 -3.542,-11.033c-1.662,-3.542 -3.745,-7.079 -6.245,-10.413c-2.705,-3.329 -5.83,-6.246 -9.367,-8.741c-3.538,-2.5 -7.704,-4.58 -12.492,-6.038c-4.787,-1.667 -10.2,-2.292 -16.029,-2.292l-59.75,0c-3.75,0 -7.704,0.625 -12.075,1.875c-4.371,1.459 -8.329,3.538 -12.075,6.455c-3.746,2.912 -6.871,6.662 -9.162,11.45c-2.496,4.787 -3.746,10.408 -3.746,17.279l-0,108.675l26.441,-0l0,-108.675c0,-3.538 0.83,-6.038 2.705,-7.913c1.875,-1.871 4.579,-2.704 7.912,-2.704l59.75,0c3.329,0 6.454,0.417 9.158,1.667c2.5,1.037 4.788,2.704 6.663,4.579c1.875,1.871 3.333,4.371 4.371,7.079c1.041,2.913 1.875,5.829 2.291,9.158l0,12.075c0,3.33 -0.625,6.455 -1.666,8.95c-1.042,2.709 -2.704,5 -4.579,6.871c-2.084,2.084 -4.371,3.542 -7.08,4.584c-2.704,1.245 -5.829,1.87 -9.158,2.079l-59.75,-0l0,26.441l59.75,0c3.121,0 6.663,-0.416 10.408,-1.041c3.538,-0.834 7.288,-2.084 10.825,-3.538c3.75,-1.666 7.288,-3.75 10.409,-6.454c3.333,-2.5 6.246,-5.621 8.954,-9.162c2.496,-3.746 4.579,-7.913 6.037,-12.7c1.459,-4.58 2.084,-9.992 2.084,-16.03l-0,-12.075Z" style="fill:#fff;fill-rule:nonzero;"/><path d="M1352.31,1635.83l-83.275,0l-0,26.65l83.275,0l-0,-26.65Zm12.075,59.75l-95.142,0c-3.537,0 -6.246,-0.833 -8.121,-2.704c-1.87,-1.875 -2.704,-4.583 -2.704,-7.913l0,-82.233l105.967,0l-0,-26.442l-119.083,0c-1.875,0 -3.746,0.209 -5.413,1.042c-1.458,0.625 -2.912,1.458 -4.162,2.708c-1.25,1.246 -2.084,2.705 -2.709,4.371c-0.833,1.667 -1.041,3.329 -1.041,5.204l-0,95.35c-0,6.871 1.25,12.492 3.75,17.28c2.495,4.787 5.412,8.537 9.158,11.45c3.75,2.916 7.704,5.204 12.075,6.454c4.371,1.25 8.329,1.875 12.075,1.875l95.35,-0l-0,-26.442Z" style="fill:#fff;fill-rule:nonzero;"/><path d="M1535.38,1608.35c-0,-3.333 -0.417,-6.663 -1.667,-10.408c-1.041,-3.75 -2.912,-7.288 -5.412,-10.413c-2.496,-3.329 -5.829,-6.037 -9.992,-8.117c-3.954,-2.083 -8.954,-3.125 -14.783,-3.125l-100.346,0c-1.871,0 -3.746,0.209 -5.413,1.042c-1.458,0.625 -2.912,1.458 -4.162,2.708c-1.25,1.246 -2.083,2.705 -2.708,4.371c-0.834,1.667 -1.038,3.329 -1.038,5.204l0,132.409l26.438,-0l-0,-119.292l88.895,0c0.625,0.208 1.25,0.417 1.875,0.625c0.625,0.417 1.042,1.042 1.459,1.871c0.412,0.625 0.412,1.875 0.412,3.333l0,16.654c0,3.538 -0.412,6.455 -1.454,9.163c-1.25,2.704 -2.708,4.996 -4.792,6.867c-1.87,1.875 -4.37,3.541 -7.075,4.583c-2.708,1.037 -5.62,1.871 -8.954,2.079l-59.958,0l-0,26.442l19.154,-0l54.963,47.675l41.012,-0l-55.171,-47.675c3.125,-0 6.663,-0.417 10.409,-1.042c3.541,-0.833 7.287,-2.083 10.829,-3.746c3.746,-1.666 7.075,-3.75 10.408,-6.246c3.329,-2.708 6.246,-5.62 8.95,-9.37c2.5,-3.538 4.583,-7.7 6.038,-12.492c1.458,-4.788 2.083,-10.2 2.083,-16.238l-0,-16.862Z" style="fill:#fff;fill-rule:nonzero;"/><path d="M1692.73,1576.29l-143.025,0l-0,26.442l58.291,0l0,119.292l26.442,-0l0,-119.292l58.292,0l-0,-26.442Z" style="fill:#fff;fill-rule:nonzero;"/><path d="M1850.13,1665.19c-1.25,-4.162 -2.913,-7.908 -5.204,-11.033c-2.084,-3.121 -4.788,-6.038 -7.496,-8.117c-2.913,-2.291 -5.829,-4.166 -8.95,-5.829c-3.333,-1.458 -6.454,-2.5 -9.579,-3.125c-3.121,-0.833 -6.246,-1.25 -9.159,-1.25l-61,0c-4.995,0 -8.741,-1.454 -11.658,-4.371c-2.704,-2.912 -4.162,-7.079 -4.162,-12.075c-0,-4.996 1.458,-9.158 4.162,-12.075c2.917,-3.121 6.663,-4.579 11.658,-4.579l90.146,0l0,-26.442l-90.146,0c-4.162,0 -8.741,0.625 -13.741,2.292c-4.996,1.458 -9.575,3.954 -13.738,7.288c-4.162,3.537 -7.704,7.908 -10.616,13.32c-2.709,5.625 -4.167,12.284 -4.167,20.196c0,7.913 1.458,14.575 4.167,20.196c2.912,5.413 6.454,9.783 10.616,13.113c4.163,3.541 8.742,6.037 13.738,7.495c5,1.459 9.579,2.292 13.741,2.292l60.792,0c2.5,0 4.788,0.417 6.663,1.25c2.079,0.829 3.745,1.871 5.204,3.329c1.458,1.459 2.5,3.329 3.121,5.413c0.833,1.875 1.25,4.162 1.25,6.662c-0,4.996 -1.459,8.95 -4.371,12.075c-2.708,2.913 -6.663,4.371 -11.867,4.371l-101.804,0l-0,26.442l101.804,-0c2.913,-0 6.038,-0.417 9.159,-1.042c3.333,-0.625 6.454,-1.667 9.579,-3.125c3.12,-1.454 6.037,-3.329 8.95,-5.412c2.916,-2.288 5.62,-4.996 7.704,-8.117c2.083,-3.333 3.954,-6.871 5.204,-11.033c1.25,-4.167 2.083,-8.955 2.083,-14.159c0,-5.204 -0.833,-9.991 -2.083,-13.95Z" style="fill:#fff;fill-rule:nonzero;"/><path d="M356.226,1829.75l-6.584,-0l0,-23.084l-24.25,-35.25l8,0l19.584,29.167l19.833,-29.167l7.667,0l-24.25,35.167l-0,23.167Z" style="fill:#fff;fill-rule:nonzero;"/><path d="M453.221,1812c-1.416,3.666 -3.5,6.916 -6.083,9.666c-2.583,2.75 -5.75,5 -9.417,6.584c-3.666,1.666 -7.75,2.5 -12.166,2.5c-4.417,-0 -8.5,-0.834 -12.084,-2.417c-3.666,-1.583 -6.833,-3.833 -9.416,-6.583c-2.584,-2.75 -4.584,-5.917 -6,-9.584c-1.417,-3.583 -2.167,-7.416 -2.167,-11.5c0,-4.083 0.75,-7.916 2.167,-11.583c1.416,-3.583 3.5,-6.833 6.083,-9.583c2.583,-2.75 5.75,-5 9.417,-6.667c3.666,-1.583 7.75,-2.417 12.166,-2.417c4.417,0 8.5,0.834 12.167,2.417c3.583,1.583 6.75,3.75 9.333,6.5c2.584,2.75 4.667,6 6.084,9.583c1.416,3.667 2.083,7.5 2.083,11.584c0,4.083 -0.75,7.916 -2.167,11.5Zm-6.333,-20.75c-1.167,-2.917 -2.75,-5.5 -4.833,-7.667c-2.084,-2.167 -4.5,-3.917 -7.25,-5.167c-2.834,-1.25 -5.917,-1.916 -9.25,-1.916c-3.334,-0 -6.417,0.583 -9.167,1.833c-2.833,1.25 -5.25,3 -7.25,5.167c-2,2.166 -3.583,4.666 -4.667,7.583c-1.166,2.917 -1.75,6.083 -1.75,9.417c0,3.333 0.584,6.5 1.75,9.416c1.084,2.917 2.667,5.5 4.75,7.667c2.084,2.167 4.5,3.917 7.334,5.167c2.75,1.25 5.833,1.916 9.166,1.916c3.334,0 6.417,-0.666 9.25,-1.916c2.75,-1.25 5.167,-2.917 7.167,-5.084c2,-2.166 3.583,-4.75 4.75,-7.666c1.083,-2.917 1.667,-6 1.667,-9.334c-0,-3.333 -0.584,-6.5 -1.667,-9.416Z" style="fill:#fff;fill-rule:nonzero;"/><path d="M529.388,1804.83c0,4.25 -0.583,8 -1.75,11.25c-1.167,3.25 -2.833,5.917 -4.917,8.083c-2.166,2.167 -4.75,3.75 -7.666,4.834c-3,1.083 -6.334,1.666 -10,1.666c-3.584,0 -6.917,-0.583 -9.834,-1.666c-3,-1.084 -5.583,-2.667 -7.666,-4.834c-2.167,-2.083 -3.834,-4.75 -5,-7.916c-1.167,-3.167 -1.75,-6.834 -1.75,-10.917l-0,-33.917l6.583,0l0,33.5c0,6.334 1.583,11.167 4.75,14.584c3.083,3.416 7.5,5.083 13.083,5.083c5.417,0 9.667,-1.583 12.834,-4.833c3.166,-3.25 4.75,-8 4.75,-14.417l-0,-33.917l6.583,0l0,33.417Z" style="fill:#fff;fill-rule:nonzero;"/><path d="M597.555,1829.75l-16.917,-22.667l-16.667,0l0,22.667l-6.583,-0l0,-58.334l25.083,0c3.25,0 6.167,0.417 8.75,1.25c2.584,0.834 4.75,2 6.584,3.584c1.833,1.5 3.25,3.333 4.25,5.5c1,2.083 1.5,4.5 1.5,7.083c-0,2.417 -0.417,4.667 -1.167,6.583c-0.75,1.917 -1.833,3.584 -3.25,5c-1.417,1.417 -3.167,2.584 -5.083,3.5c-1.917,1 -4.084,1.667 -6.334,2l17.917,23.834l-8.083,-0Zm-4.5,-49.167c-2.667,-2.083 -6.334,-3.083 -11,-3.083l-18.084,-0l0,23.75l18,-0c2.167,-0 4.167,-0.25 6,-0.834c1.834,-0.583 3.417,-1.333 4.75,-2.416c1.334,-1 2.334,-2.25 3.084,-3.75c0.75,-1.5 1.166,-3.25 1.166,-5.167c0,-3.667 -1.333,-6.5 -3.916,-8.5Z" style="fill:#fff;fill-rule:nonzero;"/><path d="M710.388,1771.41l6.417,0l-0,58.334l-5.25,-0l-37.667,-47.834l0,47.834l-6.417,-0l0,-58.334l6.167,0l36.75,46.75l0,-46.75Z" style="fill:#fff;fill-rule:nonzero;"/><path d="M787.884,1777.41l-35.583,0l-0,19.917l31.833,0l-0,6l-31.833,0l-0,20.417l36,-0l-0,6l-42.584,-0l0,-58.334l42.167,0l-0,6Z" style="fill:#fff;fill-rule:nonzero;"/><path d="M854.471,1829.75l-18.666,-25.084l-18.667,25.084l-7.583,-0l22.416,-29.75l-21.583,-28.584l7.75,0l17.917,23.834l17.75,-23.834l7.666,0l-21.583,28.5l22.417,29.834l-7.834,-0Z" style="fill:#fff;fill-rule:nonzero;"/><path d="M908.801,1829.75l-6.584,-0l0,-52.25l-19.583,-0l-0,-6.084l45.75,0l-0,6.084l-19.583,-0l-0,52.25Z" style="fill:#fff;fill-rule:nonzero;"/><path d="M996.384,1789.66c0.417,1.167 1.25,2.167 2.417,3.084c1.166,0.916 2.75,1.75 4.833,2.5c2.083,0.75 4.667,1.416 7.917,2.083c6.5,1.5 11.333,3.5 14.416,6c3.084,2.583 4.584,6.167 4.584,10.667c-0,2.5 -0.5,4.75 -1.5,6.833c-1,2.083 -2.334,3.833 -4.084,5.25c-1.75,1.417 -3.833,2.583 -6.25,3.333c-2.416,0.75 -5.083,1.167 -8,1.167c-4.666,0 -8.916,-0.75 -12.75,-2.25c-3.916,-1.5 -7.583,-3.833 -11.083,-7l4.083,-4.833c3.084,2.75 6.167,4.833 9.25,6.166c3.084,1.417 6.667,2.084 10.75,2.084c3.917,-0 7.084,-0.917 9.5,-2.75c2.334,-1.834 3.5,-4.25 3.5,-7.25c0,-1.417 -0.25,-2.667 -0.666,-3.75c-0.417,-1.084 -1.25,-2.084 -2.334,-2.917c-1.083,-0.917 -2.666,-1.75 -4.666,-2.417c-1.917,-0.75 -4.5,-1.416 -7.5,-2.083c-3.417,-0.75 -6.25,-1.583 -8.75,-2.5c-2.5,-1 -4.5,-2.083 -6.167,-3.5c-1.583,-1.333 -2.833,-2.833 -3.583,-4.667c-0.75,-1.75 -1.167,-3.833 -1.167,-6.333c-0,-2.333 0.5,-4.417 1.417,-6.417c0.916,-1.916 2.25,-3.583 4,-5c1.75,-1.416 3.75,-2.583 6.083,-3.333c2.333,-0.833 4.917,-1.25 7.667,-1.25c4.25,0 8,0.583 11.25,1.75c3.166,1.167 6.25,3 9.25,5.333l-3.834,5.084c-2.75,-2.25 -5.416,-3.834 -8.166,-4.834c-2.75,-1 -5.667,-1.5 -8.667,-1.5c-1.917,0 -3.583,0.25 -5.083,0.75c-1.584,0.5 -2.834,1.167 -3.917,2c-1.083,0.834 -1.917,1.834 -2.5,3c-0.583,1.167 -0.917,2.417 -0.917,3.75c0,1.417 0.25,2.667 0.667,3.75Z" style="fill:#fff;fill-rule:nonzero;"/><path d="M1111.14,1812c-1.417,3.666 -3.5,6.916 -6.083,9.666c-2.584,2.75 -5.75,5 -9.417,6.584c-3.667,1.666 -7.75,2.5 -12.167,2.5c-4.416,-0 -8.5,-0.834 -12.083,-2.417c-3.667,-1.583 -6.833,-3.833 -9.417,-6.583c-2.583,-2.75 -4.583,-5.917 -6,-9.584c-1.416,-3.583 -2.166,-7.416 -2.166,-11.5c-0,-4.083 0.75,-7.916 2.166,-11.583c1.417,-3.583 3.5,-6.833 6.084,-9.583c2.583,-2.75 5.75,-5 9.416,-6.667c3.667,-1.583 7.751,-2.417 12.167,-2.417c4.417,0 8.5,0.834 12.167,2.417c3.583,1.583 6.75,3.75 9.333,6.5c2.583,2.75 4.667,6 6.083,9.583c1.417,3.667 2.084,7.5 2.084,11.584c-0,4.083 -0.75,7.916 -2.167,11.5Zm-6.333,-20.75c-1.167,-2.917 -2.75,-5.5 -4.834,-7.667c-2.083,-2.167 -4.5,-3.917 -7.25,-5.167c-2.833,-1.25 -5.916,-1.916 -9.25,-1.916c-3.333,-0 -6.416,0.583 -9.166,1.833c-2.834,1.25 -5.25,3 -7.25,5.167c-2,2.166 -3.584,4.666 -4.667,7.583c-1.167,2.917 -1.75,6.083 -1.75,9.417c0,3.333 0.583,6.5 1.75,9.416c1.083,2.917 2.667,5.5 4.75,7.667c2.083,2.167 4.5,3.917 7.333,5.167c2.75,1.25 5.834,1.916 9.167,1.916c3.333,0 6.417,-0.666 9.25,-1.916c2.75,-1.25 5.167,-2.917 7.167,-5.084c2,-2.166 3.583,-4.75 4.75,-7.666c1.083,-2.917 1.666,-6 1.666,-9.334c0,-3.333 -0.583,-6.5 -1.666,-9.416Z" style="fill:#fff;fill-rule:nonzero;"/><path d="M1139.63,1771.41l6.583,0l0,52.25l32.834,0l-0,6.084l-39.417,-0l-0,-58.334Z" style="fill:#fff;fill-rule:nonzero;"/><path d="M1249.64,1804.83c0,4.25 -0.583,8 -1.75,11.25c-1.167,3.25 -2.833,5.917 -4.917,8.083c-2.166,2.167 -4.75,3.75 -7.666,4.834c-3,1.083 -6.334,1.666 -10,1.666c-3.584,0 -6.917,-0.583 -9.834,-1.666c-3,-1.084 -5.583,-2.667 -7.666,-4.834c-2.167,-2.083 -3.834,-4.75 -5,-7.916c-1.167,-3.167 -1.75,-6.834 -1.75,-10.917l-0,-33.917l6.583,0l0,33.5c0,6.334 1.583,11.167 4.75,14.584c3.083,3.416 7.5,5.083 13.083,5.083c5.417,0 9.667,-1.583 12.834,-4.833c3.166,-3.25 4.75,-8 4.75,-14.417l-0,-33.917l6.583,0l0,33.417Z" style="fill:#fff;fill-rule:nonzero;"/><path d="M1299.63,1829.75l-6.583,-0l-0,-52.25l-19.584,-0l0,-6.084l45.75,0l0,6.084l-19.583,-0l-0,52.25Z" style="fill:#fff;fill-rule:nonzero;"/><rect x="1344.64" y="1771.41" width="6.583" height="58.333" style="fill:#fff;fill-rule:nonzero;"/><path d="M1435.47,1812c-1.416,3.666 -3.5,6.916 -6.083,9.666c-2.583,2.75 -5.75,5 -9.417,6.584c-3.666,1.666 -7.75,2.5 -12.166,2.5c-4.417,-0 -8.5,-0.834 -12.084,-2.417c-3.666,-1.583 -6.833,-3.833 -9.416,-6.583c-2.584,-2.75 -4.584,-5.917 -6,-9.584c-1.417,-3.583 -2.167,-7.416 -2.167,-11.5c-0,-4.083 0.75,-7.916 2.167,-11.583c1.416,-3.583 3.5,-6.833 6.083,-9.583c2.583,-2.75 5.75,-5 9.417,-6.667c3.666,-1.583 7.75,-2.417 12.166,-2.417c4.417,0 8.5,0.834 12.167,2.417c3.583,1.583 6.75,3.75 9.333,6.5c2.584,2.75 4.667,6 6.084,9.583c1.416,3.667 2.083,7.5 2.083,11.584c-0,4.083 -0.75,7.916 -2.167,11.5Zm-6.333,-20.75c-1.167,-2.917 -2.75,-5.5 -4.833,-7.667c-2.084,-2.167 -4.5,-3.917 -7.25,-5.167c-2.834,-1.25 -5.917,-1.916 -9.25,-1.916c-3.334,-0 -6.417,0.583 -9.167,1.833c-2.833,1.25 -5.25,3 -7.25,5.167c-2,2.166 -3.583,4.666 -4.667,7.583c-1.166,2.917 -1.75,6.083 -1.75,9.417c0,3.333 0.584,6.5 1.75,9.416c1.084,2.917 2.667,5.5 4.75,7.667c2.084,2.167 4.5,3.917 7.334,5.167c2.75,1.25 5.833,1.916 9.166,1.916c3.334,0 6.417,-0.666 9.25,-1.916c2.75,-1.25 5.167,-2.917 7.167,-5.084c2,-2.166 3.583,-4.75 4.75,-7.666c1.083,-2.917 1.667,-6 1.667,-9.334c-0,-3.333 -0.584,-6.5 -1.667,-9.416Z" style="fill:#fff;fill-rule:nonzero;"/><path d="M1506.88,1771.41l6.417,0l-0,58.334l-5.25,-0l-37.667,-47.834l-0,47.834l-6.417,-0l0,-58.334l6.167,0l36.75,46.75l-0,-46.75Z" style="fill:#fff;fill-rule:nonzero;"/></g></svg>