<svg id="SvgjsSvg1014" width="288" height="288" xmlns="http://www.w3.org/2000/svg" version="1.1" xmlns:xlink="http://www.w3.org/1999/xlink" xmlns:svgjs="http://svgjs.com/svgjs"><defs id="SvgjsDefs1015"></defs><g id="SvgjsG1016"><svg xmlns="http://www.w3.org/2000/svg" enable-background="new 0 0 443 443" viewBox="0 0 443 443" width="288" height="288"><path d="M321.785 38h-83.384V0H125.169v38H41.785v60h280V38zM155.169 30h53.232v8h-53.232V30zM295.142 214.31l5.66-86.31H62.769l19.016 290h114.172c-14.861-21.067-23.602-46.746-23.602-74.43C172.355 274.43 226.849 217.779 295.142 214.31z" fill="#021969" class="color000 svgShape"></path><path d="M301.785,244.141c-54.826,0-99.43,44.604-99.43,99.429S246.959,443,301.785,443s99.43-44.604,99.43-99.43
		S356.611,244.141,301.785,244.141z M355.961,376.533l-21.213,21.213l-32.963-32.963l-32.963,32.963l-21.213-21.213l32.963-32.963
		l-32.963-32.963l21.213-21.213l32.963,32.963l32.963-32.963l21.213,21.213l-32.963,32.963L355.961,376.533z" fill="#021969" class="color000 svgShape"></path></svg></g></svg>