<svg id="SvgjsSvg1001" width="288" height="288" xmlns="http://www.w3.org/2000/svg" version="1.1" xmlns:xlink="http://www.w3.org/1999/xlink" xmlns:svgjs="http://svgjs.com/svgjs"><defs id="SvgjsDefs1002"></defs><g id="SvgjsG1008"><svg xmlns="http://www.w3.org/2000/svg" width="288" height="288" viewBox="0 0 32 32"><path d="M29.707,19.293l-3-3a.9994.9994,0,0,0-1.414,0L16,25.5859V30h4.4141l9.2929-9.293A.9994.9994,0,0,0,29.707,19.293ZM19.5859,28H18V26.4141l5-5L24.5859,23ZM26,21.5859,24.4141,20,26,18.4141,27.5859,20Z" fill="#ffffff" class="color000 svgShape"></path><rect width="10" height="2" x="8" y="16" fill="#ffffff" class="color000 svgShape"></rect><rect width="12" height="2" x="8" y="10" fill="#ffffff" class="color000 svgShape"></rect><path d="M26,4a2.0023,2.0023,0,0,0-2-2H4A2.0023,2.0023,0,0,0,2,4V17a10.9814,10.9814,0,0,0,5.8242,9.707L13,29.4668V27.2L8.7656,24.9424A8.9858,8.9858,0,0,1,4,17V4H24v9h2Z" fill="#ffffff" class="color000 svgShape"></path><rect width="32" height="32" fill="none" data-name="&amp;lt;Transparent Rectangle&amp;gt;"></rect></svg></g></svg>