<svg xmlns="http://www.w3.org/2000/svg" width="23.63" height="17.723" viewBox="0 0 23.63 17.723">
  <path id="email" d="M21.415,59.882H2.215A2.218,2.218,0,0,0,0,62.1V75.389A2.218,2.218,0,0,0,2.215,77.6h19.2a2.218,2.218,0,0,0,2.215-2.215V62.1A2.218,2.218,0,0,0,21.415,59.882Zm0,1.477a.734.734,0,0,1,.283.057l-9.883,8.565L1.932,61.416a.735.735,0,0,1,.283-.057Zm0,14.769H2.215a.739.739,0,0,1-.738-.738V62.976l9.854,8.54a.74.74,0,0,0,.968,0l9.854-8.54V75.389A.739.739,0,0,1,21.415,76.128Z" transform="translate(0 -59.882)" fill="#fff"/>
</svg>
