<svg id="marker" xmlns="http://www.w3.org/2000/svg" width="18.293" height="25.255" viewBox="0 0 18.293 25.255">
  <g id="Group_46" data-name="Group 46" transform="translate(0)">
    <g id="Group_45" data-name="Group 45">
      <path id="Path_53" data-name="Path 53" d="M79.719,0a9.157,9.157,0,0,0-9.146,9.146c0,6.259,8.185,15.447,8.534,15.835a.824.824,0,0,0,1.226,0c.348-.388,8.534-9.576,8.534-15.835A9.157,9.157,0,0,0,79.719,0Zm0,23.17c-2.755-3.272-7.5-9.728-7.5-14.023a7.5,7.5,0,1,1,15,0C87.219,13.442,82.475,19.9,79.719,23.17Z" transform="translate(-70.573)" fill="#fff"/>
    </g>
  </g>
  <g id="Group_48" data-name="Group 48" transform="translate(4.545 4.545)">
    <g id="Group_47" data-name="Group 47">
      <path id="Path_54" data-name="Path 54" d="M167.31,92.134a4.6,4.6,0,1,0,4.6,4.6A4.607,4.607,0,0,0,167.31,92.134Zm0,7.556a2.955,2.955,0,1,1,2.955-2.955A2.958,2.958,0,0,1,167.31,99.69Z" transform="translate(-162.708 -92.134)" fill="#fff"/>
    </g>
  </g>
</svg>
