<?xml version="1.0" encoding="iso-8859-1"?>
<!-- Generator: Adobe Illustrator 19.0.0, SVG Export Plug-In . SVG Version: 6.00 Build 0)  -->
<svg version="1.1" id="Layer_1" xmlns="http://www.w3.org/2000/svg" xmlns:xlink="http://www.w3.org/1999/xlink" x="0px" y="0px"
	 viewBox="0 0 512 512" style="enable-background:new 0 0 512 512;" xml:space="preserve">
<g>
	<g>
		<path d="M0,0v512h512V0H0z M477.867,477.867H34.133V34.133h443.733V477.867z"/>
	</g>
</g>
<g>
	<g>
		<path d="M233.244,136.533c-28.232,0-51.2,22.967-51.2,51.2s22.968,51.2,51.2,51.2s51.2-22.967,51.2-51.2
			S261.476,136.533,233.244,136.533z M233.244,204.8c-9.411,0-17.067-7.656-17.067-17.067s7.656-17.067,17.067-17.067
			c9.411,0,17.067,7.656,17.067,17.067S242.655,204.8,233.244,204.8z"/>
	</g>
</g>
<g>
	<g>
		<path d="M255.999,68.267C152.483,68.267,68.266,152.484,68.266,256s84.217,187.733,187.733,187.733
			c103.517,0,187.733-84.217,187.733-187.733S359.515,68.267,255.999,68.267z M102.399,256c0-84.695,68.905-153.6,153.6-153.6
			c73.185,0,134.571,51.453,149.906,120.081l-36.127-36.128L233.244,322.887l-91.022-91.022l-39.093,39.093
			C102.651,266.034,102.399,261.046,102.399,256z M255.999,409.6c-65.659,0-121.817-41.415-143.75-99.491l29.974-29.974
			l91.022,91.022l136.533-136.533l38.824,38.824C399.911,349.958,334.794,409.6,255.999,409.6z"/>
	</g>
</g>
<g>
</g>
<g>
</g>
<g>
</g>
<g>
</g>
<g>
</g>
<g>
</g>
<g>
</g>
<g>
</g>
<g>
</g>
<g>
</g>
<g>
</g>
<g>
</g>
<g>
</g>
<g>
</g>
<g>
</g>
</svg>
